<svg version="1.1" id="Layer_1" xmlns="http://www.w3.org/2000/svg" xmlns:xlink="http://www.w3.org/1999/xlink" x="0px" y="0px"
	 width="100%" viewBox="0 0 300 144" enable-background="new 0 0 300 144" xml:space="preserve">
<path fill="#47704C" opacity="1.000000" stroke="none" 
	d="
M301.000000,50.000000 
	C301.000000,81.564461 301.000000,113.128929 301.000000,145.000000 
	C287.647339,145.000000 274.292328,145.000000 260.315552,144.636429 
	C256.538208,137.397400 263.559387,133.327682 264.636658,127.619217 
	C264.247559,127.181206 263.858490,126.743195 263.469391,126.305176 
	C261.147736,127.890358 258.826080,129.475540 256.300385,131.200043 
	C254.804291,127.435295 251.978409,125.479736 246.876724,128.034103 
	C251.413620,133.029297 253.812042,138.492081 253.000000,145.000000 
	C249.307098,145.000000 245.614182,145.000000 241.445160,144.579208 
	C240.575897,139.969330 240.182770,135.780243 239.761398,131.290222 
	C242.349350,131.421982 243.900955,131.500977 245.452545,131.579971 
	C245.771103,131.097717 246.089661,130.615479 246.408218,130.133224 
	C245.207001,129.094757 244.095917,127.320869 242.787109,127.160484 
	C239.338989,126.737953 235.804901,127.027779 232.305145,127.012497 
	C228.728470,126.996880 228.569733,128.875793 229.691208,131.671631 
	C231.338913,131.594894 232.899490,131.522232 235.381012,131.406662 
	C234.891754,136.222488 234.445877,140.611252 234.000000,145.000000 
	C231.958328,145.000000 229.916672,145.000000 227.273911,144.615448 
	C226.399078,138.681274 226.125336,133.131653 225.843231,127.412697 
	C224.268494,127.412697 222.386169,127.412697 221.196655,127.412697 
	C220.777328,133.575470 220.388672,139.287735 220.000000,145.000000 
	C218.285645,145.000000 216.571289,145.000000 214.578903,144.687347 
	C215.140137,142.621140 217.154510,140.134064 216.602173,139.249237 
	C214.821533,136.396744 212.095367,134.134491 209.001389,130.872635 
	C211.663559,131.496567 213.549881,131.938660 217.060181,132.761368 
	C215.492538,130.213257 214.474380,127.337845 213.617844,127.385216 
	C210.526962,127.556114 205.869553,127.760567 204.745544,129.677414 
	C201.699539,134.871948 206.002472,137.932785 209.892349,141.078751 
	C207.875381,140.442001 205.858398,139.805237 202.154449,138.635910 
	C203.479324,141.599030 204.239655,143.299515 205.000000,145.000000 
	C204.250000,145.000000 203.500000,145.000000 202.242493,144.684021 
	C199.176041,140.767609 196.012177,137.609955 198.806030,132.340302 
	C200.186859,129.735794 197.587387,127.737350 194.888702,127.224754 
	C192.962906,126.858963 190.921478,127.153931 188.946198,126.984482 
	C185.860947,126.719826 184.871414,128.151062 184.965363,131.083344 
	C185.113861,135.717834 185.001785,140.360687 185.000000,145.000000 
	C183.933334,145.000000 182.866653,145.000000 181.408844,144.639496 
	C181.172852,143.057327 181.327972,141.835663 181.435379,140.989792 
	C178.519531,140.726135 175.931808,140.492157 173.344070,140.258179 
	C173.385086,139.688370 173.426117,139.118561 173.467133,138.548752 
	C175.453964,138.548752 177.440811,138.548752 179.625153,138.548752 
	C179.625153,136.705795 179.625153,135.148224 179.625153,133.894958 
	C177.245041,133.677048 175.227814,133.492371 173.210587,133.307693 
	C173.233948,132.773621 173.257309,132.239532 173.280670,131.705460 
	C175.665741,131.705460 178.050827,131.705460 180.435898,131.705460 
	C180.771271,131.212128 181.106644,130.718781 181.442017,130.225449 
	C180.257538,129.156570 179.209351,127.447632 177.858521,127.159996 
	C175.482559,126.654091 172.823105,126.608383 170.475952,127.173683 
	C169.125046,127.499046 167.275269,129.329147 167.168915,130.608200 
	C166.772415,135.377182 167.004059,140.198395 167.000000,145.000000 
	C164.299988,145.000000 161.599976,145.000000 158.461365,144.616638 
	C159.937210,138.712830 161.851654,133.192368 163.828857,127.490952 
	C155.270111,125.394867 159.049530,134.099930 154.893417,135.951752 
	C154.003784,133.120132 153.085648,130.197800 152.175552,127.301056 
	C150.211243,127.301056 148.434387,127.301056 146.196533,127.301056 
	C148.216125,133.460251 150.108063,139.230118 152.000000,145.000000 
	C149.299988,145.000000 146.599976,145.000000 143.449982,144.531860 
	C142.999741,140.100937 143.024521,136.137955 142.993179,132.175430 
	C142.948792,126.562141 142.240845,126.106216 137.317902,127.676651 
	C136.863617,133.648056 136.431808,139.324036 136.000000,145.000000 
	C134.933334,145.000000 133.866653,145.000000 132.399994,144.533524 
	C132.000000,138.659607 132.000000,133.252167 132.000000,127.438347 
	C130.858734,127.438347 129.207382,127.438347 127.637115,127.438347 
	C127.759163,130.116058 127.863869,132.413086 127.968567,134.710114 
	C125.911438,132.872772 125.024216,130.568115 123.380661,129.124649 
	C122.020737,127.930298 119.779373,127.394386 117.903992,127.334396 
	C117.311646,127.315460 116.159332,129.750885 116.092072,131.104248 
	C115.862373,135.726273 116.001556,140.366638 116.000000,145.000000 
	C113.958336,145.000000 111.916664,145.000000 109.637436,144.707825 
	C113.420486,140.909485 112.816727,136.146729 113.042305,131.535339 
	C113.253082,127.226730 111.439232,126.239799 107.881805,127.471863 
	C107.881805,130.972565 108.177200,134.291687 107.730492,137.507736 
	C107.561462,138.724655 105.679825,139.703720 104.578835,140.791199 
	C103.725594,139.603851 102.273460,138.481476 102.136253,137.216461 
	C101.785118,133.978943 102.019119,130.677979 102.019119,127.431847 
	C97.464966,126.136711 95.814369,127.554100 95.891037,132.169449 
	C95.971001,136.982513 96.529640,141.388626 100.000000,145.000000 
	C67.085640,145.000000 34.171284,145.000000 1.000000,145.000000 
	C1.000000,121.979744 1.000000,98.958527 1.468649,75.471848 
	C24.221968,75.007240 46.507637,74.897072 68.790504,75.097740 
	C73.546448,75.140572 75.145889,73.684807 75.100952,68.850952 
	C74.890732,46.235611 75.002983,23.617270 75.000000,1.000000 
	C84.687561,1.000000 94.375122,1.000000 104.338120,1.276214 
	C93.816864,6.023338 93.293976,18.323027 96.734100,25.515106 
	C99.700401,31.716616 113.207794,36.414787 120.060471,31.609224 
	C124.789345,32.335419 127.981575,32.825638 131.210693,33.321518 
	C131.420609,30.805408 131.253357,29.107885 131.742859,27.627514 
	C133.295410,22.932177 137.332397,25.342575 140.241043,25.226555 
	C141.438919,25.178774 142.898621,27.275345 143.924759,28.634060 
	C144.876404,29.894125 145.547531,32.753723 146.102905,32.693741 
	C149.071060,32.373154 152.777359,35.078037 155.357574,31.029228 
	C156.813797,31.527472 157.843918,32.133553 158.954773,32.390072 
	C169.147476,34.743805 176.716507,31.546858 175.956802,21.846197 
	C175.510315,16.145126 170.329559,15.162988 166.565842,12.676630 
	C165.094833,11.704874 164.369751,9.603978 163.304932,8.017363 
	C165.386810,7.459622 167.564377,6.242214 169.524139,6.526424 
	C171.554855,6.820923 173.374481,8.570961 175.286423,9.684375 
	C175.706360,9.453687 176.126297,9.222999 176.546219,8.992311 
	C175.697479,6.328208 174.848740,3.664105 174.000000,1.000001 
	C175.388885,1.000000 176.777786,1.000000 178.638702,1.415743 
	C179.110748,12.024604 179.110748,22.217722 179.110748,32.999340 
	C185.916977,32.999340 192.023712,33.026844 198.130081,32.991589 
	C204.212006,32.956478 205.140244,31.480810 203.160797,25.881229 
	C199.162766,26.259306 195.319183,26.632589 191.473526,26.983007 
	C188.891129,27.218319 187.982513,25.964838 187.970200,23.446142 
	C187.957352,20.823215 189.091858,19.892363 191.578873,19.987455 
	C194.172806,20.086634 196.773453,20.009590 199.689697,20.009590 
	C199.689697,17.821281 199.689697,15.416561 199.689697,13.100510 
	C196.910538,13.412143 194.325485,13.716001 191.737122,13.988459 
	C188.936478,14.283262 187.952896,12.972100 187.949402,10.212484 
	C187.945862,7.409159 188.595703,5.591992 191.810730,6.020381 
	C195.329437,6.489237 198.834534,7.060183 203.000000,7.684765 
	C203.000000,5.229984 203.000000,3.114992 203.000000,1.000000 
	C235.564255,1.000000 268.128510,1.000000 301.000000,1.000000 
	C301.000000,14.686028 301.000000,28.374355 300.565674,42.531342 
	C298.014893,43.000000 295.898438,43.000000 293.732147,43.000000 
	C293.732147,49.293705 293.732147,54.974556 293.732147,61.949135 
	C290.873993,56.909206 288.723267,52.877621 286.348633,48.982513 
	C282.261139,42.277691 280.847351,41.792622 274.000000,43.391064 
	C274.000000,48.756954 274.172607,53.786491 273.952484,58.798782 
	C273.723175,64.019707 273.114899,69.223991 272.661133,74.567978 
	C275.372711,74.567978 277.902313,74.567978 280.413483,74.567978 
	C280.413483,67.853905 280.413483,61.569206 280.413483,54.194633 
	C284.025055,60.523960 287.151978,65.791191 290.058472,71.177376 
	C291.800049,74.404808 294.497528,76.176407 297.676849,74.672310 
	C299.083191,74.006989 299.716705,70.791542 299.914246,68.660805 
	C300.489136,62.460281 300.666626,56.222916 301.000000,50.000000 
M126.988907,109.010017 
	C126.463951,110.931213 125.938995,112.852402 125.136703,115.788597 
	C121.042473,110.476234 117.737968,106.188568 114.460419,101.935867 
	C121.659767,95.104362 121.776138,88.490799 114.420616,86.027878 
	C108.832840,84.156883 102.590759,84.239975 96.562309,83.443352 
	C96.562309,95.173630 96.562309,105.529366 96.562309,115.897697 
	C99.524475,115.897697 102.524590,115.897697 105.399475,115.897697 
	C105.399475,111.650085 105.399475,107.814293 105.399475,102.772484 
	C108.435730,106.677452 111.041176,109.453262 112.945793,112.646996 
	C114.691322,115.573975 116.963165,116.092148 120.001900,116.043877 
	C128.161331,115.914253 136.324249,116.017815 144.485672,115.993500 
	C150.488144,115.975624 151.381287,114.421455 149.186356,109.246269 
	C145.479965,109.852974 141.992233,110.491920 138.483307,110.977486 
	C135.489075,111.391838 133.921738,110.433479 133.910370,106.935791 
	C133.898499,103.289520 135.753983,102.666290 138.605240,103.029076 
	C141.184845,103.357300 143.736176,103.907639 146.506958,104.396553 
	C146.506958,101.712967 146.506958,99.064034 146.506958,96.320961 
	C142.387009,97.010284 138.747086,97.619293 135.154663,98.220352 
	C135.154663,95.006805 135.154663,92.614029 135.154663,89.645660 
	C139.848053,90.154022 144.185883,90.623878 149.996948,91.253304 
	C148.722305,88.470589 147.875183,84.480080 146.684326,84.374718 
	C139.818909,83.767319 132.872192,84.078598 126.997437,84.078598 
	C126.997437,92.644333 126.997437,100.375114 126.988907,109.010017 
M123.609253,60.056870 
	C122.643509,56.553173 121.640465,53.059246 120.719803,49.543743 
	C118.831619,42.333805 118.481155,42.109726 111.503029,43.426571 
	C109.913773,49.751930 108.409538,55.738922 106.905304,61.725910 
	C104.904800,56.457314 104.077972,51.240593 102.872864,46.112766 
	C102.594559,44.928551 101.143326,43.376575 100.018417,43.172970 
	C97.887360,42.787247 95.601761,43.255348 92.929680,43.391731 
	C95.810875,53.444256 98.335251,62.852665 101.348610,72.101768 
	C101.788139,73.450813 104.565720,74.756897 106.253166,74.746460 
	C107.534996,74.738525 109.456352,72.834358 109.959686,71.381294 
	C111.685898,66.397896 112.912971,61.241608 114.608299,55.152996 
	C116.217377,61.128712 117.338440,66.277740 119.085442,71.204834 
	C119.640091,72.769104 121.679535,74.329628 123.362648,74.853287 
	C126.158432,75.723137 127.449890,73.691551 128.114990,71.123451 
	C129.525772,65.676140 131.048492,60.257282 132.571396,54.839714 
	C133.618271,51.115543 134.742645,47.413166 135.844452,43.659924 
	C128.916153,42.425961 129.138367,42.474506 127.803963,48.582634 
	C126.912170,52.664715 125.277382,56.584476 123.609253,60.056870 
M205.082138,84.078697 
	C200.976212,85.536263 204.217285,88.373711 204.136322,90.396919 
	C203.794418,98.942635 203.991531,107.509918 203.991531,115.999168 
	C206.910416,115.999168 209.815506,115.999168 212.571381,115.999168 
	C212.362732,111.694092 212.168716,107.690819 211.974686,103.687553 
	C212.422836,103.556877 212.870987,103.426193 213.319122,103.295517 
	C215.757965,106.536903 218.273132,109.724236 220.616470,113.033249 
	C223.600830,117.247429 227.767670,115.804993 232.721893,116.052170 
	C228.818619,110.842148 225.505630,106.420052 223.337692,103.526329 
	C224.999344,98.815865 227.343826,95.299171 227.176651,91.906235 
	C226.929108,86.882385 222.603073,85.065559 217.843643,84.786964 
	C213.880936,84.555008 209.920868,84.277519 205.082138,84.078697 
M264.574982,64.957809 
	C263.558868,63.464031 262.542755,61.970253 261.503815,60.442917 
	C261.896515,59.994678 262.146790,59.485500 262.550873,59.282635 
	C266.244690,57.428131 267.729980,53.790245 266.623138,50.548168 
	C265.722504,47.910091 262.699341,44.783485 260.091064,44.191120 
	C254.455246,42.911175 248.481537,43.119049 243.223602,42.757946 
	C243.223602,53.978573 243.223602,64.108696 243.223602,74.619278 
	C245.832260,74.619278 249.043701,74.619278 252.284836,74.619278 
	C251.808914,70.186684 251.353531,65.945465 250.898163,61.704247 
	C251.382446,61.569695 251.866730,61.435146 252.350998,61.300594 
	C254.804413,64.571808 257.453461,67.716972 259.662689,71.145523 
	C262.548920,75.624680 266.291443,75.692032 271.790344,73.981544 
	C269.250244,70.790932 267.142517,68.143440 264.574982,64.957809 
M160.668961,67.468544 
	C157.285919,67.974930 153.910568,68.542633 150.517334,68.967598 
	C147.969040,69.286736 146.975937,68.034386 146.968872,65.473755 
	C146.961685,62.861187 148.055588,61.887608 150.569626,61.986977 
	C153.170319,62.089771 155.778229,62.009846 158.614822,62.009846 
	C158.614822,59.985256 158.614822,57.764351 158.614822,55.355923 
	C155.785583,55.589893 153.344162,55.782909 150.904495,55.995945 
	C148.252823,56.227486 146.910706,55.309330 146.960312,52.364017 
	C147.005997,49.651749 148.277039,48.840126 150.680725,49.007046 
	C154.211105,49.252213 157.741852,49.492012 162.639221,49.827816 
	C161.669067,47.338566 160.972229,43.457005 159.998367,43.386208 
	C152.825989,42.864811 145.598297,43.104389 138.631241,43.104389 
	C138.631241,54.131355 138.631241,64.198883 138.631241,74.999855 
	C144.328583,74.999855 150.109436,75.009018 155.890244,74.997437 
	C162.516449,74.984161 162.731567,74.691582 160.668961,67.468544 
M176.950531,89.007729 
	C176.950531,97.778885 176.950531,106.550049 176.950531,115.999557 
	C182.946014,115.999557 189.215881,116.018417 195.485580,115.994133 
	C201.484009,115.970901 202.346130,114.485519 200.195053,109.239159 
	C196.512955,109.846924 193.035934,110.498962 189.534927,110.974533 
	C186.619354,111.370598 184.912292,110.562820 184.910660,107.004135 
	C184.909027,103.455009 186.581528,102.684250 189.522003,103.011505 
	C191.895905,103.275711 194.261124,103.617744 196.600922,103.921448 
	C196.600922,101.351532 196.600922,98.966278 196.600922,96.455338 
	C193.621597,97.016663 191.063721,97.599228 188.474808,97.957932 
	C185.906998,98.313721 184.865692,96.985153 184.990921,94.456947 
	C185.098709,92.281113 184.720978,89.815948 188.077484,90.043053 
	C191.812500,90.295753 195.538040,90.688538 199.340958,91.026848 
	C200.841293,85.047173 200.107162,84.034523 193.800186,84.005013 
	C189.146896,83.983238 184.491028,84.094650 179.840820,83.973564 
	C176.610947,83.889465 175.500443,85.044907 176.950531,89.007729 
M231.178024,55.984768 
	C230.346542,55.989265 229.515076,55.997303 228.683594,55.997585 
	C226.330795,55.998390 224.018417,56.323238 223.947525,52.654968 
	C223.871674,48.730602 226.302658,48.872089 228.878006,49.018402 
	C232.112869,49.202183 235.340576,49.511520 240.247192,49.899025 
	C238.716354,47.160694 237.712280,43.445263 236.395584,43.330959 
	C229.522476,42.734299 222.569916,43.052570 216.220367,43.052570 
	C216.220367,53.968216 216.220367,64.237358 216.220367,74.999779 
	C221.979218,74.999779 228.105011,75.013847 234.230713,74.995865 
	C240.499115,74.977463 241.101105,74.048767 239.317459,68.304916 
	C235.077225,68.534935 231.021027,69.001968 226.997406,68.804688 
	C225.952957,68.753471 224.229706,66.617073 224.241638,65.453049 
	C224.253464,64.300407 225.967621,62.315105 227.101929,62.188400 
	C230.132507,61.849876 233.252625,62.312954 236.656891,62.472450 
	C236.656891,60.102932 236.656891,57.880741 236.656891,55.228695 
	C234.859299,55.508987 233.453506,55.728184 231.178024,55.984768 
M276.378906,90.000961 
	C279.073883,90.444427 281.768829,90.887894 286.098633,91.600380 
	C284.718353,88.502960 283.898773,84.488152 282.720764,84.380089 
	C276.014648,83.764870 269.222961,84.081802 262.574280,84.081802 
	C262.574280,95.022072 262.574280,105.207214 262.574280,115.999809 
	C268.521729,115.999809 274.309814,116.011589 280.097870,115.996651 
	C286.488098,115.980156 286.934235,115.329399 285.353699,109.096092 
	C281.993988,109.736435 278.700226,110.454803 275.375153,110.971581 
	C272.268219,111.454483 270.932831,110.209473 270.913910,106.833450 
	C270.892914,103.088814 272.951660,102.684341 275.699646,103.047188 
	C277.945129,103.343697 280.146484,103.974243 282.668121,104.522018 
	C282.668121,101.774216 282.668121,99.202621 282.668121,96.230209 
	C280.361328,96.770035 278.471252,97.362480 276.536438,97.624748 
	C274.414612,97.912369 271.628906,99.256157 271.089569,95.541496 
	C270.614441,92.269447 270.851807,89.317650 276.378906,90.000961 
M236.000412,102.503769 
	C237.273148,105.917519 238.248459,109.490143 239.949753,112.674957 
	C240.746445,114.166351 242.945755,115.755714 244.507095,115.753395 
	C246.071930,115.751068 248.351013,114.165207 249.065689,112.673759 
	C251.421249,107.758080 253.237473,102.581429 255.208313,97.484703 
	C256.839417,93.266602 258.396210,89.019775 260.146484,84.357979 
	C256.931213,84.357979 254.533585,84.357979 253.040619,84.357979 
	C250.511566,91.613792 248.190399,98.273148 245.869232,104.932503 
	C245.434418,104.933975 244.999603,104.935455 244.564789,104.936928 
	C243.031891,98.895317 241.541748,92.842209 239.922623,86.823799 
	C239.662766,85.857803 238.891479,84.343758 238.246170,84.284454 
	C235.275604,84.011391 232.265915,84.164108 228.905273,84.164108 
	C231.485657,90.727417 233.650757,96.234482 236.000412,102.503769 
M165.831696,47.800079 
	C163.747787,55.305332 165.075012,58.461147 171.776733,61.906719 
	C172.808945,62.437408 174.078003,62.718376 174.847336,63.499279 
	C175.963760,64.632500 176.724991,66.115662 177.637695,67.449577 
	C175.828781,68.159546 173.799576,69.761963 172.259750,69.381859 
	C169.580704,68.720512 167.203690,66.835655 164.635056,65.428123 
	C163.275314,72.635094 164.725159,75.155197 172.729385,75.463005 
	C176.439163,75.605667 180.892975,73.181335 183.891190,70.614502 
	C187.306671,67.690422 186.667328,63.007275 183.706390,59.847473 
	C181.552185,57.548588 178.033432,56.589073 175.446503,54.609669 
	C174.132431,53.604183 173.532761,51.664997 172.610123,50.147911 
	C174.501328,49.515774 176.507217,48.161427 178.253998,48.438805 
	C180.322922,48.767330 182.168472,50.502670 184.168732,51.661804 
	C185.880157,44.875183 185.483078,44.351532 179.616516,42.697193 
	C174.049973,41.127460 169.993637,43.430626 165.831696,47.800079 
M156.103607,86.414978 
	C149.744278,93.013710 150.701233,98.757401 158.863312,102.941811 
	C160.339798,103.698746 162.007767,104.211174 163.259613,105.236572 
	C164.265182,106.060226 165.593842,107.791260 165.304504,108.575989 
	C164.911804,109.641106 163.096680,110.839905 161.919647,110.811699 
	C159.884064,110.762924 157.776245,110.023849 155.879242,109.172249 
	C154.571075,108.584991 153.567184,107.319977 152.079453,106.064240 
	C150.508560,116.199364 155.907852,117.120117 162.973755,116.926521 
	C163.774338,116.904587 164.560043,116.503494 165.361298,116.314987 
	C169.606628,115.316216 172.598862,113.179268 172.998291,108.404602 
	C173.401932,103.579880 171.914383,99.951347 167.161331,98.040482 
	C165.473221,97.361809 163.712891,96.654007 162.308807,95.548805 
	C161.324966,94.774399 160.142639,93.076622 160.407867,92.204475 
	C160.703583,91.232086 162.645111,90.004852 163.681488,90.158867 
	C166.459991,90.571770 169.137634,91.663307 171.820953,92.474892 
	C172.220734,85.043983 171.085205,83.691246 163.780319,84.082947 
	C161.390442,84.211098 159.050598,85.272575 156.103607,86.414978 
M209.816879,49.148495 
	C210.979172,49.629211 212.141464,50.109932 213.364929,50.615952 
	C214.721832,43.312073 214.504562,43.016895 207.912720,43.002502 
	C202.601715,42.990902 197.290665,42.989727 191.979675,43.002842 
	C185.512543,43.018810 185.164291,43.508598 186.600174,50.007790 
	C189.529297,49.673714 192.465164,49.338867 195.635071,48.977329 
	C195.635071,58.070881 195.635071,66.248581 195.635071,74.623665 
	C198.676086,74.623665 201.561356,74.623665 204.000992,74.623665 
	C204.000992,67.493889 204.204269,60.735893 203.923676,53.998047 
	C203.759140,50.047390 205.073898,48.406055 209.816879,49.148495 
z"/>
<path fill="#033272" opacity="1.000000" stroke="none" 
	d="
M74.531342,1.000000 
	C75.002983,23.617270 74.890732,46.235611 75.100952,68.850952 
	C75.145889,73.684807 73.546448,75.140572 68.790504,75.097740 
	C46.507637,74.897072 24.221968,75.007240 1.468649,75.003189 
	C1.000000,50.406464 1.000000,25.812923 1.000000,1.000000 
	C25.353788,1.000000 49.708237,1.000000 74.531342,1.000000 
M26.805506,39.418503 
	C23.434280,37.794064 20.063053,36.169628 16.691826,34.545189 
	C16.525091,34.874390 16.358356,35.203587 16.191620,35.532784 
	C19.470207,38.079121 22.748793,40.625458 27.188890,44.073891 
	C21.868902,44.073891 18.151545,44.073891 14.434189,44.073891 
	C14.406245,44.282909 14.378302,44.491932 14.350357,44.700951 
	C17.187254,45.590092 20.024151,46.479233 23.763269,47.651150 
	C19.967617,49.146729 17.040968,50.299900 12.927832,51.920578 
	C29.151798,51.920578 44.052902,51.920578 60.104404,51.920578 
	C56.923450,50.273041 54.430756,48.981979 51.482731,47.455086 
	C54.915489,46.440758 57.701317,45.617588 60.487144,44.794418 
	C60.454845,44.587376 60.422546,44.380333 60.390247,44.173290 
	C56.345020,44.173290 52.299789,44.173290 47.609337,44.173290 
	C50.911201,41.368488 53.603161,39.081768 56.295124,36.795052 
	C56.036770,36.419781 55.778416,36.044514 55.520065,35.669243 
	C52.225822,37.206341 48.931580,38.743443 45.065544,40.547340 
	C47.591141,36.080688 49.673412,32.398083 51.755688,28.715477 
	C51.312416,28.447458 50.869144,28.179438 50.425873,27.911419 
	C47.645767,31.067841 44.865665,34.224262 41.565514,37.971127 
	C41.813850,32.923416 42.001736,29.104418 42.189621,25.285421 
	C41.843460,25.225409 41.497299,25.165396 41.151134,25.105385 
	C40.012325,28.946079 38.873512,32.786774 37.416172,37.701714 
	C35.609325,31.652290 34.128677,26.695011 32.648033,21.737730 
	C32.189919,21.891129 31.731804,22.044525 31.273689,22.197924 
	C31.921558,27.199583 32.569427,32.201244 33.337143,38.128117 
	C29.931971,34.574524 27.449467,31.983814 24.966965,29.393106 
	C24.620953,29.752958 24.274942,30.112810 23.928930,30.472662 
	C25.420938,33.181786 26.912947,35.890907 27.930143,39.118999 
	C27.779448,39.298622 27.628750,39.478249 26.805506,39.418503 
z"/>
<path fill="#003070" opacity="1.000000" stroke="none" 
	d="
M154.968933,30.974928 
	C152.777359,35.078037 149.071060,32.373154 146.102905,32.693741 
	C145.547531,32.753723 144.876404,29.894125 143.924759,28.634060 
	C142.898621,27.275345 141.438919,25.178774 140.241043,25.226555 
	C137.332397,25.342575 133.295410,22.932177 131.742859,27.627514 
	C131.253357,29.107885 131.420609,30.805408 131.210693,33.321518 
	C127.981575,32.825638 124.789345,32.335419 120.060471,31.609224 
	C113.207794,36.414787 99.700401,31.716616 96.734100,25.515106 
	C93.293976,18.323027 93.816864,6.023338 104.806778,1.276214 
	C109.356903,1.000000 113.713799,1.000000 118.773376,1.285855 
	C123.724709,3.372031 121.704613,6.552516 121.556511,9.577312 
	C112.457382,5.044976 108.864494,5.005596 105.316513,9.225374 
	C102.590912,12.467059 102.193039,18.428314 104.476593,21.809465 
	C108.061310,27.117207 112.196587,27.727198 122.124146,24.412640 
	C122.843086,25.391409 123.562027,26.370178 124.638931,27.836285 
	C128.239685,18.509939 131.619843,9.754970 135.000000,1.000000 
	C137.041672,1.000000 139.083328,1.000000 141.604858,1.366620 
	C144.148529,6.972060 146.058243,12.278612 148.322006,17.429565 
	C150.355850,22.057392 152.778564,26.514313 155.015030,31.028301 
	C155.000320,31.009977 154.968933,30.974928 154.968933,30.974928 
M139.466187,15.902250 
	C138.939941,14.582460 138.413681,13.262671 137.549210,11.094641 
	C136.566071,14.052096 135.876480,16.126518 135.186874,18.200939 
	C136.705582,17.087839 140.540573,22.087503 139.466187,15.902250 
z"/>
<path fill="#003070" opacity="1.000000" stroke="none" 
	d="
M301.000000,49.562500 
	C300.666626,56.222916 300.489136,62.460281 299.914246,68.660805 
	C299.716705,70.791542 299.083191,74.006989 297.676849,74.672310 
	C294.497528,76.176407 291.800049,74.404808 290.058472,71.177376 
	C287.151978,65.791191 284.025055,60.523960 280.413483,54.194633 
	C280.413483,61.569206 280.413483,67.853905 280.413483,74.567978 
	C277.902313,74.567978 275.372711,74.567978 272.661133,74.567978 
	C273.114899,69.223991 273.723175,64.019707 273.952484,58.798782 
	C274.172607,53.786491 274.000000,48.756954 274.000000,43.391064 
	C280.847351,41.792622 282.261139,42.277691 286.348633,48.982513 
	C288.723267,52.877621 290.873993,56.909206 293.732147,61.949135 
	C293.732147,54.974556 293.732147,49.293705 293.732147,43.000000 
	C295.898438,43.000000 298.014893,43.000000 300.565674,43.000000 
	C301.000000,45.041668 301.000000,47.083332 301.000000,49.562500 
z"/>
<path fill="#47704C" opacity="1.000000" stroke="none" 
	d="
M134.533142,1.000000 
	C131.619843,9.754970 128.239685,18.509939 124.638931,27.836285 
	C123.562027,26.370178 122.843086,25.391409 122.124146,24.412640 
	C112.196587,27.727198 108.061310,27.117207 104.476593,21.809465 
	C102.193039,18.428314 102.590912,12.467059 105.316513,9.225374 
	C108.864494,5.005596 112.457382,5.044976 121.556511,9.577312 
	C121.704613,6.552516 123.724709,3.372031 119.238029,1.285855 
	C124.022095,1.000000 129.044189,1.000000 134.533142,1.000000 
z"/>
<path fill="#003070" opacity="1.000000" stroke="none" 
	d="
M202.531372,1.000000 
	C203.000000,3.114992 203.000000,5.229984 203.000000,7.684765 
	C198.834534,7.060183 195.329437,6.489237 191.810730,6.020381 
	C188.595703,5.591992 187.945862,7.409159 187.949402,10.212484 
	C187.952896,12.972100 188.936478,14.283262 191.737122,13.988459 
	C194.325485,13.716001 196.910538,13.412143 199.689697,13.100510 
	C199.689697,15.416561 199.689697,17.821281 199.689697,20.009590 
	C196.773453,20.009590 194.172806,20.086634 191.578873,19.987455 
	C189.091858,19.892363 187.957352,20.823215 187.970200,23.446142 
	C187.982513,25.964838 188.891129,27.218319 191.473526,26.983007 
	C195.319183,26.632589 199.162766,26.259306 203.160797,25.881229 
	C205.140244,31.480810 204.212006,32.956478 198.130081,32.991589 
	C192.023712,33.026844 185.916977,32.999340 179.110748,32.999340 
	C179.110748,22.217722 179.110748,12.024604 179.055374,1.415743 
	C186.687576,1.000000 194.375168,1.000000 202.531372,1.000000 
z"/>
<path fill="#003070" opacity="1.000000" stroke="none" 
	d="
M173.536804,1.000001 
	C174.848740,3.664105 175.697479,6.328208 176.546219,8.992311 
	C176.126297,9.222999 175.706360,9.453687 175.286423,9.684375 
	C173.374481,8.570961 171.554855,6.820923 169.524139,6.526424 
	C167.564377,6.242214 165.386810,7.459622 163.304932,8.017363 
	C164.369751,9.603978 165.094833,11.704874 166.565842,12.676630 
	C170.329559,15.162988 175.510315,16.145126 175.956802,21.846197 
	C176.716507,31.546858 169.147476,34.743805 158.954773,32.390072 
	C157.843918,32.133553 156.813797,31.527472 155.357574,31.029228 
	C154.968933,30.974928 155.000320,31.009977 155.006149,30.596569 
	C155.011978,27.965784 155.011978,25.748407 155.011978,22.414839 
	C157.083298,24.016436 157.965744,25.128832 159.085098,25.474930 
	C161.430756,26.200188 163.888107,26.717688 166.328888,26.879959 
	C166.986389,26.923676 167.749069,25.385427 168.463486,24.573349 
	C166.813492,23.125404 165.165451,21.675240 163.509476,20.234165 
	C163.390106,20.130280 163.210144,20.098379 163.063309,20.023348 
	C153.145630,14.956091 152.387634,7.965260 161.000000,1.000000 
	C165.024551,1.000000 169.049088,1.000000 173.536804,1.000001 
z"/>
<path fill="#47704C" opacity="1.000000" stroke="none" 
	d="
M160.531723,1.000000 
	C152.387634,7.965260 153.145630,14.956091 163.063309,20.023348 
	C163.210144,20.098379 163.390106,20.130280 163.509476,20.234165 
	C165.165451,21.675240 166.813492,23.125404 168.463486,24.573349 
	C167.749069,25.385427 166.986389,26.923676 166.328888,26.879959 
	C163.888107,26.717688 161.430756,26.200188 159.085098,25.474930 
	C157.965744,25.128832 157.083298,24.016436 155.011978,22.414839 
	C155.011978,25.748407 155.011978,27.965784 155.020859,30.614891 
	C152.778564,26.514313 150.355850,22.057392 148.322006,17.429565 
	C146.058243,12.278612 144.148529,6.972060 142.042358,1.366620 
	C148.021149,1.000000 154.042297,1.000000 160.531723,1.000000 
z"/>
<path fill="#003070" opacity="1.000000" stroke="none" 
	d="
M185.467606,145.000000 
	C185.001785,140.360687 185.113861,135.717834 184.965363,131.083344 
	C184.871414,128.151062 185.860947,126.719826 188.946198,126.984482 
	C190.921478,127.153931 192.962906,126.858963 194.888702,127.224754 
	C197.587387,127.737350 200.186859,129.735794 198.806030,132.340302 
	C196.012177,137.609955 199.176041,140.767609 201.867493,144.684021 
	C196.645065,145.000000 191.290146,145.000000 185.467606,145.000000 
z"/>
<path fill="#003070" opacity="1.000000" stroke="none" 
	d="
M116.428467,145.000000 
	C116.001556,140.366638 115.862373,135.726273 116.092072,131.104248 
	C116.159332,129.750885 117.311646,127.315460 117.903992,127.334396 
	C119.779373,127.394386 122.020737,127.930298 123.380661,129.124649 
	C125.024216,130.568115 125.911438,132.872772 127.968567,134.710114 
	C127.863869,132.413086 127.759163,130.116058 127.637115,127.438347 
	C129.207382,127.438347 130.858734,127.438347 132.000000,127.438347 
	C132.000000,133.252167 132.000000,138.659607 132.000000,144.533524 
	C130.285645,145.000000 128.571274,145.000000 126.389114,144.645599 
	C124.563980,141.857849 123.206650,139.424515 121.849319,136.991196 
	C121.459740,137.146576 121.070160,137.301971 120.680580,137.457352 
	C121.120384,139.971573 121.560196,142.485779 122.000000,145.000000 
	C120.285645,145.000000 118.571281,145.000000 116.428467,145.000000 
z"/>
<path fill="#003070" opacity="1.000000" stroke="none" 
	d="
M167.464645,145.000000 
	C167.004059,140.198395 166.772415,135.377182 167.168915,130.608200 
	C167.275269,129.329147 169.125046,127.499046 170.475952,127.173683 
	C172.823105,126.608383 175.482559,126.654091 177.858521,127.159996 
	C179.209351,127.447632 180.257538,129.156570 181.442017,130.225449 
	C181.106644,130.718781 180.771271,131.212128 180.435898,131.705460 
	C178.050827,131.705460 175.665741,131.705460 173.280670,131.705460 
	C173.257309,132.239532 173.233948,132.773621 173.210587,133.307693 
	C175.227814,133.492371 177.245041,133.677048 179.625153,133.894958 
	C179.625153,135.148224 179.625153,136.705795 179.625153,138.548752 
	C177.440811,138.548752 175.453964,138.548752 173.467133,138.548752 
	C173.426117,139.118561 173.385086,139.688370 173.344070,140.258179 
	C175.931808,140.492157 178.519531,140.726135 181.435379,140.989792 
	C181.327972,141.835663 181.172852,143.057327 181.008850,144.639496 
	C176.643097,145.000000 172.286194,145.000000 167.464645,145.000000 
z"/>
<path fill="#003070" opacity="1.000000" stroke="none" 
	d="
M100.449982,145.000000 
	C96.529640,141.388626 95.971001,136.982513 95.891037,132.169449 
	C95.814369,127.554100 97.464966,126.136711 102.019119,127.431847 
	C102.019119,130.677979 101.785118,133.978943 102.136253,137.216461 
	C102.273460,138.481476 103.725594,139.603851 104.578835,140.791199 
	C105.679825,139.703720 107.561462,138.724655 107.730492,137.507736 
	C108.177200,134.291687 107.881805,130.972565 107.881805,127.471863 
	C111.439232,126.239799 113.253082,127.226730 113.042305,131.535339 
	C112.816727,136.146729 113.420486,140.909485 109.199936,144.707825 
	C106.299988,145.000000 103.599968,145.000000 100.449982,145.000000 
z"/>
<path fill="#003070" opacity="1.000000" stroke="none" 
	d="
M205.449982,145.000000 
	C204.239655,143.299515 203.479324,141.599030 202.154449,138.635910 
	C205.858398,139.805237 207.875381,140.442001 209.892349,141.078751 
	C206.002472,137.932785 201.699539,134.871948 204.745544,129.677414 
	C205.869553,127.760567 210.526962,127.556114 213.617844,127.385216 
	C214.474380,127.337845 215.492538,130.213257 217.060181,132.761368 
	C213.549881,131.938660 211.663559,131.496567 209.001389,130.872635 
	C212.095367,134.134491 214.821533,136.396744 216.602173,139.249237 
	C217.154510,140.134064 215.140137,142.621140 214.150436,144.687347 
	C211.299988,145.000000 208.599976,145.000000 205.449982,145.000000 
z"/>
<path fill="#003070" opacity="1.000000" stroke="none" 
	d="
M152.428467,145.000000 
	C150.108063,139.230118 148.216125,133.460251 146.196533,127.301056 
	C148.434387,127.301056 150.211243,127.301056 152.175552,127.301056 
	C153.085648,130.197800 154.003784,133.120132 154.893417,135.951752 
	C159.049530,134.099930 155.270111,125.394867 163.828857,127.490952 
	C161.851654,133.192368 159.937210,138.712830 158.011383,144.616638 
	C156.285645,145.000000 154.571289,145.000000 152.428467,145.000000 
z"/>
<path fill="#003070" opacity="1.000000" stroke="none" 
	d="
M253.437500,145.000000 
	C253.812042,138.492081 251.413620,133.029297 246.876724,128.034103 
	C251.978409,125.479736 254.804291,127.435295 256.300385,131.200043 
	C258.826080,129.475540 261.147736,127.890358 263.469391,126.305176 
	C263.858490,126.743195 264.247559,127.181206 264.636658,127.619217 
	C263.559387,133.327682 256.538208,137.397400 259.846893,144.636429 
	C257.958344,145.000000 255.916672,145.000000 253.437500,145.000000 
z"/>
<path fill="#003070" opacity="1.000000" stroke="none" 
	d="
M234.437500,145.000000 
	C234.445877,140.611252 234.891754,136.222488 235.381012,131.406662 
	C232.899490,131.522232 231.338913,131.594894 229.691208,131.671631 
	C228.569733,128.875793 228.728470,126.996880 232.305145,127.012497 
	C235.804901,127.027779 239.338989,126.737953 242.787109,127.160484 
	C244.095917,127.320869 245.207001,129.094757 246.408218,130.133224 
	C246.089661,130.615479 245.771103,131.097717 245.452545,131.579971 
	C243.900955,131.500977 242.349350,131.421982 239.761398,131.290222 
	C240.182770,135.780243 240.575897,139.969330 240.984512,144.579208 
	C238.958328,145.000000 236.916672,145.000000 234.437500,145.000000 
z"/>
<path fill="#003070" opacity="1.000000" stroke="none" 
	d="
M136.437500,145.000000 
	C136.431808,139.324036 136.863617,133.648056 137.317902,127.676651 
	C142.240845,126.106216 142.948792,126.562141 142.993179,132.175430 
	C143.024521,136.137955 142.999741,140.100937 143.000000,144.531860 
	C140.958328,145.000000 138.916672,145.000000 136.437500,145.000000 
z"/>
<path fill="#003070" opacity="1.000000" stroke="none" 
	d="
M220.437500,145.000000 
	C220.388672,139.287735 220.777328,133.575470 221.196655,127.412697 
	C222.386169,127.412697 224.268494,127.412697 225.843231,127.412697 
	C226.125336,133.131653 226.399078,138.681274 226.836411,144.615448 
	C224.958328,145.000000 222.916672,145.000000 220.437500,145.000000 
z"/>
<path fill="#47704C" opacity="1.000000" stroke="none" 
	d="
M122.399994,145.000000 
	C121.560196,142.485779 121.120384,139.971573 120.680580,137.457352 
	C121.070160,137.301971 121.459740,137.146576 121.849319,136.991196 
	C123.206650,139.424515 124.563980,141.857849 125.960655,144.645599 
	C124.933327,145.000000 123.866661,145.000000 122.399994,145.000000 
z"/>
<path fill="#003070" opacity="1.000000" stroke="none" 
	d="
M126.993172,108.557953 
	C126.997437,100.375114 126.997437,92.644333 126.997437,84.078598 
	C132.872192,84.078598 139.818909,83.767319 146.684326,84.374718 
	C147.875183,84.480080 148.722305,88.470589 149.996948,91.253304 
	C144.185883,90.623878 139.848053,90.154022 135.154663,89.645660 
	C135.154663,92.614029 135.154663,95.006805 135.154663,98.220352 
	C138.747086,97.619293 142.387009,97.010284 146.506958,96.320961 
	C146.506958,99.064034 146.506958,101.712967 146.506958,104.396553 
	C143.736176,103.907639 141.184845,103.357300 138.605240,103.029076 
	C135.753983,102.666290 133.898499,103.289520 133.910370,106.935791 
	C133.921738,110.433479 135.489075,111.391838 138.483307,110.977486 
	C141.992233,110.491920 145.479965,109.852974 149.186356,109.246269 
	C151.381287,114.421455 150.488144,115.975624 144.485672,115.993500 
	C136.324249,116.017815 128.161331,115.914253 120.001900,116.043877 
	C116.963165,116.092148 114.691322,115.573975 112.945793,112.646996 
	C111.041176,109.453262 108.435730,106.677452 105.399475,102.772484 
	C105.399475,107.814293 105.399475,111.650085 105.399475,115.897697 
	C102.524590,115.897697 99.524475,115.897697 96.562309,115.897697 
	C96.562309,105.529366 96.562309,95.173630 96.562309,83.443352 
	C102.590759,84.239975 108.832840,84.156883 114.420616,86.027878 
	C121.776138,88.490799 121.659767,95.104362 114.460419,101.935867 
	C117.737968,106.188568 121.042473,110.476234 125.136703,115.788597 
	C125.938995,112.852402 126.463951,110.931213 126.993172,108.557953 
M111.725861,94.262756 
	C111.747711,90.984528 109.747192,89.602921 106.952911,90.316643 
	C106.017464,90.555573 104.820351,93.381317 105.205009,94.538651 
	C106.698410,99.031960 109.139214,96.980331 111.725861,94.262756 
z"/>
<path fill="#003070" opacity="1.000000" stroke="none" 
	d="
M123.792168,60.316872 
	C125.277382,56.584476 126.912170,52.664715 127.803963,48.582634 
	C129.138367,42.474506 128.916153,42.425961 135.844452,43.659924 
	C134.742645,47.413166 133.618271,51.115543 132.571396,54.839714 
	C131.048492,60.257282 129.525772,65.676140 128.114990,71.123451 
	C127.449890,73.691551 126.158432,75.723137 123.362648,74.853287 
	C121.679535,74.329628 119.640091,72.769104 119.085442,71.204834 
	C117.338440,66.277740 116.217377,61.128712 114.608299,55.152996 
	C112.912971,61.241608 111.685898,66.397896 109.959686,71.381294 
	C109.456352,72.834358 107.534996,74.738525 106.253166,74.746460 
	C104.565720,74.756897 101.788139,73.450813 101.348610,72.101768 
	C98.335251,62.852665 95.810875,53.444256 92.929680,43.391731 
	C95.601761,43.255348 97.887360,42.787247 100.018417,43.172970 
	C101.143326,43.376575 102.594559,44.928551 102.872864,46.112766 
	C104.077972,51.240593 104.904800,56.457314 106.905304,61.725910 
	C108.409538,55.738922 109.913773,49.751930 111.503029,43.426571 
	C118.481155,42.109726 118.831619,42.333805 120.719803,49.543743 
	C121.640465,53.059246 122.643509,56.553173 123.792168,60.316872 
z"/>
<path fill="#003070" opacity="1.000000" stroke="none" 
	d="
M205.520889,84.049454 
	C209.920868,84.277519 213.880936,84.555008 217.843643,84.786964 
	C222.603073,85.065559 226.929108,86.882385 227.176651,91.906235 
	C227.343826,95.299171 224.999344,98.815865 223.337692,103.526329 
	C225.505630,106.420052 228.818619,110.842148 232.721893,116.052170 
	C227.767670,115.804993 223.600830,117.247429 220.616470,113.033249 
	C218.273132,109.724236 215.757965,106.536903 213.319122,103.295517 
	C212.870987,103.426193 212.422836,103.556877 211.974686,103.687553 
	C212.168716,107.690819 212.362732,111.694092 212.571381,115.999168 
	C209.815506,115.999168 206.910416,115.999168 203.991531,115.999168 
	C203.991531,107.509918 203.794418,98.942635 204.136322,90.396919 
	C204.217285,88.373711 200.976212,85.536263 205.520889,84.049454 
M212.016907,93.503349 
	C211.789078,96.054207 212.985840,97.494392 215.471802,96.855461 
	C216.765427,96.522987 218.522903,95.225540 218.713852,94.127922 
	C218.917068,92.959801 217.800751,90.744461 216.753601,90.357178 
	C214.921021,89.679420 212.249359,89.178192 212.016907,93.503349 
z"/>
<path fill="#003070" opacity="1.000000" stroke="none" 
	d="
M264.804901,65.226883 
	C267.142517,68.143440 269.250244,70.790932 271.790344,73.981544 
	C266.291443,75.692032 262.548920,75.624680 259.662689,71.145523 
	C257.453461,67.716972 254.804413,64.571808 252.350998,61.300594 
	C251.866730,61.435146 251.382446,61.569695 250.898163,61.704247 
	C251.353531,65.945465 251.808914,70.186684 252.284836,74.619278 
	C249.043701,74.619278 245.832260,74.619278 243.223602,74.619278 
	C243.223602,64.108696 243.223602,53.978573 243.223602,42.757946 
	C248.481537,43.119049 254.455246,42.911175 260.091064,44.191120 
	C262.699341,44.783485 265.722504,47.910091 266.623138,50.548168 
	C267.729980,53.790245 266.244690,57.428131 262.550873,59.282635 
	C262.146790,59.485500 261.896515,59.994678 261.503815,60.442917 
	C262.542755,61.970253 263.558868,63.464031 264.804901,65.226883 
M258.383942,50.942387 
	C256.429230,50.115463 254.499359,49.209335 252.483505,48.577534 
	C252.269211,48.510368 251.060654,50.121658 251.164871,50.828789 
	C251.417953,52.545914 251.848297,55.386559 252.785538,55.640553 
	C255.757568,56.445969 258.205414,55.166100 258.383942,50.942387 
z"/>
<path fill="#003070" opacity="1.000000" stroke="none" 
	d="
M161.045670,67.575287 
	C162.731567,74.691582 162.516449,74.984161 155.890244,74.997437 
	C150.109436,75.009018 144.328583,74.999855 138.631241,74.999855 
	C138.631241,64.198883 138.631241,54.131355 138.631241,43.104389 
	C145.598297,43.104389 152.825989,42.864811 159.998367,43.386208 
	C160.972229,43.457005 161.669067,47.338566 162.639221,49.827816 
	C157.741852,49.492012 154.211105,49.252213 150.680725,49.007046 
	C148.277039,48.840126 147.005997,49.651749 146.960312,52.364017 
	C146.910706,55.309330 148.252823,56.227486 150.904495,55.995945 
	C153.344162,55.782909 155.785583,55.589893 158.614822,55.355923 
	C158.614822,57.764351 158.614822,59.985256 158.614822,62.009846 
	C155.778229,62.009846 153.170319,62.089771 150.569626,61.986977 
	C148.055588,61.887608 146.961685,62.861187 146.968872,65.473755 
	C146.975937,68.034386 147.969040,69.286736 150.517334,68.967598 
	C153.910568,68.542633 157.285919,67.974930 161.045670,67.575287 
z"/>
<path fill="#003070" opacity="1.000000" stroke="none" 
	d="
M176.900558,88.564468 
	C175.500443,85.044907 176.610947,83.889465 179.840820,83.973564 
	C184.491028,84.094650 189.146896,83.983238 193.800186,84.005013 
	C200.107162,84.034523 200.841293,85.047173 199.340958,91.026848 
	C195.538040,90.688538 191.812500,90.295753 188.077484,90.043053 
	C184.720978,89.815948 185.098709,92.281113 184.990921,94.456947 
	C184.865692,96.985153 185.906998,98.313721 188.474808,97.957932 
	C191.063721,97.599228 193.621597,97.016663 196.600922,96.455338 
	C196.600922,98.966278 196.600922,101.351532 196.600922,103.921448 
	C194.261124,103.617744 191.895905,103.275711 189.522003,103.011505 
	C186.581528,102.684250 184.909027,103.455009 184.910660,107.004135 
	C184.912292,110.562820 186.619354,111.370598 189.534927,110.974533 
	C193.035934,110.498962 196.512955,109.846924 200.195053,109.239159 
	C202.346130,114.485519 201.484009,115.970901 195.485580,115.994133 
	C189.215881,116.018417 182.946014,115.999557 176.950531,115.999557 
	C176.950531,106.550049 176.950531,97.778885 176.900558,88.564468 
z"/>
<path fill="#003070" opacity="1.000000" stroke="none" 
	d="
M231.612885,55.966076 
	C233.453506,55.728184 234.859299,55.508987 236.656891,55.228695 
	C236.656891,57.880741 236.656891,60.102932 236.656891,62.472450 
	C233.252625,62.312954 230.132507,61.849876 227.101929,62.188400 
	C225.967621,62.315105 224.253464,64.300407 224.241638,65.453049 
	C224.229706,66.617073 225.952957,68.753471 226.997406,68.804688 
	C231.021027,69.001968 235.077225,68.534935 239.317459,68.304916 
	C241.101105,74.048767 240.499115,74.977463 234.230713,74.995865 
	C228.105011,75.013847 221.979218,74.999779 216.220367,74.999779 
	C216.220367,64.237358 216.220367,53.968216 216.220367,43.052570 
	C222.569916,43.052570 229.522476,42.734299 236.395584,43.330959 
	C237.712280,43.445263 238.716354,47.160694 240.247192,49.899025 
	C235.340576,49.511520 232.112869,49.202183 228.878006,49.018402 
	C226.302658,48.872089 223.871674,48.730602 223.947525,52.654968 
	C224.018417,56.323238 226.330795,55.998390 228.683594,55.997585 
	C229.515076,55.997303 230.346542,55.989265 231.612885,55.966076 
z"/>
<path fill="#003070" opacity="1.000000" stroke="none" 
	d="
M275.937012,90.001450 
	C270.851807,89.317650 270.614441,92.269447 271.089569,95.541496 
	C271.628906,99.256157 274.414612,97.912369 276.536438,97.624748 
	C278.471252,97.362480 280.361328,96.770035 282.668121,96.230209 
	C282.668121,99.202621 282.668121,101.774216 282.668121,104.522018 
	C280.146484,103.974243 277.945129,103.343697 275.699646,103.047188 
	C272.951660,102.684341 270.892914,103.088814 270.913910,106.833450 
	C270.932831,110.209473 272.268219,111.454483 275.375153,110.971581 
	C278.700226,110.454803 281.993988,109.736435 285.353699,109.096092 
	C286.934235,115.329399 286.488098,115.980156 280.097870,115.996651 
	C274.309814,116.011589 268.521729,115.999809 262.574280,115.999809 
	C262.574280,105.207214 262.574280,95.022072 262.574280,84.081802 
	C269.222961,84.081802 276.014648,83.764870 282.720764,84.380089 
	C283.898773,84.488152 284.718353,88.502960 286.098633,91.600380 
	C281.768829,90.887894 279.073883,90.444427 275.937012,90.001450 
z"/>
<path fill="#003070" opacity="1.000000" stroke="none" 
	d="
M235.908142,102.122658 
	C233.650757,96.234482 231.485657,90.727417 228.905273,84.164108 
	C232.265915,84.164108 235.275604,84.011391 238.246170,84.284454 
	C238.891479,84.343758 239.662766,85.857803 239.922623,86.823799 
	C241.541748,92.842209 243.031891,98.895317 244.564789,104.936928 
	C244.999603,104.935455 245.434418,104.933975 245.869232,104.932503 
	C248.190399,98.273148 250.511566,91.613792 253.040619,84.357979 
	C254.533585,84.357979 256.931213,84.357979 260.146484,84.357979 
	C258.396210,89.019775 256.839417,93.266602 255.208313,97.484703 
	C253.237473,102.581429 251.421249,107.758080 249.065689,112.673759 
	C248.351013,114.165207 246.071930,115.751068 244.507095,115.753395 
	C242.945755,115.755714 240.746445,114.166351 239.949753,112.674957 
	C238.248459,109.490143 237.273148,105.917519 235.908142,102.122658 
z"/>
<path fill="#003070" opacity="1.000000" stroke="none" 
	d="
M166.083023,47.496201 
	C169.993637,43.430626 174.049973,41.127460 179.616516,42.697193 
	C185.483078,44.351532 185.880157,44.875183 184.168732,51.661804 
	C182.168472,50.502670 180.322922,48.767330 178.253998,48.438805 
	C176.507217,48.161427 174.501328,49.515774 172.610123,50.147911 
	C173.532761,51.664997 174.132431,53.604183 175.446503,54.609669 
	C178.033432,56.589073 181.552185,57.548588 183.706390,59.847473 
	C186.667328,63.007275 187.306671,67.690422 183.891190,70.614502 
	C180.892975,73.181335 176.439163,75.605667 172.729385,75.463005 
	C164.725159,75.155197 163.275314,72.635094 164.635056,65.428123 
	C167.203690,66.835655 169.580704,68.720512 172.259750,69.381859 
	C173.799576,69.761963 175.828781,68.159546 177.637695,67.449570 
	C176.724991,66.115662 175.963760,64.632500 174.847336,63.499279 
	C174.078003,62.718376 172.808945,62.437408 171.776733,61.906719 
	C165.075012,58.461147 163.747787,55.305332 166.083023,47.496201 
z"/>
<path fill="#003070" opacity="1.000000" stroke="none" 
	d="
M156.395752,86.161095 
	C159.050598,85.272575 161.390442,84.211098 163.780319,84.082947 
	C171.085205,83.691246 172.220734,85.043983 171.820953,92.474892 
	C169.137634,91.663307 166.459991,90.571770 163.681488,90.158867 
	C162.645111,90.004852 160.703583,91.232086 160.407867,92.204475 
	C160.142639,93.076622 161.324966,94.774399 162.308807,95.548805 
	C163.712891,96.654007 165.473221,97.361809 167.161331,98.040482 
	C171.914383,99.951347 173.401932,103.579880 172.998291,108.404602 
	C172.598862,113.179268 169.606628,115.316216 165.361298,116.314987 
	C164.560043,116.503494 163.774338,116.904587 162.973755,116.926521 
	C155.907852,117.120117 150.508560,116.199364 152.079453,106.064240 
	C153.567184,107.319977 154.571075,108.584991 155.879242,109.172249 
	C157.776245,110.023849 159.884064,110.762924 161.919647,110.811699 
	C163.096680,110.839905 164.911804,109.641106 165.304504,108.575989 
	C165.593842,107.791260 164.265182,106.060226 163.259613,105.236572 
	C162.007767,104.211174 160.339798,103.698746 158.863312,102.941811 
	C150.701233,98.757401 149.744278,93.013710 156.395752,86.161095 
z"/>
<path fill="#003070" opacity="1.000000" stroke="none" 
	d="
M209.411758,49.098808 
	C205.073898,48.406055 203.759140,50.047390 203.923676,53.998047 
	C204.204269,60.735893 204.000992,67.493889 204.000992,74.623665 
	C201.561356,74.623665 198.676086,74.623665 195.635071,74.623665 
	C195.635071,66.248581 195.635071,58.070881 195.635071,48.977329 
	C192.465164,49.338867 189.529297,49.673714 186.600174,50.007790 
	C185.164291,43.508598 185.512543,43.018810 191.979675,43.002842 
	C197.290665,42.989727 202.601715,42.990902 207.912720,43.002502 
	C214.504562,43.016895 214.721832,43.312073 213.364929,50.615952 
	C212.141464,50.109932 210.979172,49.629211 209.411758,49.098808 
z"/>
<path fill="#EEF1F6" opacity="1.000000" stroke="none" 
	d="
M28.404957,38.600029 
	C26.912947,35.890907 25.420938,33.181786 23.928930,30.472662 
	C24.274942,30.112810 24.620953,29.752958 24.966965,29.393106 
	C27.449467,31.983814 29.931971,34.574524 33.337143,38.128117 
	C32.569427,32.201244 31.921558,27.199583 31.273689,22.197924 
	C31.731804,22.044525 32.189919,21.891129 32.648033,21.737730 
	C34.128677,26.695011 35.609325,31.652290 37.416172,37.701714 
	C38.873512,32.786774 40.012325,28.946079 41.151134,25.105385 
	C41.497299,25.165396 41.843460,25.225409 42.189621,25.285421 
	C42.001736,29.104418 41.813850,32.923416 41.565514,37.971127 
	C44.865665,34.224262 47.645767,31.067841 50.425873,27.911419 
	C50.869144,28.179438 51.312416,28.447458 51.755688,28.715477 
	C49.673412,32.398083 47.591141,36.080688 45.065544,40.547340 
	C48.931580,38.743443 52.225822,37.206341 55.520065,35.669243 
	C55.778416,36.044514 56.036770,36.419781 56.295124,36.795052 
	C53.603161,39.081768 50.911201,41.368488 47.609337,44.173290 
	C52.299789,44.173290 56.345020,44.173290 60.390247,44.173290 
	C60.422546,44.380333 60.454845,44.587376 60.487144,44.794418 
	C57.701317,45.617588 54.915489,46.440758 51.482731,47.455086 
	C54.430756,48.981979 56.923450,50.273041 60.104404,51.920578 
	C44.052902,51.920578 29.151798,51.920578 12.927832,51.920578 
	C17.040968,50.299900 19.967617,49.146729 23.763269,47.651150 
	C20.024151,46.479233 17.187254,45.590092 14.350357,44.700951 
	C14.378302,44.491932 14.406245,44.282909 14.434189,44.073891 
	C18.151545,44.073891 21.868902,44.073891 27.188890,44.073891 
	C22.748793,40.625458 19.470207,38.079121 16.191620,35.532784 
	C16.358356,35.203587 16.525091,34.874390 16.691826,34.545189 
	C20.063053,36.169628 23.434280,37.794064 27.398632,39.721363 
	C28.129490,39.549492 28.267223,39.074760 28.404957,38.600029 
z"/>
<path fill="#47704C" opacity="1.000000" stroke="none" 
	d="
M139.631744,16.199837 
	C140.540573,22.087503 136.705582,17.087839 135.186874,18.200939 
	C135.876480,16.126518 136.566071,14.052096 137.549210,11.094641 
	C138.413681,13.262671 138.939941,14.582460 139.631744,16.199837 
z"/>
<path fill="#47704C" opacity="1.000000" stroke="none" 
	d="
M111.545021,94.604080 
	C109.139214,96.980331 106.698410,99.031960 105.205009,94.538651 
	C104.820351,93.381317 106.017464,90.555573 106.952911,90.316643 
	C109.747192,89.602921 111.747711,90.984528 111.545021,94.604080 
z"/>
<path fill="#47704C" opacity="1.000000" stroke="none" 
	d="
M212.026016,93.084541 
	C212.249359,89.178192 214.921021,89.679420 216.753601,90.357178 
	C217.800751,90.744461 218.917068,92.959801 218.713852,94.127922 
	C218.522903,95.225540 216.765427,96.522987 215.471802,96.855461 
	C212.985840,97.494392 211.789078,96.054207 212.026016,93.084541 
z"/>
<path fill="#47704C" opacity="1.000000" stroke="none" 
	d="
M258.529541,51.285202 
	C258.205414,55.166100 255.757568,56.445969 252.785538,55.640553 
	C251.848297,55.386559 251.417953,52.545914 251.164871,50.828789 
	C251.060654,50.121658 252.269211,48.510368 252.483505,48.577534 
	C254.499359,49.209335 256.429230,50.115463 258.529541,51.285202 
z"/>
<path fill="#033272" opacity="1.000000" stroke="none" 
	d="
M28.167549,38.859512 
	C28.267223,39.074760 28.129490,39.549492 27.734903,39.841049 
	C27.628750,39.478249 27.779448,39.298622 28.167549,38.859512 
z"/>
</svg>