<svg version="1.1" id="Layer_1" xmlns="http://www.w3.org/2000/svg" xmlns:xlink="http://www.w3.org/1999/xlink" x="0px" y="0px"
	 width="100%" viewBox="0 0 73 73" enable-background="new 0 0 73 73" xml:space="preserve">
<path fill="#053370" opacity="1.000000" stroke="none" 
	d="
M1.000000,73.000000 
	C1.000000,49.979103 1.000000,26.958210 1.189792,3.343800 
	C1.620426,2.562015 1.820693,2.337545 2.449723,2.052869 
	C26.227348,2.041709 49.535637,2.054558 72.909500,2.527709 
	C72.967484,26.285917 72.959885,49.583824 72.489029,72.930672 
	C48.350510,72.986412 24.675255,72.993210 1.000000,73.000000 
M41.990128,27.102795 
	C41.857609,26.840376 41.754990,26.554165 41.575756,26.328917 
	C41.515995,26.253813 41.138065,26.285460 41.111332,26.351538 
	C39.865036,29.432499 38.641499,32.522667 37.030926,36.580261 
	C35.371349,31.413502 33.993355,27.123405 32.615364,22.833311 
	C32.246620,22.920757 31.877880,23.008204 31.509140,23.095650 
	C31.987553,27.884991 32.465965,32.674332 33.008938,38.109943 
	C30.430590,35.843037 28.554722,34.193756 26.678856,32.544476 
	C26.446980,32.797489 26.215103,33.050503 25.983227,33.303520 
	C26.704592,35.429016 27.425959,37.554512 28.462942,40.609974 
	C24.757753,38.938686 22.198248,37.784176 19.638742,36.629665 
	C19.460865,36.991161 19.282988,37.352661 19.105112,37.714157 
	C21.338701,39.571228 23.572290,41.428295 25.805882,43.285366 
	C25.614767,43.629448 25.423653,43.973530 25.232538,44.317612 
	C21.671032,44.317612 18.109524,44.317612 14.548017,44.317612 
	C14.522586,44.639217 14.497155,44.960827 14.471725,45.282433 
	C17.045933,46.083252 19.620140,46.884075 22.855804,47.890671 
	C19.731510,49.274426 17.445545,50.286880 15.159580,51.299339 
	C15.240804,51.498501 15.322027,51.697659 15.403251,51.896820 
	C29.906191,51.896820 44.409130,51.896820 60.323448,51.896820 
	C56.834827,50.240601 54.229774,49.003857 51.246628,47.587612 
	C54.581795,46.492500 57.456787,45.548489 60.331783,44.604477 
	C60.254230,44.383305 60.176678,44.162136 60.099129,43.940964 
	C56.194405,44.146626 52.289677,44.352287 48.384953,44.557953 
	C48.321030,44.110954 48.257107,43.663960 48.193184,43.216961 
	C50.387165,41.283531 52.581142,39.350098 54.775124,37.416668 
	C54.589863,37.119553 54.404598,36.822437 54.219337,36.525322 
	C51.464314,37.843304 48.709290,39.161285 44.666172,41.095478 
	C46.487591,37.237057 47.869511,34.309647 49.251431,31.382238 
	C48.901058,31.125751 48.550690,30.869265 48.200317,30.612778 
	C46.168682,32.841831 44.137043,35.070889 42.105404,37.299942 
	C41.748886,37.119225 41.392368,36.938507 41.035847,36.757790 
	C41.360237,33.818298 41.684624,30.878807 41.990128,27.102795 
z"/>
<path fill="#91A6BF" opacity="1.000000" stroke="none" 
	d="
M72.952286,72.881729 
	C72.959885,49.583824 72.967484,26.285917 72.953888,2.261638 
	C72.955139,1.356843 72.977570,1.178422 73.000000,1.000000 
	C73.333328,2.333334 73.953827,3.665926 73.957268,5.000111 
	C74.016663,27.999956 74.000000,51.000000 73.488907,73.720398 
	C72.969307,73.254440 72.960793,73.068085 72.952286,72.881729 
z"/>
<path fill="#2F568A" opacity="1.000000" stroke="none" 
	d="
M72.531342,1.000000 
	C72.977570,1.178422 72.955139,1.356843 72.888321,1.801336 
	C49.535637,2.054558 26.227348,2.041709 2.205163,2.028517 
	C1.491266,2.028174 1.000000,2.000000 1.000000,2.000000 
	C2.323280,1.666667 3.645793,1.046293 4.969955,1.042755 
	C27.334076,0.983005 49.698402,1.000000 72.531342,1.000000 
z"/>
<path fill="#8CA1BC" opacity="1.000000" stroke="none" 
	d="
M72.489029,72.930672 
	C72.960793,73.068085 72.969307,73.254440 72.988907,73.720398 
	C49.000000,74.000000 25.000000,74.000000 1.000000,73.500000 
	C24.675255,72.993210 48.350510,72.986412 72.489029,72.930672 
z"/>
<path fill="#063574" opacity="1.000000" stroke="none" 
	d="
M1.000000,2.250000 
	C1.000000,2.000000 1.491266,2.028174 1.735825,2.052526 
	C1.820693,2.337545 1.620426,2.562015 1.189792,2.875143 
	C1.000000,3.000000 1.000000,2.500000 1.000000,2.250000 
z"/>
<path fill="#F3FAFC" opacity="1.000000" stroke="none" 
	d="
M41.999569,27.521055 
	C41.684624,30.878807 41.360237,33.818298 41.035847,36.757790 
	C41.392368,36.938507 41.748886,37.119225 42.105404,37.299942 
	C44.137043,35.070889 46.168682,32.841831 48.200317,30.612778 
	C48.550690,30.869265 48.901058,31.125751 49.251431,31.382238 
	C47.869511,34.309647 46.487591,37.237057 44.666172,41.095478 
	C48.709290,39.161285 51.464314,37.843304 54.219337,36.525322 
	C54.404598,36.822437 54.589863,37.119553 54.775124,37.416668 
	C52.581142,39.350098 50.387165,41.283531 48.193184,43.216961 
	C48.257107,43.663960 48.321030,44.110954 48.384953,44.557953 
	C52.289677,44.352287 56.194405,44.146626 60.099129,43.940964 
	C60.176678,44.162136 60.254230,44.383305 60.331783,44.604477 
	C57.456787,45.548489 54.581795,46.492500 51.246628,47.587612 
	C54.229774,49.003857 56.834827,50.240601 60.323448,51.896820 
	C44.409130,51.896820 29.906191,51.896820 15.403251,51.896820 
	C15.322027,51.697659 15.240804,51.498501 15.159580,51.299339 
	C17.445545,50.286880 19.731510,49.274426 22.855804,47.890671 
	C19.620140,46.884075 17.045933,46.083252 14.471725,45.282433 
	C14.497155,44.960827 14.522586,44.639217 14.548017,44.317612 
	C18.109524,44.317612 21.671032,44.317612 25.232538,44.317612 
	C25.423653,43.973530 25.614767,43.629448 25.805882,43.285366 
	C23.572290,41.428295 21.338701,39.571228 19.105112,37.714157 
	C19.282988,37.352661 19.460865,36.991161 19.638742,36.629665 
	C22.198248,37.784176 24.757753,38.938686 28.462942,40.609974 
	C27.425959,37.554512 26.704592,35.429016 25.983227,33.303520 
	C26.215103,33.050503 26.446980,32.797489 26.678856,32.544476 
	C28.554722,34.193756 30.430590,35.843037 33.008938,38.109943 
	C32.465965,32.674332 31.987553,27.884991 31.509140,23.095650 
	C31.877880,23.008204 32.246620,22.920757 32.615364,22.833311 
	C33.993355,27.123405 35.371349,31.413502 37.030926,36.580261 
	C38.641499,32.522667 39.865036,29.432499 41.111332,26.351538 
	C41.138065,26.285460 41.515995,26.253813 41.575756,26.328917 
	C41.754990,26.554165 41.857609,26.840376 41.999569,27.521055 
z"/>
</svg>