<svg version="1.1" id="Layer_1" xmlns="http://www.w3.org/2000/svg" xmlns:xlink="http://www.w3.org/1999/xlink" x="0px" y="0px"
	 width="100%" viewBox="0 0 560 142" enable-background="new 0 0 560 142" xml:space="preserve">
<path fill="#FDFEFE" opacity="1.000000" stroke="none" 
	d="
M409.000000,143.000000 
	C272.666656,143.000000 136.833328,143.000000 1.000000,143.000000 
	C1.000000,95.666664 1.000000,48.333332 1.000000,1.000000 
	C187.666672,1.000000 374.333344,1.000000 561.000000,1.000000 
	C561.000000,48.333332 561.000000,95.666664 561.000000,143.000000 
	C510.500000,143.000000 460.000000,143.000000 409.000000,143.000000 
M466.722626,47.218082 
	C466.764954,58.720993 466.807281,70.223907 466.451019,82.377663 
	C465.193756,89.084145 463.057861,94.982719 455.580872,97.362579 
	C445.783447,100.481033 432.757690,95.156502 432.435699,86.532814 
	C431.844696,70.702621 432.662018,54.819855 433.251587,38.441669 
	C433.611481,37.620586 433.971344,36.799503 434.439056,35.732300 
	C427.287903,35.732300 420.617737,35.732300 413.365662,35.732300 
	C414.072144,36.790913 414.484589,37.408962 414.979492,38.853363 
	C415.560394,43.275208 416.496674,47.684780 416.649963,52.121395 
	C416.993622,62.069489 416.948090,72.031029 416.919159,82.811729 
	C417.053925,96.306618 429.316193,108.166245 441.450867,109.774200 
	C460.449951,112.291763 474.729065,103.041504 477.291046,85.236191 
	C477.471802,72.482407 477.652557,59.728626 478.018890,46.328533 
	C477.993713,45.883831 477.968536,45.439125 478.192780,44.266701 
	C478.469696,42.985977 478.517334,41.596268 479.064972,40.444221 
	C480.987701,36.399227 479.522247,35.161327 475.423218,35.414539 
	C472.002594,35.625847 468.558502,35.457874 464.636597,35.457874 
	C465.062317,37.186573 465.433838,38.695187 465.853363,40.112309 
	C465.853363,40.112309 465.750336,40.120052 465.763702,40.916950 
	C466.126099,42.721214 466.488464,44.525482 466.722626,47.218082 
M397.414429,106.560402 
	C397.414429,106.560402 397.573792,106.692665 397.891510,107.369537 
	C404.093781,108.029938 410.296051,108.690338 416.498322,109.350739 
	C416.694672,108.855598 416.891052,108.360458 417.087402,107.865318 
	C415.501007,106.074844 413.914581,104.284370 412.050018,101.897537 
	C404.712097,92.569084 397.374146,83.240631 390.220978,74.147095 
	C393.527008,72.043015 396.603241,70.291718 399.453033,68.227730 
	C405.096069,64.140694 407.406342,51.142540 402.972382,46.073750 
	C398.034027,40.428391 392.207275,35.786049 383.173950,35.835823 
	C373.181793,35.747253 363.189606,35.638290 353.197418,35.634754 
	C352.733307,35.634590 352.268860,36.577381 351.993591,37.846851 
	C352.664642,41.553722 353.806702,45.246929 353.914734,48.970139 
	C354.193085,58.561893 354.148773,68.169342 353.977570,77.765953 
	C353.821564,86.512184 353.329529,95.252426 352.552551,104.587448 
	C352.014496,105.839592 351.476440,107.091728 350.853363,108.541763 
	C358.112305,108.541763 364.802979,108.541763 372.106812,108.541763 
	C371.270660,107.073021 370.672272,106.021919 369.982635,104.134087 
	C369.432404,94.777214 368.882202,85.420341 368.357391,76.495827 
	C372.911835,74.947075 374.931366,76.608536 376.914398,79.308090 
	C383.107513,87.739029 389.543030,95.991905 395.949432,104.831757 
	C396.398529,105.351173 396.847626,105.870598 397.414429,106.560402 
M153.733276,36.070957 
	C153.270706,35.917595 152.808289,35.630611 152.345520,35.630047 
	C129.484009,35.602051 106.622414,35.583622 83.761078,35.650734 
	C82.900726,35.653259 82.042892,36.511856 81.035759,37.901989 
	C81.084366,60.942188 81.132973,83.982384 81.176575,107.810654 
	C81.592567,108.027107 82.008224,108.432281 82.424599,108.433014 
	C105.576797,108.473778 128.729095,108.492798 151.881149,108.429688 
	C152.538162,108.427895 153.192688,107.515297 154.008301,106.097580 
	C153.954819,83.054764 153.901352,60.011951 153.733276,36.070957 
M232.339951,36.806465 
	C230.916550,36.345554 229.514359,35.800232 228.066528,35.436596 
	C210.635254,31.058586 189.677597,36.539135 180.940353,54.141090 
	C171.897568,72.358574 175.728561,91.223083 193.202652,103.753418 
	C205.030975,112.235298 224.690567,112.084152 236.292908,104.165642 
	C242.817535,99.712639 242.938675,99.266441 239.647461,92.197357 
	C236.476929,93.643288 233.427216,95.496498 230.118362,96.457970 
	C219.435913,99.562019 209.351791,98.963799 200.468033,91.151688 
	C190.024918,81.968330 191.025421,62.977062 197.052170,54.749199 
	C199.194901,51.823925 201.899658,48.866879 205.026184,47.186256 
	C215.730957,41.432064 225.852463,43.000729 235.317154,51.643654 
	C236.036713,52.397816 236.756271,53.151978 237.947418,54.400398 
	C237.947418,48.900555 237.947418,44.180073 237.947418,39.221992 
	C236.315796,38.551491 234.657547,37.870045 232.339951,36.806465 
M265.371216,38.332367 
	C265.126190,37.395748 264.899445,35.647194 264.633514,35.641212 
	C257.923401,35.490330 251.209183,35.522511 243.954315,35.522511 
	C245.564499,38.247826 246.729431,40.219501 247.917282,42.955715 
	C254.091553,64.689720 260.265808,86.423721 266.485443,108.317444 
	C271.198303,108.317444 275.794434,108.317444 280.511505,108.317444 
	C285.349152,90.518738 290.122864,72.955330 295.266479,54.030895 
	C300.263031,73.026588 304.875366,90.561455 309.621429,108.604805 
	C312.268646,108.604805 314.938751,108.314987 317.520599,108.668938 
	C322.022064,109.286064 323.754395,107.415314 324.960663,103.111427 
	C330.967163,81.681046 337.394470,60.368774 343.507721,38.967522 
	C343.769226,38.052067 342.457886,35.707661 341.764130,35.658646 
	C337.392426,35.349781 332.988129,35.502174 329.406555,35.502174 
	C330.099335,54.393215 322.017670,70.728928 318.636688,88.070702 
	C317.731293,86.985428 317.308960,85.943718 317.022064,84.865952 
	C313.044067,69.923119 309.142181,54.959526 305.040497,40.050842 
	C304.580719,38.379604 303.135986,35.834000 301.940826,35.711224 
	C297.097717,35.213711 292.173615,35.504574 288.448639,35.504574 
	C287.554535,41.405800 287.162506,46.387363 286.001190,51.182617 
	C283.183441,62.817459 280.015625,74.367683 276.961853,85.944885 
	C276.711975,86.892212 276.256439,87.785286 275.632416,89.377136 
	C272.372955,76.933228 269.115784,65.407997 266.416687,53.753517 
	C265.309357,48.972095 265.406158,43.911800 265.371216,38.332367 
z"/>
<path fill="#033070" opacity="1.000000" stroke="none" 
	d="
M81.181572,107.022583 
	C81.132973,83.982384 81.084366,60.942188 81.566650,37.444366 
	C105.395721,37.014149 128.693893,37.041553 151.994110,37.533287 
	C151.994461,60.975250 151.992767,83.952888 151.523438,106.951950 
	C127.764404,106.989784 104.472984,107.006187 81.181572,107.022583 
M139.021988,85.157967 
	C136.534668,84.294830 134.047333,83.431686 130.557465,82.220657 
	C135.600555,80.863266 139.556290,79.798553 143.512024,78.733841 
	C143.456680,78.385307 143.401337,78.036766 143.346008,77.688232 
	C138.315933,78.104477 133.285873,78.520721 127.024635,79.038849 
	C132.174316,75.023331 136.420242,71.712509 140.666183,68.401695 
	C140.616806,68.121582 140.567413,67.841469 140.518036,67.561356 
	C136.508942,69.198166 132.499863,70.834984 128.490784,72.471794 
	C128.151016,72.053909 127.811272,71.636024 127.471519,71.218132 
	C129.656769,67.333382 131.842026,63.448624 134.027267,59.563869 
	C133.702759,59.326031 133.378250,59.088196 133.053726,58.850361 
	C129.524536,63.316109 125.995354,67.781860 122.466171,72.247604 
	C122.191673,72.080124 121.917175,71.912643 121.642677,71.745163 
	C122.651436,64.602394 123.660194,57.459625 124.668953,50.316853 
	C121.012054,56.072636 121.799088,63.466854 116.626572,69.325912 
	C115.069817,63.639584 113.798790,58.996910 112.527756,54.354240 
	C112.150307,54.372822 111.772858,54.391403 111.395409,54.409988 
	C111.931038,59.905781 112.466667,65.401573 113.002296,70.897369 
	C112.614975,71.024452 112.227646,71.151535 111.840324,71.278618 
	C108.829575,67.448006 105.818825,63.617397 102.808075,59.786789 
	C102.424789,64.874573 108.347115,67.631874 106.256630,72.933395 
	C102.947830,71.388962 100.160904,70.088127 97.373978,68.787292 
	C97.106529,69.200287 96.839081,69.613281 96.571632,70.026276 
	C100.061005,72.782043 103.550385,75.537804 107.746605,78.851814 
	C101.490593,78.487350 96.316452,78.185905 91.142303,77.884468 
	C91.119301,78.349480 91.096291,78.814491 91.073288,79.279510 
	C95.279457,80.092201 99.485626,80.904892 105.040955,81.978264 
	C100.097717,83.769302 96.617737,85.030167 93.137764,86.291039 
	C94.928566,86.948792 96.647758,86.990631 98.364372,86.941940 
	C108.818779,86.645439 119.271217,86.213654 129.727448,86.088150 
	C132.855972,86.050606 135.992584,86.868935 139.136337,87.188454 
	C139.250778,87.200081 139.480499,86.077583 139.021988,85.157967 
z"/>
<path fill="#053271" opacity="1.000000" stroke="none" 
	d="
M264.955231,38.978363 
	C265.406158,43.911800 265.309357,48.972095 266.416687,53.753517 
	C269.115784,65.407997 272.372955,76.933228 275.632416,89.377136 
	C276.256439,87.785286 276.711975,86.892212 276.961853,85.944885 
	C280.015625,74.367683 283.183441,62.817459 286.001190,51.182617 
	C287.162506,46.387363 287.554535,41.405800 288.448639,35.504574 
	C292.173615,35.504574 297.097717,35.213711 301.940826,35.711224 
	C303.135986,35.834000 304.580719,38.379604 305.040497,40.050842 
	C309.142181,54.959526 313.044067,69.923119 317.022064,84.865952 
	C317.308960,85.943718 317.731293,86.985428 318.636688,88.070702 
	C322.017670,70.728928 330.099335,54.393215 329.406555,35.502174 
	C332.988129,35.502174 337.392426,35.349781 341.764130,35.658646 
	C342.457886,35.707661 343.769226,38.052067 343.507721,38.967522 
	C337.394470,60.368774 330.967163,81.681046 324.960663,103.111427 
	C323.754395,107.415314 322.022064,109.286064 317.520599,108.668938 
	C314.938751,108.314987 312.268646,108.604805 309.621429,108.604805 
	C304.875366,90.561455 300.263031,73.026588 295.266479,54.030895 
	C290.122864,72.955330 285.349152,90.518738 280.511505,108.317444 
	C275.794434,108.317444 271.198303,108.317444 266.485443,108.317444 
	C260.265808,86.423721 254.091553,64.689720 247.920715,42.176380 
	C247.823593,40.043182 247.723053,38.689320 247.598373,37.010578 
	C251.132294,37.010578 254.254944,36.757816 257.314606,37.088203 
	C259.899384,37.367302 262.411163,38.322433 264.955231,38.978363 
z"/>
<path fill="#053271" opacity="1.000000" stroke="none" 
	d="
M395.884583,104.313812 
	C389.543030,95.991905 383.107513,87.739029 376.914398,79.308090 
	C374.931366,76.608536 372.911835,74.947075 368.357391,76.495827 
	C368.882202,85.420341 369.432404,94.777214 369.738495,104.827354 
	C365.380493,106.055450 361.245544,106.467300 357.160156,107.168243 
	C354.425842,107.637398 353.531738,106.160912 352.985626,103.995308 
	C353.329529,95.252426 353.821564,86.512184 353.977570,77.765953 
	C354.148773,68.169342 354.193085,58.561893 353.914734,48.970139 
	C353.806702,45.246929 352.664642,41.553722 352.380432,37.455265 
	C360.264801,37.045307 367.763916,37.110264 375.259094,36.966660 
	C378.169647,36.910896 381.071167,36.384048 383.976807,36.071793 
	C392.207275,35.786049 398.034027,40.428391 402.972382,46.073750 
	C407.406342,51.142540 405.096069,64.140694 399.453033,68.227730 
	C396.603241,70.291718 393.527008,72.043015 390.220978,74.147095 
	C397.374146,83.240631 404.712097,92.569084 412.155090,102.570358 
	C412.607666,104.416824 412.955200,105.590469 413.281586,106.692665 
	C407.834656,106.692665 402.704224,106.692665 397.573792,106.692665 
	C397.573792,106.692665 397.414429,106.560402 397.434845,106.204132 
	C396.931702,105.336510 396.408142,104.825157 395.884583,104.313812 
M387.126892,47.301994 
	C381.242310,46.186195 375.357697,45.070400 368.796936,43.826393 
	C368.796936,51.727558 368.706787,58.172955 368.892578,64.610367 
	C368.920990,65.594833 370.169006,67.328552 370.946289,67.382996 
	C377.222015,67.822609 383.357880,66.726936 387.771881,61.998726 
	C391.876068,57.602428 390.550720,52.481373 387.126892,47.301994 
M356.002441,80.496506 
	C356.002441,69.768562 356.002441,59.040615 356.002441,48.312668 
	C355.766632,48.318428 355.530853,48.324192 355.295044,48.329952 
	C355.295044,64.177811 355.295044,80.025665 355.295044,95.873520 
	C355.530853,95.876076 355.766632,95.878624 356.002441,95.881180 
	C356.002441,91.085457 356.002441,86.289742 356.002441,80.496506 
z"/>
<path fill="#063171" opacity="1.000000" stroke="none" 
	d="
M234.992645,50.981548 
	C225.852463,43.000729 215.730957,41.432064 205.026184,47.186256 
	C201.899658,48.866879 199.194901,51.823925 197.052170,54.749199 
	C191.025421,62.977062 190.024918,81.968330 200.468033,91.151688 
	C209.351791,98.963799 219.435913,99.562019 230.118362,96.457970 
	C233.427216,95.496498 236.476929,93.643288 239.647461,92.197357 
	C242.938675,99.266441 242.817535,99.712639 236.292908,104.165642 
	C224.690567,112.084152 205.030975,112.235298 193.202652,103.753418 
	C175.728561,91.223083 171.897568,72.358574 180.940353,54.141090 
	C189.677597,36.539135 210.635254,31.058586 228.066528,35.436596 
	C229.514359,35.800232 230.916550,36.345554 232.746567,37.347244 
	C237.535080,41.723076 236.373627,46.336895 234.992645,50.981548 
z"/>
<path fill="#043171" opacity="1.000000" stroke="none" 
	d="
M432.892273,38.959003 
	C432.662018,54.819855 431.844696,70.702621 432.435699,86.532814 
	C432.757690,95.156502 445.783447,100.481033 455.580872,97.362579 
	C463.057861,94.982719 465.193756,89.084145 466.721924,82.389008 
	C467.134155,82.940239 467.275513,83.480118 467.416901,84.020004 
	C468.006348,71.189392 468.025208,58.466366 467.965942,45.743702 
	C467.961792,44.850231 467.380035,43.959450 467.038818,42.712727 
	C466.590637,41.612041 466.170471,40.866047 465.750336,40.120052 
	C465.750336,40.120052 465.853363,40.112309 465.904846,39.733932 
	C466.809265,38.595135 467.613373,37.255760 468.524017,37.178921 
	C471.719299,36.909302 474.951263,37.074299 477.491028,37.074299 
	C477.664154,40.105278 477.803772,42.549847 477.943390,44.994419 
	C477.968536,45.439125 477.993713,45.883831 477.615906,46.548748 
	C476.813049,47.459839 476.069092,48.148540 476.064697,48.841919 
	C475.993195,60.157696 475.989716,71.474220 476.057587,82.790047 
	C476.064026,83.862282 476.650085,84.931023 476.967041,86.001381 
	C474.729065,103.041504 460.449951,112.291763 441.450867,109.774200 
	C429.316193,108.166245 417.053925,96.306618 417.277435,82.098724 
	C417.760803,70.286919 418.047394,59.186157 417.913605,48.090466 
	C417.872955,44.717613 416.672668,41.358746 416.296631,37.698174 
	C419.336121,37.271744 422.111694,36.835537 424.820618,37.095020 
	C427.545685,37.356045 430.204468,38.309158 432.892273,38.959003 
M429.997040,79.794289 
	C430.013763,80.290840 430.014404,80.788788 430.057007,81.283096 
	C430.069855,81.432388 430.182465,81.584641 430.281403,81.710350 
	C430.334808,81.778259 430.455902,81.792938 430.621277,81.863602 
	C430.621277,69.299652 430.621277,56.769321 430.621277,44.238987 
	C430.412964,44.239105 430.204651,44.239223 429.996338,44.239342 
	C429.996338,55.808739 429.996338,67.378136 429.997040,79.794289 
z"/>
<path fill="#030C58" opacity="1.000000" stroke="none" 
	d="
M81.179077,107.416626 
	C104.472984,107.006187 127.764404,106.989784 151.832870,106.973167 
	C153.022751,106.991096 153.435562,107.009247 153.848389,107.027390 
	C153.192688,107.515297 152.538162,108.427895 151.881149,108.429688 
	C128.729095,108.492798 105.576797,108.473778 82.424599,108.433014 
	C82.008224,108.432281 81.592567,108.027107 81.179077,107.416626 
z"/>
<path fill="#042C6D" opacity="1.000000" stroke="none" 
	d="
M153.928345,106.562485 
	C153.435562,107.009247 153.022751,106.991096 152.300507,106.951736 
	C151.992767,83.952888 151.994461,60.975250 152.303253,37.511505 
	C153.022858,37.006641 153.435364,36.987888 153.847870,36.969135 
	C153.901352,60.011951 153.954819,83.054764 153.928345,106.562485 
z"/>
<path fill="#163472" opacity="1.000000" stroke="none" 
	d="
M477.129028,85.618790 
	C476.650085,84.931023 476.064026,83.862282 476.057587,82.790047 
	C475.989716,71.474220 475.993195,60.157696 476.064697,48.841919 
	C476.069092,48.148540 476.813049,47.459839 477.523102,46.871902 
	C477.652557,59.728626 477.471802,72.482407 477.129028,85.618790 
z"/>
<path fill="#010856" opacity="1.000000" stroke="none" 
	d="
M153.790573,36.520046 
	C153.435364,36.987888 153.022858,37.006641 152.301208,37.047173 
	C128.693893,37.041553 105.395721,37.014149 81.640717,36.979134 
	C82.042892,36.511856 82.900726,35.653259 83.761078,35.650734 
	C106.622414,35.583622 129.484009,35.602051 152.345520,35.630047 
	C152.808289,35.630611 153.270706,35.917595 153.790573,36.520046 
z"/>
<path fill="#040F5A" opacity="1.000000" stroke="none" 
	d="
M383.575378,35.953808 
	C381.071167,36.384048 378.169647,36.910896 375.259094,36.966660 
	C367.763916,37.110264 360.264801,37.045307 352.285889,37.072346 
	C352.268860,36.577381 352.733307,35.634590 353.197418,35.634754 
	C363.189606,35.638290 373.181793,35.747253 383.575378,35.953808 
z"/>
<path fill="#0F1A60" opacity="1.000000" stroke="none" 
	d="
M265.163208,38.655365 
	C262.411163,38.322433 259.899384,37.367302 257.314606,37.088203 
	C254.254944,36.757816 251.132294,37.010578 247.598373,37.010578 
	C247.723053,38.689320 247.823593,40.043182 247.909241,41.794113 
	C246.729431,40.219501 245.564499,38.247826 243.954315,35.522511 
	C251.209183,35.522511 257.923401,35.490330 264.633514,35.641212 
	C264.899445,35.647194 265.126190,37.395748 265.163208,38.655365 
z"/>
<path fill="#061A61" opacity="1.000000" stroke="none" 
	d="
M416.003540,37.993469 
	C416.672668,41.358746 417.872955,44.717613 417.913605,48.090466 
	C418.047394,59.186157 417.760803,70.286919 417.348389,81.686409 
	C416.948090,72.031029 416.993622,62.069489 416.649963,52.121395 
	C416.496674,47.684780 415.560394,43.275208 415.214905,38.431534 
	C415.634674,38.004299 415.819092,37.998886 416.003540,37.993469 
z"/>
<path fill="#35477F" opacity="1.000000" stroke="none" 
	d="
M352.769104,104.291382 
	C353.531738,106.160912 354.425842,107.637398 357.160156,107.168243 
	C361.245544,106.467300 365.380493,106.055450 369.784119,105.245728 
	C370.672272,106.021919 371.270660,107.073021 372.106812,108.541763 
	C364.802979,108.541763 358.112305,108.541763 350.853363,108.541763 
	C351.476440,107.091728 352.014496,105.839592 352.769104,104.291382 
z"/>
<path fill="#0E185F" opacity="1.000000" stroke="none" 
	d="
M416.296631,37.698174 
	C415.819092,37.998886 415.634674,38.004299 415.173676,38.018360 
	C414.484589,37.408962 414.072144,36.790913 413.365662,35.732300 
	C420.617737,35.732300 427.287903,35.732300 434.439056,35.732300 
	C433.971344,36.799503 433.611481,37.620586 433.071930,38.700336 
	C430.204468,38.309158 427.545685,37.356045 424.820618,37.095020 
	C422.111694,36.835537 419.336121,37.271744 416.296631,37.698174 
z"/>
<path fill="#163472" opacity="1.000000" stroke="none" 
	d="
M478.068115,44.630562 
	C477.803772,42.549847 477.664154,40.105278 477.491028,37.074299 
	C474.951263,37.074299 471.719299,36.909302 468.524017,37.178921 
	C467.613373,37.255760 466.809265,38.595135 465.880829,39.779678 
	C465.433838,38.695187 465.062317,37.186573 464.636597,35.457874 
	C468.558502,35.457874 472.002594,35.625847 475.423218,35.414539 
	C479.522247,35.161327 480.987701,36.399227 479.064972,40.444221 
	C478.517334,41.596268 478.469696,42.985977 478.068115,44.630562 
z"/>
<path fill="#394A81" opacity="1.000000" stroke="none" 
	d="
M397.732666,107.031097 
	C402.704224,106.692665 407.834656,106.692665 413.281586,106.692665 
	C412.955200,105.590469 412.607666,104.416824 412.294189,102.868530 
	C413.914581,104.284370 415.501007,106.074844 417.087402,107.865318 
	C416.891052,108.360458 416.694672,108.855598 416.498322,109.350739 
	C410.296051,108.690338 404.093781,108.029938 397.732666,107.031097 
z"/>
<path fill="#01145C" opacity="1.000000" stroke="none" 
	d="
M467.066895,43.067421 
	C467.380035,43.959450 467.961792,44.850231 467.965942,45.743702 
	C468.025208,58.466366 468.006348,71.189392 467.416901,84.020004 
	C467.275513,83.480118 467.134155,82.940239 466.921204,82.063583 
	C466.807281,70.223907 466.764954,58.720993 466.877258,46.371731 
	C467.043518,44.706059 467.055206,43.886742 467.066895,43.067421 
z"/>
<path fill="#052367" opacity="1.000000" stroke="none" 
	d="
M235.154907,51.312599 
	C236.373627,46.336895 237.535080,41.723076 233.076233,37.538315 
	C234.657547,37.870045 236.315796,38.551491 237.947418,39.221992 
	C237.947418,44.180073 237.947418,48.900555 237.947418,54.400398 
	C236.756271,53.151978 236.036713,52.397816 235.154907,51.312599 
z"/>
<path fill="#163472" opacity="1.000000" stroke="none" 
	d="
M467.038818,42.712730 
	C467.055206,43.886742 467.043518,44.706059 466.941345,45.927563 
	C466.488464,44.525482 466.126099,42.721214 465.757019,40.518501 
	C466.170471,40.866047 466.590637,41.612041 467.038818,42.712730 
z"/>
<path fill="#394A81" opacity="1.000000" stroke="none" 
	d="
M395.916992,104.572784 
	C396.408142,104.825157 396.931702,105.336510 397.376007,106.118942 
	C396.847626,105.870598 396.398529,105.351173 395.916992,104.572784 
z"/>
<path fill="#EDF0F4" opacity="1.000000" stroke="none" 
	d="
M139.339233,85.320801 
	C139.480499,86.077583 139.250778,87.200081 139.136337,87.188454 
	C135.992584,86.868935 132.855972,86.050606 129.727448,86.088150 
	C119.271217,86.213654 108.818779,86.645439 98.364372,86.941940 
	C96.647758,86.990631 94.928566,86.948792 93.137764,86.291039 
	C96.617737,85.030167 100.097717,83.769302 105.040955,81.978264 
	C99.485626,80.904892 95.279457,80.092201 91.073288,79.279510 
	C91.096291,78.814491 91.119301,78.349480 91.142303,77.884468 
	C96.316452,78.185905 101.490593,78.487350 107.746605,78.851814 
	C103.550385,75.537804 100.061005,72.782043 96.571632,70.026276 
	C96.839081,69.613281 97.106529,69.200287 97.373978,68.787292 
	C100.160904,70.088127 102.947830,71.388962 106.256630,72.933395 
	C108.347115,67.631874 102.424789,64.874573 102.808075,59.786789 
	C105.818825,63.617397 108.829575,67.448006 111.840324,71.278618 
	C112.227646,71.151535 112.614975,71.024452 113.002296,70.897369 
	C112.466667,65.401573 111.931038,59.905781 111.395409,54.409988 
	C111.772858,54.391403 112.150307,54.372822 112.527756,54.354240 
	C113.798790,58.996910 115.069817,63.639584 116.626572,69.325912 
	C121.799088,63.466854 121.012054,56.072636 124.668953,50.316853 
	C123.660194,57.459625 122.651436,64.602394 121.642677,71.745163 
	C121.917175,71.912643 122.191673,72.080124 122.466171,72.247604 
	C125.995354,67.781860 129.524536,63.316109 133.053726,58.850361 
	C133.378250,59.088196 133.702759,59.326031 134.027267,59.563869 
	C131.842026,63.448624 129.656769,67.333382 127.471519,71.218132 
	C127.811272,71.636024 128.151016,72.053909 128.490784,72.471794 
	C132.499863,70.834984 136.508942,69.198166 140.518036,67.561356 
	C140.567413,67.841469 140.616806,68.121582 140.666183,68.401695 
	C136.420242,71.712509 132.174316,75.023331 127.024635,79.038849 
	C133.285873,78.520721 138.315933,78.104477 143.346008,77.688232 
	C143.401337,78.036766 143.456680,78.385307 143.512024,78.733841 
	C139.556290,79.798553 135.600555,80.863266 130.557465,82.220657 
	C134.047333,83.431686 136.534668,84.294830 139.339233,85.320801 
z"/>
<path fill="#F7F9FA" opacity="1.000000" stroke="none" 
	d="
M387.474304,47.496593 
	C390.550720,52.481373 391.876068,57.602428 387.771881,61.998726 
	C383.357880,66.726936 377.222015,67.822609 370.946289,67.382996 
	C370.169006,67.328552 368.920990,65.594833 368.892578,64.610367 
	C368.706787,58.172955 368.796936,51.727558 368.796936,43.826393 
	C375.357697,45.070400 381.242310,46.186195 387.474304,47.496593 
z"/>
<path fill="#001F64" opacity="1.000000" stroke="none" 
	d="
M356.002441,80.995262 
	C356.002441,86.289742 356.002441,91.085457 356.002441,95.881180 
	C355.766632,95.878624 355.530853,95.876076 355.295044,95.873520 
	C355.295044,80.025665 355.295044,64.177811 355.295044,48.329952 
	C355.530853,48.324192 355.766632,48.318428 356.002441,48.312668 
	C356.002441,59.040615 356.002441,69.768562 356.002441,80.995262 
z"/>
<path fill="#000D57" opacity="1.000000" stroke="none" 
	d="
M429.996704,79.370911 
	C429.996338,67.378136 429.996338,55.808739 429.996338,44.239342 
	C430.204651,44.239223 430.412964,44.239105 430.621277,44.238987 
	C430.621277,56.769321 430.621277,69.299652 430.621277,81.863602 
	C430.455902,81.792938 430.334808,81.778259 430.281403,81.710350 
	C430.182465,81.584641 430.069855,81.432388 430.057007,81.283096 
	C430.014404,80.788788 430.013763,80.290840 429.996704,79.370911 
z"/>
</svg>