<svg version="1.1" id="Layer_1" xmlns="http://www.w3.org/2000/svg" xmlns:xlink="http://www.w3.org/1999/xlink" x="0px" y="0px"
	 width="100%" viewBox="0 0 512 256" enable-background="new 0 0 512 256" xml:space="preserve">
<path fill="#000000" opacity="1.000000" stroke="none" 
	d="
M373.000000,257.000000 
	C248.666672,257.000000 124.833336,257.000000 1.000000,257.000000 
	C1.000000,171.666672 1.000000,86.333336 1.000000,1.000000 
	C171.666672,1.000000 342.333344,1.000000 513.000000,1.000000 
	C513.000000,86.333336 513.000000,171.666672 513.000000,257.000000 
	C466.500000,257.000000 420.000000,257.000000 373.000000,257.000000 
M203.292938,93.307030 
	C203.163803,93.178680 203.034683,93.050339 202.973816,92.081284 
	C203.122284,90.775993 203.165848,89.448608 203.435394,88.168823 
	C206.220215,74.946556 209.041534,61.731976 211.917007,48.212952 
	C202.122543,48.212952 192.838028,48.212952 183.331314,48.212952 
	C182.206299,53.737602 181.257217,59.198631 179.969620,64.578644 
	C175.148712,84.722061 173.445175,105.752190 163.022034,124.331474 
	C162.417542,125.408981 162.587738,127.548546 163.287964,128.601776 
	C164.812012,130.894043 166.911423,132.803757 169.298904,135.449677 
	C176.392838,125.990868 179.907547,115.168884 183.440567,104.071350 
	C184.950043,104.144043 186.355438,104.211731 188.702606,104.324776 
	C184.721375,110.594612 189.264984,120.286873 179.274261,122.448219 
	C179.274261,126.576454 179.274261,130.594757 179.274261,134.397034 
	C181.787033,134.241287 183.747086,134.138748 185.704086,133.994812 
	C190.837357,133.617249 194.428177,132.029999 195.412598,126.318703 
	C196.810928,118.206024 198.848312,110.203499 200.561813,102.385773 
	C203.287323,103.836143 205.795807,105.171021 208.547028,106.635063 
	C208.033936,108.384949 207.257812,111.031944 206.365555,114.074982 
	C217.344086,114.074982 227.976349,114.074982 239.137634,114.074982 
	C238.062790,117.561874 237.135803,120.569145 236.208817,123.576408 
	C235.791519,123.456696 235.374222,123.336990 234.956924,123.217278 
	C235.150116,121.224625 235.343323,119.231972 235.531998,117.285805 
	C234.936157,117.170952 234.611618,117.054512 234.286758,117.053619 
	C225.123291,117.028496 215.959808,117.009239 206.796326,117.001411 
	C198.804245,116.994591 197.825027,118.130554 198.535324,126.956329 
	C207.780945,126.956329 217.067230,126.956329 226.839493,126.956329 
	C227.437119,130.760284 227.986359,134.256195 228.519592,137.650162 
	C231.715988,137.425690 234.857193,137.467880 237.894608,136.927094 
	C241.946640,136.205658 246.264511,135.301697 247.657120,130.617188 
	C250.078522,122.471985 252.946671,114.344147 254.120926,105.997086 
	C254.633530,102.353355 256.136414,100.465042 258.220703,98.279289 
	C260.224487,96.177925 262.230316,94.078522 263.987518,92.237793 
	C258.776978,89.518173 254.041550,87.046539 249.306137,84.574913 
	C249.512833,84.074654 249.719513,83.574402 249.926208,83.074142 
	C254.366974,83.074142 258.807739,83.074142 263.634094,83.074142 
	C264.384308,79.707642 265.081940,76.577179 265.951324,72.675949 
	C256.484924,72.675949 247.358597,72.675949 238.232269,72.675949 
	C238.208511,72.068398 238.184753,71.460838 238.160980,70.853287 
	C246.162933,68.808563 254.578766,70.874313 262.760651,69.653725 
	C263.327759,66.510735 263.870667,63.501831 264.448059,60.301918 
	C261.950562,60.068089 259.813812,59.868038 257.469513,59.648552 
	C260.685455,56.574005 263.489441,53.893330 266.579102,50.939541 
	C262.682220,48.709427 259.305054,45.212296 256.275787,45.491386 
	C253.355667,45.760414 250.795029,49.929363 248.075287,52.383671 
	C247.951767,52.495132 247.816833,52.593914 247.302658,52.315422 
	C247.174332,52.187824 247.046005,52.060223 247.020966,51.177299 
	C247.724945,49.038479 248.428925,46.899658 249.363937,44.058910 
	C244.147339,43.567024 239.463501,43.125378 234.614807,42.668186 
	C233.545288,46.166943 232.633026,49.151291 231.645920,52.380413 
	C229.492996,48.953323 227.540482,45.845257 225.561401,42.694897 
	C220.968399,45.619801 217.018784,48.134987 213.040741,50.668270 
	C215.052963,53.750828 216.900513,56.581112 218.988022,59.779011 
	C216.660599,59.956951 215.045074,60.080463 213.363525,60.209026 
	C212.644089,63.515396 211.975861,66.586449 211.228699,70.020248 
	C215.902252,70.020248 220.044403,70.020248 224.186569,70.020248 
	C224.258743,70.482513 224.330917,70.944778 224.403107,71.407036 
	C219.611633,74.883339 213.494446,71.718903 208.155685,73.519981 
	C207.517746,76.441772 206.857498,79.465782 206.142563,82.740250 
	C209.308990,82.924011 212.310349,83.098190 215.311722,83.272377 
	C215.447449,83.668716 215.583191,84.065056 215.718918,84.461388 
	C211.705765,87.538589 207.692596,90.615784 203.292938,93.307030 
M304.294617,79.998543 
	C296.009460,80.004333 293.941895,82.794296 295.748505,92.045563 
	C298.920441,92.045563 302.185883,92.045563 305.703857,92.045563 
	C302.745483,106.168152 299.880005,119.847176 296.957581,133.798126 
	C301.858063,133.798126 306.142517,133.798126 310.614990,133.798126 
	C313.556122,119.802620 316.465485,105.958229 319.341095,92.274551 
	C322.126648,92.274551 324.409302,92.274551 327.057312,92.274551 
	C326.458282,95.129562 325.893890,97.650833 325.403534,100.186417 
	C323.533722,109.855225 322.694489,119.434464 327.864716,128.501678 
	C330.020752,132.282730 332.789520,134.765045 337.522430,135.098984 
	C342.451324,135.446747 344.746399,132.245697 346.886322,128.995438 
	C348.378723,126.728645 349.122559,123.932243 350.002686,121.306030 
	C352.654175,113.394493 352.193329,113.372147 344.308746,110.478676 
	C339.273315,108.630783 340.829376,114.218994 337.561218,114.977676 
	C339.054138,92.372330 346.135895,71.153893 349.590271,49.006565 
	C335.791718,49.006565 322.307404,48.955769 308.825195,49.098774 
	C307.692993,49.110783 305.878815,50.208679 305.579102,51.173939 
	C304.646973,54.176056 304.291595,57.357243 303.655548,60.775043 
	C307.022125,60.968094 309.418793,61.105526 311.977173,61.252228 
	C310.911499,66.901764 310.137543,72.077553 308.836090,77.117134 
	C308.527771,78.311142 306.449371,79.048035 304.294617,79.998543 
M335.586487,180.072495 
	C331.949982,178.042877 328.517029,175.052460 324.625214,174.228073 
	C319.815948,173.209320 314.589447,173.603653 309.606812,174.068756 
	C296.862427,175.258377 286.652557,184.110992 283.299652,196.377029 
	C279.909912,208.777832 284.896851,217.253174 297.485199,219.952499 
	C301.144196,220.737091 305.053009,221.282852 308.729309,220.874969 
	C317.361389,219.917252 325.354767,217.041855 331.880341,210.482330 
	C328.679047,209.743637 325.576691,209.591812 322.495026,209.779312 
	C317.898926,210.058899 313.314453,210.943893 308.730347,210.907135 
	C302.206238,210.854828 298.299530,207.040665 297.213776,200.029785 
	C310.662994,200.029785 324.040039,200.029785 337.344055,200.029785 
	C339.275238,193.026016 340.300110,186.646713 335.586487,180.072495 
M156.582901,209.027832 
	C151.216446,209.682556 145.839279,210.926544 140.486496,210.829254 
	C134.934357,210.728363 129.312515,207.395355 129.435715,199.999222 
	C141.232819,199.999222 153.040039,200.058640 164.845215,199.930450 
	C166.478729,199.912720 168.930878,199.469559 169.596649,198.370651 
	C174.137360,190.876144 169.284149,178.043823 161.053818,175.068436 
	C144.093735,168.937195 118.146568,176.798279 114.596199,199.193741 
	C113.418480,206.622650 117.778107,216.636688 125.528008,219.112457 
	C136.229538,222.531158 146.245270,221.145599 156.041077,216.417755 
	C158.933319,215.021851 161.562302,213.080444 164.311935,211.389023 
	C164.105133,211.003235 163.898315,210.617462 163.691513,210.231674 
	C161.606796,209.823654 159.522079,209.415634 156.582901,209.027832 
M339.420013,216.050873 
	C339.318878,217.587021 339.217743,219.123154 339.109894,220.760925 
	C344.028748,220.760925 348.306152,220.760925 352.355865,220.760925 
	C354.762665,211.980148 356.906738,203.422012 359.477509,194.994034 
	C361.859985,187.183380 368.509369,183.353729 376.365265,185.097183 
	C379.597809,185.814545 381.463257,188.131012 380.915802,191.655914 
	C380.566528,193.904709 379.871033,196.099594 379.334015,198.319427 
	C377.545868,205.710983 375.759216,213.102890 373.850861,220.995697 
	C377.947357,220.995697 381.466339,221.313339 384.878235,220.847153 
	C386.345367,220.646698 388.406769,219.056717 388.801422,217.693619 
	C391.072113,209.850632 393.061707,201.917953 394.887238,193.956223 
	C397.892120,180.851227 392.882782,176.853012 385.448425,175.480011 
	C380.107819,174.493683 373.511932,174.218735 368.956818,176.536560 
	C362.628784,179.756516 357.569977,178.756287 351.891113,176.470169 
	C351.187775,176.187027 350.360413,176.211990 349.392822,176.063934 
	C346.182343,189.293808 343.024841,202.305481 339.420013,216.050873 
M190.438522,201.077744 
	C190.747955,200.148758 191.041672,199.214172 191.369415,198.291702 
	C193.168182,193.228867 194.300980,187.309906 200.530945,185.997040 
	C204.128601,185.238861 208.518539,185.134399 211.753021,186.554855 
	C215.684265,188.281296 213.857681,192.490189 213.016846,195.840622 
	C210.959900,204.036835 208.958389,212.246948 206.799500,220.999146 
	C210.479370,220.999146 213.629639,220.839020 216.755966,221.043976 
	C219.915634,221.251129 221.411682,220.281403 222.104691,216.905014 
	C223.942902,207.948944 226.257446,199.090179 228.407288,190.198715 
	C229.963928,183.760635 227.259521,177.440720 220.940994,176.300278 
	C214.789383,175.189926 207.542984,174.273544 202.119141,176.516647 
	C195.614868,179.206558 190.445251,178.981018 184.621078,176.334702 
	C184.066635,176.082809 183.356567,176.173462 182.464981,176.077881 
	C178.812256,190.895905 175.189255,205.593323 171.458817,220.726593 
	C176.866241,220.726593 181.285919,220.726593 185.667267,220.726593 
	C187.185791,214.248901 188.641678,208.038452 190.438522,201.077744 
M94.890907,176.236679 
	C91.132294,190.918945 87.373688,205.601212 83.431976,220.998749 
	C87.399895,220.998749 90.542816,220.812592 93.653748,221.048401 
	C97.126579,221.311646 98.348564,219.951004 99.144341,216.513977 
	C102.533722,201.874985 106.401390,187.347351 109.966248,172.747772 
	C110.612335,170.101776 111.654617,168.828720 114.601471,168.940475 
	C120.227997,169.153854 125.868370,169.002441 131.570770,169.002441 
	C132.355530,165.535583 133.052048,162.458511 133.794861,159.177017 
	C115.096130,159.177017 96.819740,159.177017 78.352058,159.177017 
	C77.524010,162.362686 76.728577,165.422867 75.767288,169.121170 
	C82.910149,169.121170 89.334404,169.121170 95.645424,169.121170 
	C95.810738,169.947220 95.977699,170.290634 95.923965,170.595093 
	C95.640526,172.201096 95.301453,173.797287 94.890907,176.236679 
M233.435898,211.985580 
	C234.265778,212.962311 234.960205,214.110504 235.946304,214.889496 
	C246.841797,223.496552 258.968201,221.728424 271.146637,218.815857 
	C272.215576,218.560181 273.499512,217.201065 273.803284,216.109512 
	C274.880798,212.237076 275.576569,208.258438 276.673065,203.119858 
	C274.700317,204.450760 273.687805,205.135239 272.673950,205.817612 
	C267.516571,209.288589 262.054199,211.577805 255.609848,211.028366 
	C247.378433,210.326553 243.192413,204.073776 245.888245,196.183945 
	C250.510941,182.654770 268.739441,179.648300 279.788513,191.393372 
	C280.931732,186.755539 282.097809,182.615601 282.866455,178.403137 
	C283.018127,177.571869 281.777771,175.758484 280.943604,175.594055 
	C275.658386,174.552155 270.253967,172.927994 264.988770,173.231079 
	C255.521774,173.776031 246.759064,177.295685 239.354721,183.370941 
	C232.959824,188.617920 225.946289,202.107681 233.435898,211.985580 
M277.499512,127.999603 
	C284.445221,121.619873 291.422302,115.273529 298.296234,108.817352 
	C299.137695,108.027000 300.140961,106.380531 299.844727,105.589119 
	C298.696198,102.520683 297.052643,99.637550 295.521606,96.540192 
	C291.974152,99.251884 289.215576,101.360565 285.926514,103.874741 
	C288.168213,92.953629 290.250916,82.806992 292.413483,72.271286 
	C283.800079,72.271286 276.052063,72.271286 268.324738,72.271286 
	C267.467377,76.153610 266.668427,79.771599 265.720215,84.065353 
	C269.730255,84.065353 273.077637,84.065353 276.541901,84.065353 
	C275.618988,89.149750 275.140411,93.754181 273.907990,98.147118 
	C271.665192,106.141457 272.551453,115.474464 264.488281,121.160149 
	C263.910004,121.567917 263.644440,123.360268 264.038696,124.045502 
	C265.884003,127.252502 268.011597,130.297028 270.038330,133.399643 
	C272.358643,131.766647 274.678955,130.133652 277.499512,127.999603 
M401.983795,209.423523 
	C401.055481,213.148026 400.127197,216.872528 399.100922,220.990128 
	C403.242340,220.990128 406.891541,221.162201 410.507629,220.891769 
	C411.688110,220.803513 413.551514,219.763428 413.798401,218.818039 
	C416.610870,208.049026 419.170624,197.214035 421.893463,186.003098 
	C417.873413,186.003098 414.360626,185.697403 410.947968,186.148819 
	C409.520294,186.337662 407.535156,187.897934 407.124512,189.239120 
	C405.173370,195.612228 403.677429,202.124680 401.983795,209.423523 
M398.988770,178.339920 
	C398.621124,180.362320 398.253448,182.384720 397.826416,184.733643 
	C411.355804,184.733643 424.227875,184.733643 438.519196,184.733643 
	C429.724335,177.462204 421.907410,170.999283 413.637451,164.161819 
	C412.655701,167.219498 411.596466,169.204666 411.447815,171.255829 
	C411.141754,175.478806 408.900909,176.302521 405.169342,176.104904 
	C403.156097,175.998291 401.085724,176.970383 398.988770,178.339920 
M283.671844,48.081993 
	C282.516754,48.632729 281.361664,49.183468 280.260223,49.708626 
	C282.021393,55.945911 283.743195,62.043907 285.549988,68.442863 
	C291.261414,66.257149 296.187500,64.371964 301.285583,62.420971 
	C299.235168,55.868748 297.369415,49.906673 295.378906,43.545891 
	C291.337555,45.148090 287.880951,46.518467 283.671844,48.081993 
z"/>
<path fill="#006CB6" opacity="1.000000" stroke="none" 
	d="
M247.687225,52.698608 
	C247.816833,52.593914 247.951767,52.495132 248.075287,52.383671 
	C250.795029,49.929363 253.355667,45.760414 256.275787,45.491386 
	C259.305054,45.212296 262.682220,48.709427 266.579102,50.939541 
	C263.489441,53.893330 260.685455,56.574005 257.469513,59.648552 
	C259.813812,59.868038 261.950562,60.068089 264.448059,60.301918 
	C263.870667,63.501831 263.327759,66.510735 262.760651,69.653725 
	C254.578766,70.874313 246.162933,68.808563 238.160980,70.853287 
	C238.184753,71.460838 238.208511,72.068398 238.232269,72.675949 
	C247.358597,72.675949 256.484924,72.675949 265.951324,72.675949 
	C265.081940,76.577179 264.384308,79.707642 263.634094,83.074142 
	C258.807739,83.074142 254.366974,83.074142 249.926208,83.074142 
	C249.719513,83.574402 249.512833,84.074654 249.306137,84.574913 
	C254.041550,87.046539 258.776978,89.518173 263.987518,92.237793 
	C262.230316,94.078522 260.224487,96.177925 258.220703,98.279289 
	C256.136414,100.465042 254.633530,102.353355 254.120926,105.997086 
	C252.946671,114.344147 250.078522,122.471985 247.657120,130.617188 
	C246.264511,135.301697 241.946640,136.205658 237.894608,136.927094 
	C234.857193,137.467880 231.715988,137.425690 228.519592,137.650162 
	C227.986359,134.256195 227.437119,130.760284 226.839493,126.956329 
	C217.067230,126.956329 207.780945,126.956329 198.535324,126.956329 
	C197.825027,118.130554 198.804245,116.994591 206.796326,117.001411 
	C215.959808,117.009239 225.123291,117.028496 234.286758,117.053619 
	C234.611618,117.054512 234.936157,117.170952 235.531998,117.285805 
	C235.343323,119.231972 235.150116,121.224625 234.956924,123.217278 
	C235.374222,123.336990 235.791519,123.456696 236.208817,123.576408 
	C237.135803,120.569145 238.062790,117.561874 239.137634,114.074982 
	C227.976349,114.074982 217.344086,114.074982 206.365555,114.074982 
	C207.257812,111.031944 208.033936,108.384949 208.547028,106.635063 
	C205.795807,105.171021 203.287323,103.836143 200.561813,102.385773 
	C198.848312,110.203499 196.810928,118.206024 195.412598,126.318703 
	C194.428177,132.029999 190.837357,133.617249 185.704086,133.994812 
	C183.747086,134.138748 181.787033,134.241287 179.274261,134.397034 
	C179.274261,130.594757 179.274261,126.576454 179.274261,122.448219 
	C189.264984,120.286873 184.721375,110.594612 188.702606,104.324776 
	C186.355438,104.211731 184.950043,104.144043 183.440567,104.071350 
	C179.907547,115.168884 176.392838,125.990868 169.298904,135.449677 
	C166.911423,132.803757 164.812012,130.894043 163.287964,128.601776 
	C162.587738,127.548546 162.417542,125.408981 163.022034,124.331474 
	C173.445175,105.752190 175.148712,84.722061 179.969620,64.578644 
	C181.257217,59.198631 182.206299,53.737602 183.331314,48.212952 
	C192.838028,48.212952 202.122543,48.212952 211.917007,48.212952 
	C209.041534,61.731976 206.220215,74.946556 203.435394,88.168823 
	C203.165848,89.448608 203.122284,90.775993 202.688705,92.625183 
	C202.359695,93.599731 202.315811,94.030373 202.271927,94.461029 
	C202.741104,94.205017 203.210266,93.948997 203.679428,93.692978 
	C207.692596,90.615784 211.705765,87.538589 215.718918,84.461388 
	C215.583191,84.065056 215.447449,83.668716 215.311722,83.272377 
	C212.310349,83.098190 209.308990,82.924011 206.142563,82.740250 
	C206.857498,79.465782 207.517746,76.441772 208.155685,73.519981 
	C213.494446,71.718903 219.611633,74.883339 224.403107,71.407036 
	C224.330917,70.944778 224.258743,70.482513 224.186569,70.020248 
	C220.044403,70.020248 215.902252,70.020248 211.228699,70.020248 
	C211.975861,66.586449 212.644089,63.515396 213.363525,60.209026 
	C215.045074,60.080463 216.660599,59.956951 218.988022,59.779011 
	C216.900513,56.581112 215.052963,53.750828 213.040741,50.668270 
	C217.018784,48.134987 220.968399,45.619801 225.561401,42.694897 
	C227.540482,45.845257 229.492996,48.953323 231.645920,52.380413 
	C232.633026,49.151291 233.545288,46.166943 234.614807,42.668186 
	C239.463501,43.125378 244.147339,43.567024 249.363937,44.058910 
	C248.428925,46.899658 247.724945,49.038479 246.687408,51.712223 
	C245.936752,53.326317 245.519638,54.405487 245.102524,55.484653 
	C245.310654,55.580799 245.518768,55.676941 245.726883,55.773083 
	C246.380325,54.748257 247.033768,53.723434 247.687225,52.698608 
M230.981827,100.446564 
	C231.222046,99.082260 231.462250,97.717957 231.645584,96.676758 
	C227.057388,96.676758 222.770859,96.676758 218.484329,96.676758 
	C218.484848,96.963463 218.485367,97.250168 218.485886,97.536865 
	C219.967712,97.885635 221.449554,98.234406 223.082840,98.618813 
	C222.764969,100.489464 222.501785,102.038376 222.237595,103.593109 
	C228.816116,104.366348 228.816116,104.366348 230.981827,100.446564 
M196.032761,65.691612 
	C196.530991,63.575348 197.029221,61.459080 197.690475,58.650307 
	C188.811142,60.117653 193.023499,67.579414 190.183731,71.561272 
	C195.515442,73.097054 195.392517,69.425079 196.032761,65.691612 
M192.187714,83.335258 
	C192.260147,83.185623 192.358063,83.042206 192.396637,82.884293 
	C192.425766,82.765182 192.378952,82.627518 192.365936,82.498108 
	C190.900742,82.877678 188.510590,82.857018 188.141190,83.710732 
	C186.962265,86.435303 186.533829,89.484604 185.754852,92.655655 
	C187.926193,92.655655 189.309875,92.655655 190.709152,92.655655 
	C191.185257,89.603836 191.612762,86.863472 192.187714,83.335258 
M250.031052,103.960060 
	C250.189896,103.919136 250.372910,103.913452 250.499985,103.826241 
	C250.603973,103.754890 250.719971,103.493637 250.696930,103.474075 
	C248.658707,101.744080 246.607498,100.029373 244.407074,98.187988 
	C243.948212,100.305351 243.588211,101.966591 243.149414,103.991417 
	C245.452682,103.991417 247.405365,103.991417 250.031052,103.960060 
z"/>
<path fill="#006CB6" opacity="1.000000" stroke="none" 
	d="
M304.739899,79.996872 
	C306.449371,79.048035 308.527771,78.311142 308.836090,77.117134 
	C310.137543,72.077553 310.911499,66.901764 311.977173,61.252228 
	C309.418793,61.105526 307.022125,60.968094 303.655548,60.775043 
	C304.291595,57.357243 304.646973,54.176056 305.579102,51.173939 
	C305.878815,50.208679 307.692993,49.110783 308.825195,49.098774 
	C322.307404,48.955769 335.791718,49.006565 349.590271,49.006565 
	C346.135895,71.153893 339.054138,92.372330 337.561218,114.977676 
	C340.829376,114.218994 339.273315,108.630783 344.308746,110.478676 
	C352.193329,113.372147 352.654175,113.394493 350.002686,121.306030 
	C349.122559,123.932243 348.378723,126.728645 346.886322,128.995438 
	C344.746399,132.245697 342.451324,135.446747 337.522430,135.098984 
	C332.789520,134.765045 330.020752,132.282730 327.864716,128.501678 
	C322.694489,119.434464 323.533722,109.855225 325.403534,100.186417 
	C325.893890,97.650833 326.458282,95.129562 327.057312,92.274551 
	C324.409302,92.274551 322.126648,92.274551 319.341095,92.274551 
	C316.465485,105.958229 313.556122,119.802620 310.614990,133.798126 
	C306.142517,133.798126 301.858063,133.798126 296.957581,133.798126 
	C299.880005,119.847176 302.745483,106.168152 305.703857,92.045563 
	C302.185883,92.045563 298.920441,92.045563 295.748505,92.045563 
	C293.941895,82.794296 296.009460,80.004333 304.739899,79.996872 
M325.111206,63.781395 
	C324.100433,69.002579 323.089691,74.223755 322.003479,79.834671 
	C325.502106,79.498367 329.569122,82.053558 330.865601,76.886795 
	C332.127228,71.858879 332.928436,66.715431 334.244080,60.037800 
	C330.715179,61.241787 328.107239,62.131557 325.111206,63.781395 
z"/>
<path fill="#006CB6" opacity="1.000000" stroke="none" 
	d="
M335.838501,180.352417 
	C340.300110,186.646713 339.275238,193.026016 337.344055,200.029785 
	C324.040039,200.029785 310.662994,200.029785 297.213776,200.029785 
	C298.299530,207.040665 302.206238,210.854828 308.730347,210.907135 
	C313.314453,210.943893 317.898926,210.058899 322.495026,209.779312 
	C325.576691,209.591812 328.679047,209.743637 331.880341,210.482330 
	C325.354767,217.041855 317.361389,219.917252 308.729309,220.874969 
	C305.053009,221.282852 301.144196,220.737091 297.485199,219.952499 
	C284.896851,217.253174 279.909912,208.777832 283.299652,196.377029 
	C286.652557,184.110992 296.862427,175.258377 309.606812,174.068756 
	C314.589447,173.603653 319.815948,173.209320 324.625214,174.228073 
	C328.517029,175.052460 331.949982,178.042877 335.838501,180.352417 
M321.800720,185.361694 
	C313.628632,181.843948 305.369781,184.077881 301.967010,190.769531 
	C309.523682,190.769531 317.052795,190.769531 325.475159,190.769531 
	C324.204041,188.781418 323.289917,187.351608 321.800720,185.361694 
z"/>
<path fill="#006CB6" opacity="1.000000" stroke="none" 
	d="
M157.010132,209.017731 
	C159.522079,209.415634 161.606796,209.823654 163.691513,210.231674 
	C163.898315,210.617462 164.105133,211.003235 164.311935,211.389023 
	C161.562302,213.080444 158.933319,215.021851 156.041077,216.417755 
	C146.245270,221.145599 136.229538,222.531158 125.528008,219.112457 
	C117.778107,216.636688 113.418480,206.622650 114.596199,199.193741 
	C118.146568,176.798279 144.093735,168.937195 161.053818,175.068436 
	C169.284149,178.043823 174.137360,190.876144 169.596649,198.370651 
	C168.930878,199.469559 166.478729,199.912720 164.845215,199.930450 
	C153.040039,200.058640 141.232819,199.999222 129.435715,199.999222 
	C129.312515,207.395355 134.934357,210.728363 140.486496,210.829254 
	C145.839279,210.926544 151.216446,209.682556 157.010132,209.017731 
M133.877304,190.754929 
	C141.461304,190.754929 149.045303,190.754929 156.629303,190.754929 
	C156.929703,190.251617 157.230103,189.748322 157.530487,189.245010 
	C155.107590,187.505600 152.866562,184.687653 150.225433,184.242233 
	C143.945984,183.183243 137.746002,183.989853 133.877304,190.754929 
z"/>
<path fill="#006CB6" opacity="1.000000" stroke="none" 
	d="
M339.643677,215.684006 
	C343.024841,202.305481 346.182343,189.293808 349.392822,176.063934 
	C350.360413,176.211990 351.187775,176.187027 351.891113,176.470169 
	C357.569977,178.756287 362.628784,179.756516 368.956818,176.536560 
	C373.511932,174.218735 380.107819,174.493683 385.448425,175.480011 
	C392.882782,176.853012 397.892120,180.851227 394.887238,193.956223 
	C393.061707,201.917953 391.072113,209.850632 388.801422,217.693619 
	C388.406769,219.056717 386.345367,220.646698 384.878235,220.847153 
	C381.466339,221.313339 377.947357,220.995697 373.850861,220.995697 
	C375.759216,213.102890 377.545868,205.710983 379.334015,198.319427 
	C379.871033,196.099594 380.566528,193.904709 380.915802,191.655914 
	C381.463257,188.131012 379.597809,185.814545 376.365265,185.097183 
	C368.509369,183.353729 361.859985,187.183380 359.477509,194.994034 
	C356.906738,203.422012 354.762665,211.980148 352.355865,220.760925 
	C348.306152,220.760925 344.028748,220.760925 339.109894,220.760925 
	C339.217743,219.123154 339.318878,217.587021 339.643677,215.684006 
z"/>
<path fill="#006CB6" opacity="1.000000" stroke="none" 
	d="
M190.268036,201.452881 
	C188.641678,208.038452 187.185791,214.248901 185.667267,220.726593 
	C181.285919,220.726593 176.866241,220.726593 171.458817,220.726593 
	C175.189255,205.593323 178.812256,190.895905 182.464981,176.077881 
	C183.356567,176.173462 184.066635,176.082809 184.621078,176.334702 
	C190.445251,178.981018 195.614868,179.206558 202.119141,176.516647 
	C207.542984,174.273544 214.789383,175.189926 220.940994,176.300278 
	C227.259521,177.440720 229.963928,183.760635 228.407288,190.198715 
	C226.257446,199.090179 223.942902,207.948944 222.104691,216.905014 
	C221.411682,220.281403 219.915634,221.251129 216.755966,221.043976 
	C213.629639,220.839020 210.479370,220.999146 206.799500,220.999146 
	C208.958389,212.246948 210.959900,204.036835 213.016846,195.840622 
	C213.857681,192.490189 215.684265,188.281296 211.753021,186.554855 
	C208.518539,185.134399 204.128601,185.238861 200.530945,185.997040 
	C194.300980,187.309906 193.168182,193.228867 191.369415,198.291702 
	C191.041672,199.214172 190.747955,200.148758 190.268036,201.452881 
z"/>
<path fill="#006CB6" opacity="1.000000" stroke="none" 
	d="
M94.936295,175.816772 
	C95.301453,173.797287 95.640526,172.201096 95.923965,170.595093 
	C95.977699,170.290634 95.810738,169.947220 95.645424,169.121170 
	C89.334404,169.121170 82.910149,169.121170 75.767288,169.121170 
	C76.728577,165.422867 77.524010,162.362686 78.352058,159.177017 
	C96.819740,159.177017 115.096130,159.177017 133.794861,159.177017 
	C133.052048,162.458511 132.355530,165.535583 131.570770,169.002441 
	C125.868370,169.002441 120.227997,169.153854 114.601471,168.940475 
	C111.654617,168.828720 110.612335,170.101776 109.966248,172.747772 
	C106.401390,187.347351 102.533722,201.874985 99.144341,216.513977 
	C98.348564,219.951004 97.126579,221.311646 93.653748,221.048401 
	C90.542816,220.812592 87.399895,220.998749 83.431976,220.998749 
	C87.373688,205.601212 91.132294,190.918945 94.936295,175.816772 
z"/>
<path fill="#006CB6" opacity="1.000000" stroke="none" 
	d="
M233.184937,211.697739 
	C225.946289,202.107681 232.959824,188.617920 239.354721,183.370941 
	C246.759064,177.295685 255.521774,173.776031 264.988770,173.231079 
	C270.253967,172.927994 275.658386,174.552155 280.943604,175.594055 
	C281.777771,175.758484 283.018127,177.571869 282.866455,178.403137 
	C282.097809,182.615601 280.931732,186.755539 279.788513,191.393372 
	C268.739441,179.648300 250.510941,182.654770 245.888245,196.183945 
	C243.192413,204.073776 247.378433,210.326553 255.609848,211.028366 
	C262.054199,211.577805 267.516571,209.288589 272.673950,205.817612 
	C273.687805,205.135239 274.700317,204.450760 276.673065,203.119858 
	C275.576569,208.258438 274.880798,212.237076 273.803284,216.109512 
	C273.499512,217.201065 272.215576,218.560181 271.146637,218.815857 
	C258.968201,221.728424 246.841797,223.496552 235.946304,214.889496 
	C234.960205,214.110504 234.265778,212.962311 233.184937,211.697739 
z"/>
<path fill="#006CB6" opacity="1.000000" stroke="none" 
	d="
M277.249390,128.250122 
	C274.678955,130.133652 272.358643,131.766647 270.038330,133.399628 
	C268.011597,130.297028 265.884003,127.252502 264.038696,124.045502 
	C263.644440,123.360268 263.910004,121.567917 264.488281,121.160149 
	C272.551453,115.474464 271.665192,106.141457 273.907990,98.147118 
	C275.140411,93.754181 275.618988,89.149750 276.541901,84.065353 
	C273.077637,84.065353 269.730255,84.065353 265.720215,84.065353 
	C266.668427,79.771599 267.467377,76.153610 268.324738,72.271286 
	C276.052063,72.271286 283.800079,72.271286 292.413483,72.271286 
	C290.250916,82.806992 288.168213,92.953629 285.926514,103.874741 
	C289.215576,101.360565 291.974152,99.251884 295.521606,96.540192 
	C297.052643,99.637550 298.696198,102.520683 299.844727,105.589119 
	C300.140961,106.380531 299.137695,108.027000 298.296234,108.817352 
	C291.422302,115.273529 284.445221,121.619873 277.249390,128.250122 
z"/>
<path fill="#006CB6" opacity="1.000000" stroke="none" 
	d="
M402.001587,209.005524 
	C403.677429,202.124680 405.173370,195.612228 407.124512,189.239120 
	C407.535156,187.897934 409.520294,186.337662 410.947968,186.148819 
	C414.360626,185.697403 417.873413,186.003098 421.893463,186.003098 
	C419.170624,197.214035 416.610870,208.049026 413.798401,218.818039 
	C413.551514,219.763428 411.688110,220.803513 410.507629,220.891769 
	C406.891541,221.162201 403.242340,220.990128 399.100922,220.990128 
	C400.127197,216.872528 401.055481,213.148026 402.001587,209.005524 
z"/>
<path fill="#006CB6" opacity="1.000000" stroke="none" 
	d="
M399.014954,177.897858 
	C401.085724,176.970383 403.156097,175.998291 405.169342,176.104904 
	C408.900909,176.302521 411.141754,175.478806 411.447815,171.255829 
	C411.596466,169.204666 412.655701,167.219498 413.637451,164.161819 
	C421.907410,170.999283 429.724335,177.462204 438.519196,184.733643 
	C424.227875,184.733643 411.355804,184.733643 397.826416,184.733643 
	C398.253448,182.384720 398.621124,180.362320 399.014954,177.897858 
z"/>
<path fill="#006CB6" opacity="1.000000" stroke="none" 
	d="
M284.048096,47.985420 
	C287.880951,46.518467 291.337555,45.148090 295.378906,43.545891 
	C297.369415,49.906673 299.235168,55.868748 301.285583,62.420971 
	C296.187500,64.371964 291.261414,66.257149 285.549988,68.442863 
	C283.743195,62.043907 282.021393,55.945911 280.260223,49.708626 
	C281.361664,49.183468 282.516754,48.632729 284.048096,47.985420 
z"/>
<path fill="#000000" opacity="1.000000" stroke="none" 
	d="
M230.940063,100.861092 
	C228.816116,104.366348 228.816116,104.366348 222.237595,103.593109 
	C222.501785,102.038376 222.764969,100.489464 223.082840,98.618813 
	C221.449554,98.234406 219.967712,97.885635 218.485886,97.536865 
	C218.485367,97.250168 218.484848,96.963463 218.484329,96.676758 
	C222.770859,96.676758 227.057388,96.676758 231.645584,96.676758 
	C231.462250,97.717957 231.222046,99.082260 230.940063,100.861092 
z"/>
<path fill="#000000" opacity="1.000000" stroke="none" 
	d="
M196.017517,66.105247 
	C195.392517,69.425079 195.515442,73.097054 190.183731,71.561272 
	C193.023499,67.579414 188.811142,60.117653 197.690475,58.650307 
	C197.029221,61.459080 196.530991,63.575348 196.017517,66.105247 
z"/>
<path fill="#000000" opacity="1.000000" stroke="none" 
	d="
M192.113983,83.729187 
	C191.612762,86.863472 191.185257,89.603836 190.709152,92.655655 
	C189.309875,92.655655 187.926193,92.655655 185.754852,92.655655 
	C186.533829,89.484604 186.962265,86.435303 188.141190,83.710732 
	C188.510590,82.857018 190.900742,82.877678 192.365936,82.498108 
	C192.378952,82.627518 192.425766,82.765182 192.396637,82.884293 
	C192.358063,83.042206 192.260147,83.185623 192.113983,83.729187 
z"/>
<path fill="#000000" opacity="1.000000" stroke="none" 
	d="
M249.694550,103.975739 
	C247.405365,103.991417 245.452682,103.991417 243.149414,103.991417 
	C243.588211,101.966591 243.948212,100.305351 244.407074,98.187988 
	C246.607498,100.029373 248.658707,101.744080 250.696930,103.474075 
	C250.719971,103.493637 250.603973,103.754890 250.499985,103.826241 
	C250.372910,103.913452 250.189896,103.919136 249.694550,103.975739 
z"/>
<path fill="#000000" opacity="1.000000" stroke="none" 
	d="
M247.494934,52.507015 
	C247.033768,53.723434 246.380325,54.748257 245.726883,55.773083 
	C245.518768,55.676941 245.310654,55.580799 245.102524,55.484653 
	C245.519638,54.405487 245.936752,53.326317 246.635773,52.089886 
	C247.046005,52.060223 247.174332,52.187824 247.494934,52.507015 
z"/>
<path fill="#000000" opacity="1.000000" stroke="none" 
	d="
M203.486176,93.500000 
	C203.210266,93.948997 202.741104,94.205017 202.271927,94.461029 
	C202.315811,94.030373 202.359695,93.599731 202.654572,93.045540 
	C203.034683,93.050339 203.163803,93.178680 203.486176,93.500000 
z"/>
<path fill="#000000" opacity="1.000000" stroke="none" 
	d="
M325.305237,63.401363 
	C328.107239,62.131557 330.715179,61.241787 334.244080,60.037800 
	C332.928436,66.715431 332.127228,71.858879 330.865601,76.886795 
	C329.569122,82.053558 325.502106,79.498367 322.003479,79.834671 
	C323.089691,74.223755 324.100433,69.002579 325.305237,63.401363 
z"/>
<path fill="#000000" opacity="1.000000" stroke="none" 
	d="
M322.088257,185.641754 
	C323.289917,187.351608 324.204041,188.781418 325.475159,190.769531 
	C317.052795,190.769531 309.523682,190.769531 301.967010,190.769531 
	C305.369781,184.077881 313.628632,181.843948 322.088257,185.641754 
z"/>
<path fill="#000000" opacity="1.000000" stroke="none" 
	d="
M133.778397,190.391083 
	C137.746002,183.989853 143.945984,183.183243 150.225433,184.242233 
	C152.866562,184.687653 155.107590,187.505600 157.530487,189.245010 
	C157.230103,189.748322 156.929703,190.251617 156.629303,190.754929 
	C149.045303,190.754929 141.461304,190.754929 133.778397,190.391083 
z"/>
</svg>