<svg version="1.1" id="Layer_1" xmlns="http://www.w3.org/2000/svg" xmlns:xlink="http://www.w3.org/1999/xlink" x="0px" y="0px"
	 width="100%" viewBox="0 0 517 97" enable-background="new 0 0 517 97" xml:space="preserve">
<path fill="#FDFEFE" opacity="1.000000" stroke="none" 
	d="
M87.000000,98.000000 
	C58.407722,98.000000 29.815447,98.000000 1.000000,98.000000 
	C1.000000,70.646179 1.000000,43.291744 1.468601,15.460417 
	C13.019562,14.983519 24.101923,14.983519 35.617615,14.983519 
	C30.750984,42.582096 26.001259,69.517715 21.215630,96.656944 
	C27.790277,96.656944 34.051945,96.656944 40.663307,96.656944 
	C45.533607,69.330490 50.374474,42.169186 55.216808,14.999643 
	C61.552971,14.999643 67.204865,14.999644 72.856758,14.999644 
	C78.495125,14.999644 84.133499,14.999643 90.301727,14.999643 
	C90.891144,10.140822 91.445572,5.570411 92.000000,1.000000 
	C233.910995,1.000000 375.821991,1.000000 517.866455,1.000000 
	C517.866455,33.223557 517.866455,65.447853 517.866455,98.000000 
	C459.979523,98.000000 401.958405,98.000000 343.666290,97.653549 
	C348.973907,95.809364 354.588257,94.427132 360.102661,92.721741 
	C361.282684,92.356812 362.686798,90.965805 362.976990,89.796623 
	C363.919495,85.999794 364.392883,82.086502 365.175751,77.455902 
	C361.883972,78.976723 359.371155,80.206635 356.804474,81.311279 
	C346.928864,85.561501 336.804810,87.567818 326.294220,83.923462 
	C318.956879,81.379379 315.853790,76.390175 316.779419,68.548767 
	C318.463989,68.548767 320.245880,68.558472 322.027649,68.547234 
	C336.998779,68.452820 351.969940,68.354568 367.232422,68.310013 
	C367.682983,68.245926 367.842224,68.129288 368.342957,67.844719 
	C369.361084,64.774246 370.250336,61.902676 370.678253,58.963932 
	C372.761902,44.654774 365.247192,33.616657 351.100372,30.798378 
	C347.371399,30.055511 343.310547,30.603500 339.447357,30.999872 
	C334.033173,31.555376 328.332672,31.638098 323.336823,33.491936 
	C311.295959,37.960026 303.243835,46.740097 299.462830,59.143890 
	C293.744720,77.902550 302.341370,92.643173 321.467163,97.072311 
	C322.020081,97.200348 322.490906,97.682800 323.000000,98.000000 
	C305.645782,98.000000 288.291534,98.000000 270.633575,97.635986 
	C274.227844,96.492523 278.157623,95.838425 282.006256,94.863922 
	C283.309723,94.533882 285.217255,93.591331 285.461609,92.590164 
	C286.581055,88.002724 287.208679,83.295265 288.213806,77.466034 
	C279.807922,83.357628 271.767242,85.952827 262.493866,85.078552 
	C248.531296,83.762184 240.862503,71.897949 246.213074,59.082298 
	C251.958710,45.320335 270.490143,38.723610 284.859131,44.998756 
	C287.454803,46.132317 289.688477,50.880611 292.770142,47.785957 
	C294.628479,45.919796 294.353760,41.926277 295.025055,38.885948 
	C295.096222,38.563828 295.033264,38.209949 295.116913,37.893063 
	C296.032501,34.422985 294.585052,32.835842 291.170288,31.994625 
	C281.352844,29.576141 271.734985,30.316837 261.748871,31.584743 
	C251.322952,32.908497 242.677322,36.828133 235.362061,43.737312 
	C225.841553,52.729301 221.969604,64.043335 225.312180,76.879112 
	C228.359024,88.579147 237.275864,94.323166 248.515839,97.018356 
	C249.057846,97.148315 249.507401,97.663963 250.000000,98.000000 
	C202.979111,98.000000 155.958206,98.000000 108.653275,97.644775 
	C113.631508,95.884857 118.925240,94.583755 124.133667,93.001747 
	C125.416405,92.612129 127.145432,91.490959 127.424156,90.390671 
	C128.445206,86.360031 128.941254,82.196388 129.806015,77.068665 
	C121.133270,81.722221 113.291298,84.792984 104.576355,85.972145 
	C98.071266,86.852303 92.676514,84.879730 87.386787,82.167778 
	C82.121880,79.468552 80.401375,74.659401 81.739296,68.549171 
	C83.316849,68.549171 84.965935,68.549149 86.615028,68.549171 
	C100.761055,68.549339 114.907906,68.469200 129.052429,68.615196 
	C132.000031,68.645615 133.909149,68.165016 134.073410,64.839211 
	C134.334000,59.562958 135.541489,54.146599 134.730713,49.046680 
	C133.406387,40.716358 128.503769,35.068062 120.019798,31.977810 
	C110.202805,28.402016 100.535873,29.827906 91.356262,32.318287 
	C76.488930,36.351715 66.942810,46.724236 63.339756,61.911125 
	C59.352993,78.715340 67.368782,91.951363 84.053749,96.718323 
	C85.074570,97.009979 86.019669,97.566643 87.000000,98.000000 
M460.880127,40.019058 
	C460.880127,40.019058 460.654266,40.307919 460.788483,40.864571 
	C461.159332,41.279678 461.530182,41.694790 462.001465,42.019337 
	C462.001465,42.019337 461.885742,42.088860 462.137146,42.832935 
	C466.064026,43.277729 469.990936,43.722519 473.795410,44.927959 
	C470.721649,62.108822 467.647888,79.289680 464.537994,96.672516 
	C471.630219,96.672516 477.720764,96.672516 483.847015,96.672516 
	C484.224640,95.182442 484.631653,93.910652 484.864288,92.607727 
	C487.546600,77.584770 490.353271,62.581059 492.748718,47.512119 
	C493.282043,44.157230 494.584259,43.497028 497.543854,43.573883 
	C503.799438,43.736336 510.062164,43.623356 516.321960,43.623356 
	C506.046997,34.073982 495.324585,25.497458 484.590302,16.935783 
	C480.256622,13.479214 479.107513,13.942344 478.132141,19.463621 
	C477.452087,23.313154 476.756958,27.160025 476.010742,31.331192 
	C468.583923,31.331192 461.718597,31.331192 454.007172,31.331192 
	C456.285614,34.387138 458.041626,36.742386 459.900513,39.619961 
	C460.155029,39.848850 460.409515,40.077744 460.880127,40.019058 
M149.470673,37.045948 
	C146.235168,56.825001 142.999664,76.604057 139.717072,96.670959 
	C146.279739,96.670959 152.389694,96.670959 158.983917,96.670959 
	C161.014648,85.101532 163.185043,73.552986 165.023178,61.951794 
	C166.091705,55.207867 168.479614,49.463516 174.700821,45.988945 
	C180.559570,42.716812 186.784180,41.412842 192.603745,45.480450 
	C198.059067,49.293480 197.379929,55.160706 196.331802,60.934517 
	C194.180923,72.783142 192.180222,84.659019 190.100372,96.623367 
	C196.787994,96.623367 203.050095,96.623367 209.539536,96.623367 
	C212.026642,82.700943 214.735931,69.040169 216.837173,55.286495 
	C218.459503,44.667515 214.575806,36.871075 206.898514,32.676544 
	C199.448395,28.606131 191.459610,29.832157 183.996323,31.283566 
	C178.080261,32.434082 172.688461,36.280445 166.468506,39.210201 
	C161.851852,36.539711 156.279175,33.316212 150.281052,29.846613 
	C150.027145,32.350925 149.832108,34.274662 149.470673,37.045948 
M432.143311,57.416611 
	C429.979858,70.428780 427.816437,83.440941 425.611389,96.703400 
	C432.412476,96.703400 438.526733,96.703400 444.632843,96.703400 
	C444.994110,95.411415 445.401489,94.316757 445.600769,93.185455 
	C447.443726,82.722023 449.481506,72.285027 450.974152,61.770996 
	C451.760315,56.233387 452.259064,50.480991 451.637146,44.966610 
	C451.020447,39.498219 447.326324,35.466988 442.350983,32.693340 
	C435.613312,28.937256 428.435608,29.994865 421.428131,30.772436 
	C414.052826,31.590822 407.579987,34.871674 403.154541,40.051693 
	C397.270782,36.594292 391.807709,33.384090 386.180054,30.077169 
	C382.409302,52.581608 378.726654,74.560265 374.984222,96.895538 
	C380.637878,96.895538 385.786438,96.768784 390.924438,96.946922 
	C393.653259,97.041534 394.582825,96.099152 395.018097,93.367172 
	C396.819855,82.058472 398.958435,70.803856 400.911041,59.518604 
	C402.338806,51.266720 407.229797,46.156555 415.128204,43.919910 
	C425.712585,40.922653 432.033783,45.644825 432.143311,57.416611 
z"/>
<path fill="#2860AD" opacity="1.000000" stroke="none" 
	d="
M323.468384,98.000000 
	C322.490906,97.682800 322.020081,97.200348 321.467163,97.072311 
	C302.341370,92.643173 293.744720,77.902550 299.462830,59.143890 
	C303.243835,46.740097 311.295959,37.960026 323.336823,33.491936 
	C328.332672,31.638098 334.033173,31.555376 339.447357,30.999872 
	C343.310547,30.603500 347.371399,30.055511 351.100372,30.798378 
	C365.247192,33.616657 372.761902,44.654774 370.678253,58.963932 
	C370.250336,61.902676 369.361084,64.774246 368.223480,67.673813 
	C367.488678,67.866386 367.214874,68.061920 366.941071,68.257462 
	C351.969940,68.354568 336.998779,68.452820 322.027649,68.547234 
	C320.245880,68.558472 318.463989,68.548767 316.779419,68.548767 
	C315.853790,76.390175 318.956879,81.379379 326.294220,83.923462 
	C336.804810,87.567818 346.928864,85.561501 356.804474,81.311279 
	C359.371155,80.206635 361.883972,78.976723 365.175751,77.455902 
	C364.392883,82.086502 363.919495,85.999794 362.976990,89.796623 
	C362.686798,90.965805 361.282684,92.356812 360.102661,92.721741 
	C354.588257,94.427132 348.973907,95.809364 343.197632,97.653549 
	C336.645599,98.000000 330.291199,98.000000 323.468384,98.000000 
M329.265930,43.534321 
	C324.136719,46.580276 320.608704,50.821949 318.748291,56.735012 
	C330.437317,56.735012 341.496307,56.735012 352.513367,56.735012 
	C353.890625,46.790604 349.081116,40.892529 339.545227,41.104778 
	C336.330994,41.176323 333.143494,42.448566 329.265930,43.534321 
z"/>
<path fill="#2960AD" opacity="1.000000" stroke="none" 
	d="
M87.468536,98.000000 
	C86.019669,97.566643 85.074570,97.009979 84.053749,96.718323 
	C67.368782,91.951363 59.352993,78.715340 63.339756,61.911125 
	C66.942810,46.724236 76.488930,36.351715 91.356262,32.318287 
	C100.535873,29.827906 110.202805,28.402016 120.019798,31.977810 
	C128.503769,35.068062 133.406387,40.716358 134.730713,49.046680 
	C135.541489,54.146599 134.334000,59.562958 134.073410,64.839211 
	C133.909149,68.165016 132.000031,68.645615 129.052429,68.615196 
	C114.907906,68.469200 100.761055,68.549339 86.615028,68.549171 
	C84.965935,68.549149 83.316849,68.549171 81.739296,68.549171 
	C80.401375,74.659401 82.121880,79.468552 87.386787,82.167778 
	C92.676514,84.879730 98.071266,86.852303 104.576355,85.972145 
	C113.291298,84.792984 121.133270,81.722221 129.806015,77.068665 
	C128.941254,82.196388 128.445206,86.360031 127.424156,90.390671 
	C127.145432,91.490959 125.416405,92.612129 124.133667,93.001747 
	C118.925240,94.583755 113.631508,95.884857 108.184616,97.644775 
	C101.312355,98.000000 94.624710,98.000000 87.468536,98.000000 
M100.963020,41.121838 
	C92.082062,42.877274 86.374825,48.121239 83.279625,56.780308 
	C94.829025,56.780308 105.892578,56.780308 116.897118,56.780308 
	C119.427589,46.817944 113.650467,40.903294 100.963020,41.121838 
z"/>
<path fill="#285FAD" opacity="1.000000" stroke="none" 
	d="
M91.531342,1.000000 
	C91.445572,5.570411 90.891144,10.140822 90.301727,14.999643 
	C84.133499,14.999643 78.495125,14.999644 72.856758,14.999644 
	C67.204865,14.999644 61.552971,14.999643 55.216808,14.999643 
	C50.374474,42.169186 45.533607,69.330490 40.663307,96.656944 
	C34.051945,96.656944 27.790277,96.656944 21.215630,96.656944 
	C26.001259,69.517715 30.750984,42.582096 35.617615,14.983519 
	C24.101923,14.983519 13.019562,14.983519 1.468601,14.991759 
	C1.000000,13.933331 1.000000,12.866661 1.347712,11.228115 
	C2.130283,7.437492 2.565141,4.218746 3.000000,1.000000 
	C32.354229,1.000000 61.708454,1.000000 91.531342,1.000000 
z"/>
<path fill="#275FAD" opacity="1.000000" stroke="none" 
	d="
M250.468414,98.000000 
	C249.507401,97.663963 249.057846,97.148315 248.515839,97.018356 
	C237.275864,94.323166 228.359024,88.579147 225.312180,76.879112 
	C221.969604,64.043335 225.841553,52.729301 235.362061,43.737312 
	C242.677322,36.828133 251.322952,32.908497 261.748871,31.584743 
	C271.734985,30.316837 281.352844,29.576141 291.170288,31.994625 
	C294.585052,32.835842 296.032501,34.422985 295.116913,37.893063 
	C295.033264,38.209949 295.096222,38.563828 295.025055,38.885948 
	C294.353760,41.926277 294.628479,45.919796 292.770142,47.785957 
	C289.688477,50.880611 287.454803,46.132317 284.859131,44.998756 
	C270.490143,38.723610 251.958710,45.320335 246.213074,59.082298 
	C240.862503,71.897949 248.531296,83.762184 262.493866,85.078552 
	C271.767242,85.952827 279.807922,83.357628 288.213806,77.466034 
	C287.208679,83.295265 286.581055,88.002724 285.461609,92.590164 
	C285.217255,93.591331 283.309723,94.533882 282.006256,94.863922 
	C278.157623,95.838425 274.227844,96.492523 270.164917,97.635986 
	C263.645599,98.000000 257.291199,98.000000 250.468414,98.000000 
z"/>
<path fill="#F2F5F9" opacity="1.000000" stroke="none" 
	d="
M2.500000,1.000000 
	C2.565141,4.218746 2.130283,7.437492 1.347712,10.828119 
	C1.333333,7.666667 1.666667,4.333333 2.500000,1.000000 
z"/>
<path fill="#285FAD" opacity="1.000000" stroke="none" 
	d="
M149.553864,36.622173 
	C149.832108,34.274662 150.027145,32.350925 150.281052,29.846613 
	C156.279175,33.316212 161.851852,36.539711 166.468506,39.210201 
	C172.688461,36.280445 178.080261,32.434082 183.996323,31.283566 
	C191.459610,29.832157 199.448395,28.606131 206.898514,32.676544 
	C214.575806,36.871075 218.459503,44.667515 216.837173,55.286495 
	C214.735931,69.040169 212.026642,82.700943 209.539536,96.623367 
	C203.050095,96.623367 196.787994,96.623367 190.100372,96.623367 
	C192.180222,84.659019 194.180923,72.783142 196.331802,60.934517 
	C197.379929,55.160706 198.059067,49.293480 192.603745,45.480450 
	C186.784180,41.412842 180.559570,42.716812 174.700821,45.988945 
	C168.479614,49.463516 166.091705,55.207867 165.023178,61.951794 
	C163.185043,73.552986 161.014648,85.101532 158.983917,96.670959 
	C152.389694,96.670959 146.279739,96.670959 139.717072,96.670959 
	C142.999664,76.604057 146.235168,56.825001 149.553864,36.622173 
z"/>
<path fill="#2860AD" opacity="1.000000" stroke="none" 
	d="
M432.187927,56.964348 
	C432.033783,45.644825 425.712585,40.922653 415.128204,43.919910 
	C407.229797,46.156555 402.338806,51.266720 400.911041,59.518604 
	C398.958435,70.803856 396.819855,82.058472 395.018097,93.367172 
	C394.582825,96.099152 393.653259,97.041534 390.924438,96.946922 
	C385.786438,96.768784 380.637878,96.895538 374.984222,96.895538 
	C378.726654,74.560265 382.409302,52.581608 386.180054,30.077169 
	C391.807709,33.384090 397.270782,36.594292 403.154541,40.051693 
	C407.579987,34.871674 414.052826,31.590822 421.428131,30.772436 
	C428.435608,29.994865 435.613312,28.937256 442.350983,32.693340 
	C447.326324,35.466988 451.020447,39.498219 451.637146,44.966610 
	C452.259064,50.480991 451.760315,56.233387 450.974152,61.770996 
	C449.481506,72.285027 447.443726,82.722023 445.600769,93.185455 
	C445.401489,94.316757 444.994110,95.411415 444.632843,96.703400 
	C438.526733,96.703400 432.412476,96.703400 425.611389,96.703400 
	C427.816437,83.440941 429.979858,70.428780 432.187927,56.964348 
z"/>
<path fill="#2A61AD" opacity="1.000000" stroke="none" 
	d="
M459.797638,39.097637 
	C458.041626,36.742386 456.285614,34.387138 454.007172,31.331192 
	C461.718597,31.331192 468.583923,31.331192 476.010742,31.331192 
	C476.756958,27.160025 477.452087,23.313154 478.132141,19.463621 
	C479.107513,13.942344 480.256622,13.479214 484.590302,16.935783 
	C495.324585,25.497458 506.046997,34.073982 516.321960,43.623356 
	C510.062164,43.623356 503.799438,43.736336 497.543854,43.573883 
	C494.584259,43.497028 493.282043,44.157230 492.748718,47.512119 
	C490.353271,62.581059 487.546600,77.584770 484.864288,92.607727 
	C484.631653,93.910652 484.224640,95.182442 483.847015,96.672516 
	C477.720764,96.672516 471.630219,96.672516 464.537994,96.672516 
	C467.647888,79.289680 470.721649,62.108822 473.816345,44.141930 
	C469.853424,42.933556 465.869598,42.511208 461.885742,42.088860 
	C461.885742,42.088860 462.001465,42.019337 461.947754,41.749889 
	C461.480804,41.089603 461.067535,40.698765 460.654266,40.307922 
	C460.654266,40.307919 460.880127,40.019058 460.746643,39.891323 
	C460.341278,39.541607 460.069458,39.319626 459.797638,39.097637 
z"/>
<path fill="#4878B9" opacity="1.000000" stroke="none" 
	d="
M462.011444,42.460899 
	C465.869598,42.511208 469.853424,42.933556 473.877563,43.761608 
	C469.990936,43.722519 466.064026,43.277729 462.011444,42.460899 
z"/>
<path fill="#4878B9" opacity="1.000000" stroke="none" 
	d="
M460.721375,40.586250 
	C461.067535,40.698765 461.480804,41.089603 461.897583,41.795174 
	C461.530182,41.694790 461.159332,41.279678 460.721375,40.586250 
z"/>
<path fill="#4878B9" opacity="1.000000" stroke="none" 
	d="
M459.849060,39.358803 
	C460.069458,39.319626 460.341278,39.541607 460.638550,40.035110 
	C460.409515,40.077744 460.155029,39.848850 459.849060,39.358803 
z"/>
<path fill="#1959A9" opacity="1.000000" stroke="none" 
	d="
M367.232422,68.310005 
	C367.214874,68.061920 367.488678,67.866386 367.881958,67.841751 
	C367.842224,68.129288 367.682983,68.245926 367.232422,68.310005 
z"/>
<path fill="#FCFCFE" opacity="1.000000" stroke="none" 
	d="
M329.604858,43.353188 
	C333.143494,42.448566 336.330994,41.176323 339.545227,41.104778 
	C349.081116,40.892529 353.890625,46.790604 352.513367,56.735012 
	C341.496307,56.735012 330.437317,56.735012 318.748291,56.735012 
	C320.608704,50.821949 324.136719,46.580276 329.604858,43.353188 
z"/>
<path fill="#FCFDFE" opacity="1.000000" stroke="none" 
	d="
M101.387390,41.089073 
	C113.650467,40.903294 119.427589,46.817944 116.897118,56.780308 
	C105.892578,56.780308 94.829025,56.780308 83.279625,56.780308 
	C86.374825,48.121239 92.082062,42.877274 101.387390,41.089073 
z"/>
</svg>