<svg version="1.1" id="Layer_1" xmlns="http://www.w3.org/2000/svg" xmlns:xlink="http://www.w3.org/1999/xlink" x="0px" y="0px"
	 width="100%" viewBox="0 0 200 200" enable-background="new 0 0 200 200" xml:space="preserve">
<path fill="#FFFFFF" opacity="1.000000" stroke="none" 
	d="
M116.000000,201.000000 
	C77.357201,201.000000 39.214397,201.000000 1.035799,201.000000 
	C1.035799,134.398911 1.035799,67.797783 1.035799,1.098330 
	C67.559296,1.098330 134.118790,1.098330 200.839142,1.098330 
	C200.839142,67.666351 200.839142,134.333145 200.839142,201.000000 
	C172.798065,201.000000 144.649033,201.000000 116.000000,201.000000 
M26.060152,115.967255 
	C26.060152,115.967255 26.150291,115.814728 26.189655,116.612160 
	C28.782862,118.362282 31.353964,120.002129 32.583931,114.724701 
	C32.749462,114.156586 32.914993,113.588463 33.680195,112.657288 
	C34.435570,111.210693 35.190945,109.764091 36.432011,107.387360 
	C37.190594,109.722504 37.515705,111.109230 38.082047,112.389214 
	C39.407600,115.385078 41.083855,117.879082 45.806599,116.059608 
	C48.188408,116.324097 50.570217,116.588585 53.425644,117.448921 
	C56.671936,116.932213 59.918232,116.415504 63.792717,116.219368 
	C67.412071,116.732254 69.959305,116.143204 70.147812,111.572662 
	C70.266090,108.704903 71.256165,105.861359 71.956718,103.032112 
	C73.018188,98.745262 76.573944,99.894653 79.155136,100.421631 
	C79.998764,100.593872 80.625717,103.783302 80.648674,105.601738 
	C80.692917,109.108253 80.236450,112.621071 80.125252,116.791260 
	C81.744568,116.539429 83.363884,116.287605 85.393898,115.616875 
	C85.635002,115.084320 85.876106,114.551758 86.776169,113.897423 
	C87.542213,113.003593 88.308258,112.109772 88.520332,111.862328 
	C90.893456,113.718216 92.942314,115.320511 95.264198,117.403275 
	C95.843079,117.267815 96.421951,117.132347 97.898911,117.023903 
	C100.592453,117.025818 103.286003,117.027733 106.005249,117.712250 
	C106.478630,118.337700 106.952011,118.963158 107.425377,119.588615 
	C107.934090,118.716194 108.442802,117.843781 108.972267,116.971352 
	C108.972267,116.971352 108.984932,116.950066 109.798538,116.977737 
	C112.964867,116.932327 116.131195,116.886925 120.165398,116.894936 
	C123.657188,116.882683 127.148972,116.870430 131.169449,116.819946 
	C131.440399,116.604523 131.711365,116.389099 132.400909,116.004494 
	C132.400909,116.004494 132.845627,115.926620 133.717743,115.967010 
	C134.879120,115.936462 136.040482,115.905922 137.893356,115.949837 
	C144.593536,116.237877 144.555923,116.235123 145.034470,109.701103 
	C145.126221,108.448212 145.643219,107.226471 146.663971,105.884468 
	C147.610458,104.594681 148.385330,103.104668 149.568268,102.090752 
	C150.269836,101.489418 151.717255,101.299706 152.633102,101.575783 
	C153.198746,101.746300 153.784744,103.186989 153.689926,103.976822 
	C153.299927,107.226059 152.523117,110.431717 152.203979,113.684357 
	C152.136139,114.375809 153.391190,115.197067 154.001175,116.000000 
	C154.001175,116.000000 154.041580,115.962524 153.988464,116.481316 
	C153.989609,116.655174 153.990738,116.829033 154.152313,117.742332 
	C154.636841,118.127045 155.135056,118.861725 155.603836,118.843399 
	C161.583038,118.609749 167.568756,118.383690 173.522522,117.829857 
	C174.419235,117.746452 175.874344,115.993851 175.859726,115.031761 
	C175.765396,108.818680 176.016907,102.864433 181.986099,98.989548 
	C181.986099,98.989548 181.969482,98.949913 182.609085,98.922775 
	C183.563965,95.299553 176.631790,89.579178 171.396606,90.109444 
	C171.019531,90.125153 170.642441,90.140862 169.460373,90.132858 
	C166.286346,90.762329 162.965271,91.001511 159.978073,92.126892 
	C156.747726,93.343887 152.398727,91.042885 150.008835,95.160652 
	C150.008835,95.160652 150.184616,95.191742 149.360992,95.051567 
	C147.197815,95.156815 145.034622,95.262070 142.201462,95.217842 
	C141.521423,95.186836 140.841385,95.155823 139.434097,95.116547 
	C134.242645,94.409798 129.050934,93.704788 123.860031,92.994102 
	C123.212860,92.905495 122.376015,93.011131 121.954887,92.647293 
	C117.825996,89.080170 116.377487,91.962448 115.309784,95.696045 
	C113.399086,94.558159 111.631592,93.725121 110.117561,92.562119 
	C105.836220,89.273399 98.518463,91.351524 95.238342,96.883041 
	C94.442154,97.539734 93.645958,98.196426 92.087074,98.954193 
	C90.037659,97.978134 87.988243,97.002075 85.539871,95.424210 
	C81.368622,94.626602 77.113518,92.416191 73.331169,96.664421 
	C72.883278,97.167503 70.987480,96.322578 69.753159,96.200554 
	C68.466888,96.073410 67.168877,96.065033 65.085495,96.009987 
	C63.789711,95.827988 61.780224,96.106087 61.316936,95.387421 
	C58.793888,91.473610 55.219650,93.080269 51.934738,93.199867 
	C45.780216,93.423958 40.344471,94.730476 38.343964,101.762367 
	C38.153069,102.433395 36.074181,102.567307 34.832870,102.287605 
	C34.937859,101.858650 35.042850,101.429703 35.749454,100.635986 
	C37.669487,95.212593 40.974575,91.294693 47.377468,90.047562 
	C47.377468,90.047562 47.840694,89.928345 48.459961,89.748672 
	C48.555801,88.808182 48.651642,87.867699 48.680550,86.642143 
	C48.680550,86.642143 48.817413,86.383286 48.815987,85.529541 
	C48.228241,85.043350 47.645973,84.141571 47.051918,84.133736 
	C39.063869,84.028343 31.072683,83.972168 23.086754,84.130180 
	C22.075413,84.150192 21.089499,85.455223 20.055849,86.063385 
	C20.055849,86.063385 20.149963,86.115768 19.476175,86.091530 
	C14.996122,88.630592 20.543636,90.428116 19.273596,93.118546 
	C20.792076,92.709511 21.580658,92.566628 22.317574,92.287392 
	C27.400185,90.361427 27.818565,90.792885 27.223913,96.192673 
	C27.050077,97.771202 27.947916,99.467751 28.315912,101.761635 
	C28.178066,102.172882 28.040220,102.584122 27.319710,103.317009 
	C27.276566,104.571976 27.233419,105.826935 27.233624,107.736427 
	C27.121355,108.157143 27.009085,108.577858 26.372530,109.535545 
	C26.322741,110.529236 26.272949,111.522934 26.338093,112.792206 
	C26.338093,112.792206 26.150084,113.024162 25.447697,113.093536 
	C25.046635,113.678864 24.645573,114.264191 24.244513,114.849518 
	C24.892612,115.181496 25.540714,115.513474 26.060152,115.967255 
M127.349289,89.351730 
	C128.391647,89.688301 129.433990,90.024872 130.476349,90.361435 
	C130.478409,89.458168 130.480453,88.554909 130.482513,87.651649 
	C129.438843,87.981079 128.395187,88.310516 127.349289,89.351730 
z"/>
<path fill="#EAF6FC" opacity="1.000000" stroke="none" 
	d="
M95.900772,96.702225 
	C98.518463,91.351524 105.836220,89.273399 110.117561,92.562119 
	C111.631592,93.725121 113.399086,94.558159 115.309784,95.696045 
	C116.377487,91.962448 117.825996,89.080170 121.954887,92.647293 
	C122.376015,93.011131 123.212860,92.905495 123.860031,92.994102 
	C129.050934,93.704788 134.242645,94.409798 139.747925,95.535583 
	C139.738480,98.969627 139.415176,101.984619 138.722260,104.999405 
	C137.613647,105.000565 136.874649,105.001945 136.082611,104.586761 
	C135.926025,102.781693 135.822479,101.393204 135.718262,99.778954 
	C135.559906,99.278214 135.330643,99.090645 134.978851,98.624336 
	C129.724152,92.917305 121.808624,93.741364 115.824768,100.360153 
	C115.361679,101.000443 115.145988,101.501778 114.833344,102.104279 
	C114.736397,102.205460 114.740799,102.485680 114.472473,102.759293 
	C114.028503,104.020950 113.852859,105.008995 113.554054,106.236633 
	C113.500793,106.820511 113.570686,107.164787 113.507385,107.781616 
	C113.774216,109.130737 114.174248,110.207329 114.679535,111.295975 
	C114.784798,111.308029 114.576103,111.344711 114.623856,111.640167 
	C115.073074,112.337624 115.474533,112.739624 115.933037,113.072403 
	C115.990082,113.003181 115.861130,113.128105 115.974220,113.386154 
	C116.555687,113.929016 117.024071,114.213829 117.505608,114.504105 
	C117.518768,114.509567 117.511528,114.538773 117.727737,114.757874 
	C118.395142,115.598488 118.846336,116.220001 119.297523,116.841522 
	C116.131195,116.886925 112.964867,116.932327 109.564240,116.638885 
	C109.967033,114.073959 110.604126,111.847893 110.910034,110.779037 
	C105.452324,110.088066 101.203506,109.550140 96.606651,108.837845 
	C95.111252,103.608261 97.601791,100.711411 102.434624,99.053223 
	C104.559891,99.088921 106.268120,99.028206 108.164825,99.065254 
	C108.353310,99.163017 108.777908,99.156586 108.989853,99.423439 
	C109.902893,100.089417 110.603981,100.488541 111.684547,101.103706 
	C112.079926,99.246078 112.397919,97.752029 112.704132,96.313354 
	C107.143517,94.134415 103.089264,94.348007 96.011398,96.958405 
	C95.984436,96.869064 95.900772,96.702225 95.900772,96.702225 
z"/>
<path fill="#1F5BC0" opacity="1.000000" stroke="none" 
	d="
M79.987595,116.131279 
	C80.236450,112.621071 80.692917,109.108253 80.648674,105.601738 
	C80.625717,103.783302 79.998764,100.593872 79.155136,100.421631 
	C76.573944,99.894653 73.018188,98.745262 71.956718,103.032112 
	C71.256165,105.861359 70.266090,108.704903 70.147812,111.572662 
	C69.959305,116.143204 67.412071,116.732254 63.440697,115.638992 
	C63.245155,113.770126 63.371090,112.477043 63.563499,111.193932 
	C64.323006,106.129166 65.103371,101.067520 65.875999,96.004723 
	C67.168877,96.065033 68.466888,96.073410 69.753159,96.200554 
	C70.987480,96.322578 72.883278,97.167503 73.331169,96.664421 
	C77.113518,92.416191 81.368622,94.626602 85.797310,96.098007 
	C86.524902,99.425301 87.380684,102.081154 87.364594,104.731705 
	C87.345779,107.829948 86.566536,110.923569 86.117203,114.019196 
	C85.876106,114.551758 85.635002,115.084320 84.775192,115.760361 
	C82.766861,115.979652 81.377220,116.055466 79.987595,116.131279 
M69.985741,103.979607 
	C69.905373,102.162460 69.825005,100.345314 69.744637,98.528168 
	C69.367973,98.528175 68.991302,98.528183 68.614632,98.528191 
	C67.773193,101.449760 66.931747,104.371323 66.090302,107.292892 
	C66.408928,107.462624 66.727554,107.632362 67.046173,107.802094 
	C67.990738,106.788887 68.935295,105.775681 69.985741,103.979607 
z"/>
<path fill="#255EBF" opacity="1.000000" stroke="none" 
	d="
M139.091888,104.999619 
	C139.415176,101.984619 139.738480,98.969627 140.111557,95.539719 
	C140.841385,95.155823 141.521423,95.186836 142.700043,95.559692 
	C145.801071,98.359489 148.064102,97.476967 150.184616,95.191742 
	C150.184616,95.191742 150.008835,95.160652 150.516541,95.191833 
	C159.016586,94.374367 161.263702,95.748558 162.035645,102.392807 
	C161.708923,104.859085 161.453186,106.932861 161.098267,109.375366 
	C160.966217,110.502533 160.933350,111.260971 160.806824,112.152924 
	C160.713165,112.286430 160.793594,112.602539 160.582611,112.845703 
	C160.303635,113.717377 160.235641,114.345879 160.049438,115.127419 
	C159.931229,115.280457 159.901230,115.666054 159.486618,115.732056 
	C157.395203,115.852875 155.718384,115.907700 154.041580,115.962524 
	C154.041580,115.962524 154.001175,116.000000 153.985016,115.558876 
	C154.551483,111.524277 155.378143,107.945961 155.602905,104.330246 
	C155.699936,102.769615 154.984955,100.391357 153.852737,99.729652 
	C152.634995,99.017975 149.899536,99.257202 148.898575,100.209091 
	C147.422592,101.612701 146.895340,104.013985 145.964035,105.990356 
	C145.643219,107.226471 145.126221,108.448212 145.034470,109.701103 
	C144.555923,116.235123 144.593536,116.237877 137.503952,115.509430 
	C137.773666,111.712547 138.432770,108.356087 139.091888,104.999619 
M156.979599,106.253326 
	C156.730011,108.670471 156.480423,111.087624 156.132874,114.453575 
	C160.570648,109.971764 161.298569,102.394424 157.415329,98.121880 
	C157.272522,100.530487 157.129715,102.939087 156.979599,106.253326 
M153.372955,97.212646 
	C153.735794,97.261223 154.098618,97.309799 154.461441,97.358376 
	C154.463791,97.100517 154.466141,96.842651 154.468506,96.584801 
	C154.104492,96.624138 153.740494,96.663475 153.372955,97.212646 
z"/>
<path fill="#0F53C5" opacity="1.000000" stroke="none" 
	d="
M52.952026,116.853065 
	C50.570217,116.588585 48.188408,116.324097 45.221107,115.739944 
	C38.006180,111.287918 37.406540,105.573250 42.418983,99.879196 
	C46.592934,95.137665 51.927418,95.361702 56.941677,96.378830 
	C58.972366,96.790749 60.800972,100.447540 61.667324,102.987358 
	C61.928936,103.754303 58.647770,105.729721 56.536865,107.088310 
	C53.591526,107.020508 51.069000,106.789383 48.619061,107.111053 
	C47.466969,107.262321 46.454483,108.476860 45.378738,109.209579 
	C46.372017,110.130676 47.355198,111.814720 48.360493,111.828033 
	C51.232132,111.866043 54.112766,111.225014 57.307926,111.005844 
	C60.454895,113.584946 57.886822,114.690979 56.338253,115.777748 
	C55.413445,116.426781 54.094048,116.513550 52.952026,116.853065 
M54.523956,99.030869 
	C50.236450,97.354729 47.257668,98.622681 44.987965,103.508179 
	C48.939713,103.508179 52.245686,103.508179 56.113613,103.508179 
	C55.766006,102.221558 55.416042,100.926208 54.523956,99.030869 
z"/>
<path fill="#E0F2FD" opacity="1.000000" stroke="none" 
	d="
M56.989426,107.151573 
	C58.647770,105.729721 61.928936,103.754303 61.667324,102.987358 
	C60.800972,100.447540 58.972366,96.790749 56.941677,96.378830 
	C51.927418,95.361702 46.592934,95.137665 42.418983,99.879196 
	C37.406540,105.573250 38.006180,111.287918 44.815910,115.718208 
	C41.083855,117.879082 39.407600,115.385078 38.082047,112.389214 
	C37.515705,111.109230 37.190594,109.722504 36.432011,107.387360 
	C35.190945,109.764091 34.435570,111.210693 33.331337,112.430527 
	C33.612247,109.119362 34.242016,106.034966 34.871780,102.950569 
	C36.074181,102.567307 38.153069,102.433395 38.343964,101.762367 
	C40.344471,94.730476 45.780216,93.423958 51.934738,93.199867 
	C55.219650,93.080269 58.793888,91.473610 61.316936,95.387421 
	C61.780224,96.106087 63.789711,95.827988 65.480743,96.007355 
	C65.103371,101.067520 64.323006,106.129166 63.563499,111.193932 
	C63.371090,112.477043 63.245155,113.770126 63.126598,115.478714 
	C59.918232,116.415504 56.671936,116.932213 53.188835,117.150986 
	C54.094048,116.513550 55.413445,116.426781 56.338253,115.777748 
	C57.886822,114.690979 60.454895,113.584946 57.313744,110.635925 
	C56.997475,109.124680 56.993450,108.138130 56.989426,107.151573 
z"/>
<path fill="#1A59C4" opacity="1.000000" stroke="none" 
	d="
M170.265366,90.156578 
	C170.642441,90.140862 171.019531,90.125153 171.838150,90.411331 
	C175.509628,93.458778 178.739548,96.204346 181.969482,98.949913 
	C181.969482,98.949913 181.986099,98.989548 181.534714,99.000031 
	C179.145081,99.135902 177.206818,99.261284 175.181152,99.392319 
	C174.424347,103.454033 173.410522,107.162849 173.113098,110.928246 
	C172.737900,115.678734 170.650192,116.913895 166.667328,115.452209 
	C166.667328,111.602615 166.667328,108.018387 166.667542,104.383476 
	C166.667740,104.332794 166.694641,104.051949 166.917755,103.788986 
	C171.750443,98.792419 163.245178,99.671555 164.209473,96.324898 
	C167.388443,95.559006 170.959503,94.907143 170.265366,90.156578 
z"/>
<path fill="#2860BA" opacity="1.000000" stroke="none" 
	d="
M34.852325,102.619087 
	C34.242016,106.034966 33.612247,109.119362 33.031506,112.612053 
	C32.914993,113.588463 32.749462,114.156586 32.247234,115.193588 
	C29.990454,115.713226 28.070374,115.763977 26.150291,115.814728 
	C26.150291,115.814728 26.060152,115.967255 26.129196,115.553650 
	C26.182188,114.434746 26.166136,113.729454 26.150084,113.024162 
	C26.150084,113.024162 26.338093,112.792206 26.504669,112.355118 
	C26.746433,110.944878 26.821623,109.971725 26.896812,108.998573 
	C27.009085,108.577858 27.121355,108.157143 27.430687,107.128555 
	C27.719296,105.345573 27.810837,104.170471 27.902378,102.995369 
	C28.040220,102.584122 28.178066,102.172882 28.539454,101.109016 
	C29.261246,97.222527 29.759495,93.988647 30.354076,90.129547 
	C26.620602,90.129547 23.397562,90.129547 20.149963,90.129547 
	C20.149963,88.415733 20.149963,87.265755 20.149963,86.115768 
	C20.149963,86.115768 20.055849,86.063385 20.528614,86.022003 
	C30.273390,86.114838 39.545403,86.249062 48.817413,86.383286 
	C48.817413,86.383286 48.680550,86.642143 48.500042,87.023621 
	C48.159920,88.246178 48.000309,89.087257 47.840698,89.928345 
	C47.840694,89.928345 47.377468,90.047562 46.730240,90.096222 
	C42.853992,90.367699 39.624973,90.590515 36.355835,90.440941 
	C37.201920,83.831375 32.378777,89.946213 31.972549,88.440491 
	C30.854631,96.474419 29.659147,105.065788 28.463661,113.657158 
	C29.099152,113.827919 29.734640,113.998672 30.370131,114.169426 
	C30.921705,112.216835 31.514923,110.274879 32.017002,108.309639 
	C33.490768,102.541061 34.928307,96.763222 36.399361,91.418365 
	C35.995068,94.898720 35.571453,97.949738 35.147839,101.000748 
	C35.042850,101.429703 34.937859,101.858650 34.852325,102.619087 
z"/>
<path fill="#E3F5FC" opacity="1.000000" stroke="none" 
	d="
M166.667328,104.434158 
	C166.667328,108.018387 166.667328,111.602615 166.667328,115.452209 
	C170.650192,116.913895 172.737900,115.678734 173.113098,110.928246 
	C173.410522,107.162849 174.424347,103.454033 175.181152,99.392319 
	C177.206818,99.261284 179.145081,99.135902 181.513977,98.994400 
	C176.016907,102.864433 175.765396,108.818680 175.859726,115.031761 
	C175.874344,115.993851 174.419235,117.746452 173.522522,117.829857 
	C167.568756,118.383690 161.583038,118.609749 155.603836,118.843399 
	C155.135056,118.861725 154.636841,118.127045 154.487717,117.371796 
	C156.515823,116.556190 158.208527,116.111122 159.901230,115.666054 
	C159.901230,115.666054 159.931229,115.280457 160.252716,115.001648 
	C160.809921,114.496040 160.981628,114.228203 161.464905,113.939484 
	C166.992920,112.580070 165.474213,107.820038 166.667328,104.434158 
z"/>
<path fill="#E3F5FC" opacity="1.000000" stroke="none" 
	d="
M169.862869,90.144714 
	C170.959503,94.907143 167.388443,95.559006 164.209473,96.324898 
	C163.245178,99.671555 171.750443,98.792419 166.460266,103.747322 
	C165.179489,103.959045 164.579315,103.949471 163.943176,103.636032 
	C163.307007,102.888214 162.706818,102.444260 162.106613,102.000305 
	C161.263702,95.748558 159.016586,94.374367 150.597321,95.229782 
	C152.398727,91.042885 156.747726,93.343887 159.978073,92.126892 
	C162.965271,91.001511 166.286346,90.762329 169.862869,90.144714 
z"/>
<path fill="#E9FAFE" opacity="1.000000" stroke="none" 
	d="
M138.722260,104.999405 
	C138.432770,108.356087 137.773666,111.712547 137.158203,115.472198 
	C136.040482,115.905922 134.879120,115.936462 133.330811,115.565582 
	C133.337692,113.854492 133.731522,112.544815 134.439987,110.188850 
	C132.251663,111.040253 131.107132,111.485550 129.959778,111.941940 
	C129.956955,111.953041 129.938629,111.942398 129.526245,111.913177 
	C126.727875,111.853844 124.341866,111.823730 121.693253,111.573181 
	C120.966087,109.935944 120.501534,108.519150 120.488663,107.062897 
	C124.464294,107.336250 128.005905,107.989708 131.504257,107.808426 
	C133.092255,107.726135 134.594513,105.989502 136.135666,105.003326 
	C136.874649,105.001945 137.613647,105.000565 138.722260,104.999405 
z"/>
<path fill="#D4ECFC" opacity="1.000000" stroke="none" 
	d="
M86.446686,113.958313 
	C86.566536,110.923569 87.345779,107.829948 87.364594,104.731705 
	C87.380684,102.081154 86.524902,99.425301 85.996788,96.398911 
	C87.988243,97.002075 90.037659,97.978134 92.562744,98.996521 
	C93.038422,99.038849 93.226585,99.225067 93.129883,99.502144 
	C92.882195,100.139160 92.731209,100.499092 92.298996,101.071480 
	C88.750389,108.280479 89.657585,111.436424 95.898079,115.423096 
	C95.515564,116.070900 95.253365,116.496857 94.991165,116.922813 
	C92.942314,115.320511 90.893456,113.718216 88.520332,111.862328 
	C88.308258,112.109772 87.542213,113.003593 86.446686,113.958313 
z"/>
<path fill="#E0F2FD" opacity="1.000000" stroke="none" 
	d="
M48.816700,85.956413 
	C39.545403,86.249062 30.273390,86.114838 20.546593,86.072769 
	C21.089499,85.455223 22.075413,84.150192 23.086754,84.130180 
	C31.072683,83.972168 39.063869,84.028343 47.051918,84.133736 
	C47.645973,84.141571 48.228241,85.043350 48.816700,85.956413 
z"/>
<path fill="#D4ECFC" opacity="1.000000" stroke="none" 
	d="
M96.954681,109.012222 
	C101.203506,109.550140 105.452324,110.088066 110.910034,110.779037 
	C110.604126,111.847893 109.967033,114.073959 109.157440,116.625046 
	C108.984932,116.950066 108.972267,116.971352 108.591492,116.974838 
	C107.466988,116.995438 106.723267,117.012543 105.979546,117.029648 
	C103.286003,117.027733 100.592453,117.025818 97.460014,116.723396 
	C97.034546,116.231888 97.047981,116.040878 97.498047,115.923737 
	C101.654076,115.808449 105.845749,117.306091 109.445343,112.805641 
	C104.378693,112.349930 99.149010,114.983994 96.954681,109.012222 
z"/>
<path fill="#DCF0FD" opacity="1.000000" stroke="none" 
	d="
M146.313995,105.937408 
	C146.895340,104.013985 147.422592,101.612701 148.898575,100.209091 
	C149.899536,99.257202 152.634995,99.017975 153.852737,99.729652 
	C154.984955,100.391357 155.699936,102.769615 155.602905,104.330246 
	C155.378143,107.945961 154.551483,111.524277 154.002808,115.538132 
	C153.391190,115.197067 152.136139,114.375809 152.203979,113.684357 
	C152.523117,110.431717 153.299927,107.226059 153.689926,103.976822 
	C153.784744,103.186989 153.198746,101.746300 152.633102,101.575783 
	C151.717255,101.299706 150.269836,101.489418 149.568268,102.090752 
	C148.385330,103.104668 147.610458,104.594681 146.313995,105.937408 
z"/>
<path fill="#E0F2FD" opacity="1.000000" stroke="none" 
	d="
M19.813068,86.103653 
	C20.149963,87.265755 20.149963,88.415733 20.149963,90.129547 
	C23.397562,90.129547 26.620602,90.129547 30.354076,90.129547 
	C29.759495,93.988647 29.261246,97.222527 28.558773,100.783302 
	C27.947916,99.467751 27.050077,97.771202 27.223913,96.192673 
	C27.818565,90.792885 27.400185,90.361427 22.317574,92.287392 
	C21.580658,92.566628 20.792076,92.709511 19.273596,93.118546 
	C20.543636,90.428116 14.996122,88.630592 19.813068,86.103653 
z"/>
<path fill="#E0F2FD" opacity="1.000000" stroke="none" 
	d="
M35.448647,100.818367 
	C35.571453,97.949738 35.995068,94.898720 36.405457,91.375053 
	C36.392227,90.902397 36.395958,90.813324 36.395958,90.813324 
	C39.624973,90.590515 42.853992,90.367699 46.529495,90.226227 
	C40.974575,91.294693 37.669487,95.212593 35.448647,100.818367 
z"/>
<path fill="#3968B9" opacity="1.000000" stroke="none" 
	d="
M129.962601,111.930847 
	C131.107132,111.485550 132.251663,111.040253 134.439987,110.188850 
	C133.731522,112.544815 133.337692,113.854492 132.894745,115.545395 
	C132.845627,115.926620 132.400909,116.004494 131.911987,116.066803 
	C131.162292,116.372131 130.901535,116.615150 130.640762,116.858177 
	C127.148972,116.870430 123.657188,116.882683 119.731461,116.868225 
	C118.846336,116.220001 118.395142,115.598488 118.160034,114.646759 
	C122.094307,114.441223 125.822731,114.769005 129.525269,114.582664 
	C130.858597,114.515549 133.497604,113.426514 129.962601,111.930847 
z"/>
<path fill="#E3F5FC" opacity="1.000000" stroke="none" 
	d="
M182.289276,98.936340 
	C178.739548,96.204346 175.509628,93.458778 172.120865,90.425064 
	C176.631790,89.579178 183.563965,95.299553 182.289276,98.936340 
z"/>
<path fill="#E3F5FC" opacity="1.000000" stroke="none" 
	d="
M149.772797,95.121658 
	C148.064102,97.476967 145.801071,98.359489 143.035034,95.634430 
	C145.034622,95.262070 147.197815,95.156815 149.772797,95.121658 
z"/>
<path fill="#E0F2FD" opacity="1.000000" stroke="none" 
	d="
M26.169973,116.213440 
	C28.070374,115.763977 29.990454,115.713226 32.283699,115.489090 
	C31.353964,120.002129 28.782862,118.362282 26.169973,116.213440 
z"/>
<path fill="#EAF6FC" opacity="1.000000" stroke="none" 
	d="
M127.350403,88.995842 
	C128.395187,88.310516 129.438843,87.981079 130.482513,87.651642 
	C130.480453,88.554909 130.478409,89.458168 130.476349,90.361435 
	C129.433990,90.024872 128.391647,89.688301 127.350403,88.995842 
z"/>
<path fill="#D4ECFC" opacity="1.000000" stroke="none" 
	d="
M80.056419,116.461273 
	C81.377220,116.055466 82.766861,115.979652 84.569847,115.969818 
	C83.363884,116.287605 81.744568,116.539429 80.056419,116.461273 
z"/>
<path fill="#EAF6FC" opacity="1.000000" stroke="none" 
	d="
M105.992401,117.370956 
	C106.723267,117.012543 107.466988,116.995438 108.581116,116.974854 
	C108.442802,117.843781 107.934090,118.716194 107.425385,119.588615 
	C106.952011,118.963158 106.478630,118.337700 105.992401,117.370956 
z"/>
<path fill="#E0F2FD" opacity="1.000000" stroke="none" 
	d="
M27.611044,103.156189 
	C27.810837,104.170471 27.719296,105.345573 27.409014,106.801285 
	C27.233419,105.826935 27.276566,104.571976 27.611044,103.156189 
z"/>
<path fill="#E0F2FD" opacity="1.000000" stroke="none" 
	d="
M25.798889,113.058853 
	C26.166136,113.729454 26.182188,114.434746 26.193527,115.492744 
	C25.540714,115.513474 24.892612,115.181496 24.244511,114.849518 
	C24.645573,114.264191 25.046635,113.678864 25.798889,113.058853 
z"/>
<path fill="#DCF0FD" opacity="1.000000" stroke="none" 
	d="
M159.486618,115.732056 
	C158.208527,116.111122 156.515823,116.556190 154.407501,117.002075 
	C153.990738,116.829033 153.989609,116.655174 154.015015,116.221924 
	C155.718384,115.907700 157.395203,115.852875 159.486618,115.732056 
z"/>
<path fill="#EAF6FC" opacity="1.000000" stroke="none" 
	d="
M97.061424,115.849876 
	C97.047981,116.040878 97.034546,116.231888 97.010971,116.709885 
	C96.421951,117.132347 95.843079,117.267815 95.127686,117.163040 
	C95.253365,116.496857 95.515564,116.070900 96.138504,115.366333 
	C96.838242,115.229935 97.025635,115.483986 97.061424,115.849876 
z"/>
<path fill="#E0F2FD" opacity="1.000000" stroke="none" 
	d="
M48.150330,89.838509 
	C48.000309,89.087257 48.159920,88.246178 48.533508,87.166153 
	C48.651642,87.867699 48.555801,88.808182 48.150330,89.838509 
z"/>
<path fill="#D4ECFC" opacity="1.000000" stroke="none" 
	d="
M92.944092,98.945984 
	C93.645958,98.196426 94.442154,97.539734 95.569557,96.792633 
	C95.900772,96.702225 95.984436,96.869064 95.918930,97.161316 
	C95.853424,97.453575 95.708809,97.875420 95.520157,97.921188 
	C95.086678,98.096870 94.932320,98.296669 94.590561,98.667984 
	C93.950668,98.921440 93.588631,99.073250 93.226585,99.225067 
	C93.226585,99.225067 93.038422,99.038849 92.944092,98.945984 
z"/>
<path fill="#E0F2FD" opacity="1.000000" stroke="none" 
	d="
M26.634670,109.267059 
	C26.821623,109.971725 26.746433,110.944878 26.447201,112.217331 
	C26.272949,111.522934 26.322741,110.529236 26.634670,109.267059 
z"/>
<path fill="#E9FAFE" opacity="1.000000" stroke="none" 
	d="
M130.905106,116.839066 
	C130.901535,116.615150 131.162292,116.372131 131.702698,116.151390 
	C131.711365,116.389099 131.440399,116.604523 130.905106,116.839066 
z"/>
<path fill="#1456C3" opacity="1.000000" stroke="none" 
	d="
M129.959778,111.941940 
	C133.497604,113.426514 130.858597,114.515549 129.525269,114.582664 
	C125.822731,114.769005 122.094307,114.441223 117.943817,114.427666 
	C117.511528,114.538773 117.518768,114.509567 117.539490,114.170143 
	C116.993858,113.596519 116.427490,113.362312 115.861130,113.128105 
	C115.861130,113.128105 115.990082,113.003181 115.937996,112.743469 
	C115.449303,112.104073 115.012703,111.724396 114.576103,111.344711 
	C114.576103,111.344711 114.784798,111.308029 114.781837,110.904587 
	C114.399445,109.503792 114.020012,108.506432 113.640579,107.509071 
	C113.570686,107.164787 113.500793,106.820511 113.894913,106.026237 
	C114.486221,104.546059 114.613510,103.515869 114.740799,102.485680 
	C114.740799,102.485680 114.736397,102.205460 115.078812,101.965805 
	C115.638199,101.224495 115.855171,100.722839 116.072144,100.221184 
	C121.808624,93.741364 129.724152,92.917305 134.620102,98.593239 
	C133.131897,99.421738 131.951477,99.915169 130.483917,100.205460 
	C125.250198,97.267822 123.324707,97.815170 119.247520,103.893661 
	C123.236549,103.893661 126.601753,103.893661 130.138290,104.162323 
	C130.900192,104.645248 131.490738,104.859512 131.769257,105.347427 
	C127.650482,106.114845 123.843727,106.608597 120.036980,107.102356 
	C120.501534,108.519150 120.966087,109.935944 121.874512,111.864746 
	C124.858467,112.231972 127.398544,112.087189 129.938629,111.942398 
	C129.938629,111.942398 129.956955,111.953041 129.959778,111.941940 
z"/>
<path fill="#0F54C9" opacity="1.000000" stroke="none" 
	d="
M94.868416,98.566353 
	C94.932320,98.296669 95.086678,98.096870 95.939430,97.954575 
	C100.094421,97.292435 103.620255,96.437988 107.196236,96.067162 
	C109.459587,95.832451 110.936104,96.751633 108.777908,99.156586 
	C108.777908,99.156586 108.353310,99.163017 107.919998,98.796875 
	C105.663658,98.606102 103.840622,98.781456 102.017586,98.956818 
	C97.601791,100.711411 95.111252,103.608261 96.606651,108.837845 
	C99.149010,114.983994 104.378693,112.349930 109.445343,112.805641 
	C105.845749,117.306091 101.654076,115.808449 97.498047,115.923737 
	C97.025635,115.483986 96.838242,115.229935 96.258812,115.144470 
	C89.657585,111.436424 88.750389,108.280479 92.651047,101.011467 
	C93.812347,100.014786 94.340385,99.290565 94.868416,98.566353 
z"/>
<path fill="#2860BA" opacity="1.000000" stroke="none" 
	d="
M108.989853,99.423439 
	C110.936104,96.751633 109.459587,95.832451 107.196236,96.067162 
	C103.620255,96.437988 100.094421,97.292435 96.128082,97.908813 
	C95.708809,97.875420 95.853424,97.453575 95.945892,97.250656 
	C103.089264,94.348007 107.143517,94.134415 112.704132,96.313354 
	C112.397919,97.752029 112.079926,99.246078 111.684547,101.103706 
	C110.603981,100.488541 109.902893,100.089417 108.989853,99.423439 
z"/>
<path fill="#295BAC" opacity="1.000000" stroke="none" 
	d="
M120.488663,107.062897 
	C123.843727,106.608597 127.650482,106.114845 132.136597,105.326752 
	C133.783646,103.356522 134.751297,101.680618 135.718933,100.004707 
	C135.822479,101.393204 135.926025,102.781693 136.082611,104.586761 
	C134.594513,105.989502 133.092255,107.726135 131.504257,107.808426 
	C128.005905,107.989708 124.464294,107.336250 120.488663,107.062897 
z"/>
<path fill="#0F54C9" opacity="1.000000" stroke="none" 
	d="
M135.718277,99.778954 
	C134.751297,101.680618 133.783646,103.356522 132.448639,105.053101 
	C131.490738,104.859512 130.900192,104.645248 130.240372,103.869896 
	C130.371094,102.342072 130.571075,101.375343 130.771057,100.408607 
	C131.951477,99.915169 133.131897,99.421738 134.671082,98.959396 
	C135.330643,99.090645 135.559906,99.278214 135.718277,99.778954 
z"/>
<path fill="#2860BA" opacity="1.000000" stroke="none" 
	d="
M102.434624,99.053223 
	C103.840622,98.781456 105.663658,98.606102 107.731522,98.699112 
	C106.268120,99.028206 104.559891,99.088921 102.434624,99.053223 
z"/>
<path fill="#3968B9" opacity="1.000000" stroke="none" 
	d="
M113.507385,107.781616 
	C114.020012,108.506432 114.399445,109.503792 114.676575,110.892532 
	C114.174248,110.207329 113.774216,109.130737 113.507385,107.781616 
z"/>
<path fill="#3968B9" opacity="1.000000" stroke="none" 
	d="
M114.472473,102.759293 
	C114.613510,103.515869 114.486221,104.546059 114.018074,105.786636 
	C113.852859,105.008995 114.028503,104.020950 114.472473,102.759293 
z"/>
<path fill="#3968B9" opacity="1.000000" stroke="none" 
	d="
M114.623856,111.640167 
	C115.012703,111.724396 115.449303,112.104073 115.880951,112.812691 
	C115.474533,112.739624 115.073074,112.337624 114.623856,111.640167 
z"/>
<path fill="#3968B9" opacity="1.000000" stroke="none" 
	d="
M115.974220,113.386154 
	C116.427490,113.362312 116.993858,113.596519 117.526337,114.164680 
	C117.024071,114.213829 116.555687,113.929016 115.974220,113.386154 
z"/>
<path fill="#3968B9" opacity="1.000000" stroke="none" 
	d="
M115.824760,100.360153 
	C115.855171,100.722839 115.638199,101.224495 115.175758,101.864624 
	C115.145988,101.501778 115.361679,101.000443 115.824760,100.360153 
z"/>
<path fill="#0652D3" opacity="1.000000" stroke="none" 
	d="
M69.932800,104.371040 
	C68.935295,105.775681 67.990738,106.788887 67.046173,107.802094 
	C66.727554,107.632362 66.408928,107.462624 66.090302,107.292892 
	C66.931747,104.371323 67.773193,101.449760 68.614632,98.528191 
	C68.991302,98.528183 69.367973,98.528175 69.744637,98.528168 
	C69.825005,100.345314 69.905373,102.162460 69.932800,104.371040 
z"/>
<path fill="#0652D3" opacity="1.000000" stroke="none" 
	d="
M156.983246,105.800507 
	C157.129715,102.939087 157.272522,100.530487 157.415329,98.121880 
	C161.298569,102.394424 160.570648,109.971764 156.132874,114.453575 
	C156.480423,111.087624 156.730011,108.670471 156.983246,105.800507 
z"/>
<path fill="#FFFFFF" opacity="1.000000" stroke="none" 
	d="
M163.979156,103.939903 
	C164.579315,103.949471 165.179489,103.959045 166.237152,104.010284 
	C166.694641,104.051949 166.667740,104.332794 166.667542,104.383476 
	C165.474213,107.820038 166.992920,112.580070 161.408600,113.606636 
	C160.915665,113.036598 160.854630,112.819572 160.793594,112.602539 
	C160.793594,112.602539 160.713165,112.286430 161.087463,111.958023 
	C161.642365,110.753754 161.822983,109.877884 162.263123,108.780975 
	C163.008133,107.019920 163.493637,105.479912 163.979156,103.939903 
z"/>
<path fill="#DCF0FD" opacity="1.000000" stroke="none" 
	d="
M163.943176,103.636032 
	C163.493637,105.479912 163.008133,107.019920 162.061554,108.781906 
	C161.600494,109.003899 161.197449,109.006638 161.197449,109.006638 
	C161.453186,106.932861 161.708923,104.859085 162.035645,102.392807 
	C162.706818,102.444260 163.307007,102.888214 163.943176,103.636032 
z"/>
<path fill="#0652D3" opacity="1.000000" stroke="none" 
	d="
M153.374725,96.957733 
	C153.740494,96.663475 154.104492,96.624138 154.468506,96.584793 
	C154.466141,96.842651 154.463791,97.100517 154.461456,97.358383 
	C154.098618,97.309799 153.735794,97.261223 153.374725,96.957733 
z"/>
<path fill="#E3F5FC" opacity="1.000000" stroke="none" 
	d="
M161.098267,109.375366 
	C161.197449,109.006638 161.600494,109.003899 161.802048,109.002960 
	C161.822983,109.877884 161.642365,110.753754 161.181122,111.824516 
	C160.933350,111.260971 160.966217,110.502533 161.098267,109.375366 
z"/>
<path fill="#DCF0FD" opacity="1.000000" stroke="none" 
	d="
M160.582611,112.845703 
	C160.854630,112.819572 160.915665,113.036598 161.033020,113.586479 
	C160.981628,114.228203 160.809921,114.496040 160.370941,114.848602 
	C160.235641,114.345879 160.303635,113.717377 160.582611,112.845703 
z"/>
<path fill="#F1FCFD" opacity="1.000000" stroke="none" 
	d="
M56.536865,107.088310 
	C56.993450,108.138130 56.997475,109.124680 56.995682,110.481155 
	C54.112766,111.225014 51.232132,111.866043 48.360493,111.828033 
	C47.355198,111.814720 46.372017,110.130676 45.378738,109.209579 
	C46.454483,108.476860 47.466969,107.262321 48.619061,107.111053 
	C51.069000,106.789383 53.591526,107.020508 56.536865,107.088310 
z"/>
<path fill="#D9F2FC" opacity="1.000000" stroke="none" 
	d="
M54.795017,99.330872 
	C55.416042,100.926208 55.766006,102.221558 56.113613,103.508179 
	C52.245686,103.508179 48.939713,103.508179 44.987965,103.508179 
	C47.257668,98.622681 50.236450,97.354729 54.795017,99.330872 
z"/>
<path fill="#0652D3" opacity="1.000000" stroke="none" 
	d="
M36.355835,90.440941 
	C36.395958,90.813324 36.392227,90.902397 36.386131,90.945709 
	C34.928307,96.763222 33.490768,102.541061 32.017002,108.309639 
	C31.514923,110.274879 30.921705,112.216835 30.370131,114.169426 
	C29.734640,113.998672 29.099152,113.827919 28.463661,113.657158 
	C29.659147,105.065788 30.854631,96.474419 31.972549,88.440491 
	C32.378777,89.946213 37.201920,83.831375 36.355835,90.440941 
z"/>
<path fill="#3968B9" opacity="1.000000" stroke="none" 
	d="
M129.526245,111.913177 
	C127.398544,112.087189 124.858467,112.231972 122.137123,112.085190 
	C124.341866,111.823730 126.727875,111.853844 129.526245,111.913177 
z"/>
<path fill="#2860BA" opacity="1.000000" stroke="none" 
	d="
M94.590561,98.667984 
	C94.340385,99.290565 93.812347,100.014786 92.932266,100.799011 
	C92.731209,100.499092 92.882195,100.139160 93.129883,99.502144 
	C93.588631,99.073250 93.950668,98.921440 94.590561,98.667984 
z"/>
<path fill="#D9F2FC" opacity="1.000000" stroke="none" 
	d="
M130.483917,100.205460 
	C130.571075,101.375343 130.371094,102.342072 130.069031,103.601234 
	C126.601753,103.893661 123.236549,103.893661 119.247520,103.893661 
	C123.324707,97.815170 125.250198,97.267822 130.483917,100.205460 
z"/>
</svg>