<svg version="1.1" id="Layer_1" xmlns="http://www.w3.org/2000/svg" xmlns:xlink="http://www.w3.org/1999/xlink" x="0px" y="0px"
	 width="100%" viewBox="0 0 734 587" enable-background="new 0 0 734 587" xml:space="preserve">
<path fill="#015BBB" opacity="1.000000" stroke="none" 
	d="
M1.000000,587.000000 
	C1.000000,391.709686 1.000000,196.419373 1.000000,1.064530 
	C245.569748,1.064530 490.139526,1.064530 735.000000,1.064530 
	C735.000000,196.026764 735.000000,391.053650 734.542053,586.539124 
	C489.722748,586.998474 245.361374,586.999207 1.000000,587.000000 
M220.980881,190.975983 
	C220.980881,190.975983 220.906799,190.964310 221.748672,190.862030 
	C223.878708,190.563217 226.005951,190.031998 228.139252,190.006470 
	C236.628738,189.904907 245.121887,190.051178 253.609406,189.886337 
	C255.408707,189.851379 257.190094,188.893814 259.589691,187.710678 
	C259.589691,179.612122 259.589691,171.513580 259.589691,163.409210 
	C203.893967,163.409210 148.526428,163.409210 93.399734,163.409210 
	C93.399734,171.887756 93.399734,179.965576 93.399734,188.216492 
	C103.122032,188.216492 112.450012,188.190887 121.777786,188.223297 
	C132.225479,188.259598 134.999405,191.085220 135.006271,201.680405 
	C135.020340,223.345139 134.992828,245.009888 135.034485,266.674561 
	C135.039917,269.497620 135.157867,272.347656 135.553299,275.138519 
	C138.888550,298.678833 152.955673,314.145721 173.354919,324.568237 
	C199.867981,338.114441 228.691910,341.938293 257.871857,343.933319 
	C268.282654,344.645081 278.727753,344.855469 289.178101,345.295593 
	C289.178101,360.303162 289.344635,374.959381 289.096771,389.608643 
	C288.996582,395.530151 286.107361,398.343506 280.346832,399.328400 
	C278.230042,399.690338 276.043274,399.747162 273.887451,399.758575 
	C265.251678,399.804230 256.615479,399.777466 247.796890,399.777466 
	C247.796890,408.465912 247.796890,416.665833 247.796890,425.208069 
	C249.684036,425.208069 251.166870,425.208038 252.649719,425.208038 
	C355.973785,425.208252 459.297913,425.244049 562.621826,425.113800 
	C568.379944,425.106537 574.290527,424.322388 579.865784,422.878784 
	C600.064392,417.648865 613.918823,400.347595 614.861267,379.865997 
	C615.762878,360.269165 603.075623,341.157135 584.508179,334.283386 
	C581.810913,333.284790 578.971436,332.670380 574.688843,331.447266 
	C578.056580,330.220337 579.984802,329.483093 581.935852,328.812378 
	C602.574768,321.717224 614.987061,300.874969 611.261230,279.551727 
	C607.585144,258.513000 588.767456,243.102051 566.330688,243.035065 
	C533.667236,242.937531 501.003265,243.011261 468.339539,243.011963 
	C466.595947,243.012009 464.852356,243.011993 462.995331,243.011993 
	C462.995331,227.569412 462.900909,212.906189 463.040070,198.245178 
	C463.098663,192.070572 465.963257,189.146103 472.083710,188.469193 
	C474.557129,188.195633 477.071045,188.234848 479.566864,188.226822 
	C487.845001,188.200150 496.123322,188.216736 504.582825,188.216736 
	C504.582825,179.550308 504.582825,171.487183 504.582825,163.293030 
	C460.052338,163.293030 415.815918,163.293030 371.436279,163.293030 
	C371.436279,171.649017 371.436279,179.715637 371.436279,188.218628 
	C375.878052,188.218628 380.014984,188.165970 384.150085,188.230316 
	C391.302704,188.341599 398.462128,188.369522 405.603149,188.735733 
	C410.085754,188.965591 412.852631,191.928040 412.919464,196.194077 
	C413.161377,211.640030 413.014740,227.092087 413.014740,242.998840 
	C357.754211,242.998840 302.844818,242.998840 247.758575,242.998840 
	C247.758575,251.678482 247.758575,259.893799 247.758575,268.599060 
	C257.585388,268.599060 267.050659,268.531952 276.514526,268.618134 
	C285.798706,268.702698 289.216217,271.963440 289.346649,281.223419 
	C289.513275,293.053314 289.400177,304.887360 289.365265,316.719513 
	C289.362518,317.652222 289.028534,318.583954 288.864807,319.431671 
	C275.340851,320.636658 253.906738,316.867279 242.404816,311.110382 
	C232.887283,306.346802 225.302139,299.651886 221.916321,288.328033 
	C220.956833,281.122284 219.197800,273.918152 219.182831,266.710449 
	C219.131104,241.805176 219.687134,216.898636 220.009842,192.006149 
	C220.009842,192.006149 219.999283,192.015060 220.417969,191.729370 
	C220.609100,191.453491 220.800217,191.177597 220.980881,190.975983 
M615.644836,410.944092 
	C610.580933,412.199890 608.320007,415.139709 608.988403,419.599365 
	C609.536133,423.253723 613.091614,426.228790 616.778564,425.812500 
	C620.957153,425.340698 623.356506,422.828827 623.683105,418.628906 
	C624.009216,414.435516 621.448547,411.818146 615.644836,410.944092 
z"/>
<path fill="#4B8AD7" opacity="1.000000" stroke="none" 
	d="
M1.000000,587.500000 
	C245.361374,586.999207 489.722748,586.998474 734.542053,586.998840 
	C734.833313,587.333313 734.684021,587.943787 734.497192,587.955505 
	C733.169128,588.039001 731.833313,588.000000 730.500000,588.000000 
	C487.333344,588.000000 244.166672,588.000000 1.000000,587.500000 
z"/>
<path fill="#FCFEFE" opacity="1.000000" stroke="none" 
	d="
M221.848877,289.151978 
	C225.302139,299.651886 232.887283,306.346802 242.404816,311.110382 
	C253.906738,316.867279 275.340851,320.636658 288.864807,319.431671 
	C289.028534,318.583954 289.362518,317.652222 289.365265,316.719513 
	C289.400177,304.887360 289.513275,293.053314 289.346649,281.223419 
	C289.216217,271.963440 285.798706,268.702698 276.514526,268.618134 
	C267.050659,268.531952 257.585388,268.599060 247.758575,268.599060 
	C247.758575,259.893799 247.758575,251.678482 247.758575,242.998840 
	C302.844818,242.998840 357.754211,242.998840 413.014740,242.998840 
	C413.014740,227.092087 413.161377,211.640030 412.919464,196.194077 
	C412.852631,191.928040 410.085754,188.965591 405.603149,188.735733 
	C398.462128,188.369522 391.302704,188.341599 384.150085,188.230316 
	C380.014984,188.165970 375.878052,188.218628 371.436279,188.218628 
	C371.436279,179.715637 371.436279,171.649017 371.436279,163.293030 
	C415.815918,163.293030 460.052338,163.293030 504.582825,163.293030 
	C504.582825,171.487183 504.582825,179.550308 504.582825,188.216736 
	C496.123322,188.216736 487.845001,188.200150 479.566864,188.226822 
	C477.071045,188.234848 474.557129,188.195633 472.083710,188.469193 
	C465.963257,189.146103 463.098663,192.070572 463.040070,198.245178 
	C462.900909,212.906189 462.995331,227.569412 462.995331,243.011993 
	C464.852356,243.011993 466.595947,243.012009 468.339539,243.011963 
	C501.003265,243.011261 533.667236,242.937531 566.330688,243.035065 
	C588.767456,243.102051 607.585144,258.513000 611.261230,279.551727 
	C614.987061,300.874969 602.574768,321.717224 581.935852,328.812378 
	C579.984802,329.483093 578.056580,330.220337 574.688843,331.447266 
	C578.971436,332.670380 581.810913,333.284790 584.508179,334.283386 
	C603.075623,341.157135 615.762878,360.269165 614.861267,379.865997 
	C613.918823,400.347595 600.064392,417.648865 579.865784,422.878784 
	C574.290527,424.322388 568.379944,425.106537 562.621826,425.113800 
	C459.297913,425.244049 355.973785,425.208252 252.649719,425.208038 
	C251.166870,425.208038 249.684036,425.208069 247.796890,425.208069 
	C247.796890,416.665833 247.796890,408.465912 247.796890,399.777466 
	C256.615479,399.777466 265.251678,399.804230 273.887451,399.758575 
	C276.043274,399.747162 278.230042,399.690338 280.346832,399.328400 
	C286.107361,398.343506 288.996582,395.530151 289.096771,389.608643 
	C289.344635,374.959381 289.178101,360.303162 289.178101,345.295593 
	C278.727753,344.855469 268.282654,344.645081 257.871857,343.933319 
	C228.691910,341.938293 199.867981,338.114441 173.354919,324.568237 
	C152.955673,314.145721 138.888550,298.678833 135.553299,275.138519 
	C135.157867,272.347656 135.039917,269.497620 135.034485,266.674561 
	C134.992828,245.009888 135.020340,223.345139 135.006271,201.680405 
	C134.999405,191.085220 132.225479,188.259598 121.777786,188.223297 
	C112.450012,188.190887 103.122032,188.216492 93.399734,188.216492 
	C93.399734,179.965576 93.399734,171.887756 93.399734,163.409210 
	C148.526428,163.409210 203.893967,163.409210 259.589691,163.409210 
	C259.589691,171.513580 259.589691,179.612122 258.825317,187.954742 
	C248.736160,188.195236 239.402893,187.965439 230.091461,188.315720 
	C227.001068,188.431976 223.966751,190.038895 220.906799,190.964310 
	C220.906799,190.964310 220.980881,190.975983 220.715179,191.009674 
	C220.299423,191.367264 220.149353,191.691162 219.999283,192.015060 
	C219.999283,192.015060 220.009842,192.006149 219.697815,192.232849 
	C218.873260,194.697418 217.922256,196.933990 217.915588,199.173370 
	C217.843307,223.409241 217.677734,247.650085 218.131454,271.878448 
	C218.239685,277.657471 220.550903,283.395233 221.848877,289.151978 
M497.500000,344.988037 
	C455.611389,344.988037 413.722748,344.988037 371.985138,344.988037 
	C371.985138,363.594299 371.985138,381.484741 371.985138,399.397125 
	C385.342651,399.397125 398.292999,399.396576 411.243347,399.397217 
	C446.543610,399.398987 481.844025,399.453308 517.144104,399.379120 
	C532.457031,399.346954 544.677917,387.281799 544.796631,372.375244 
	C544.914673,357.554260 532.529297,345.117401 517.482117,344.995911 
	C511.155121,344.944824 504.827362,344.987793 497.500000,344.988037 
M473.499756,319.398407 
	C488.805756,319.382843 504.121368,319.698486 519.415039,319.256317 
	C534.016418,318.834167 545.038025,307.363861 544.791443,293.766937 
	C544.530334,279.366150 533.193726,268.643829 518.100952,268.609467 
	C501.296814,268.571198 484.492584,268.594421 467.688385,268.613617 
	C466.252258,268.615265 464.816345,268.787506 462.802338,268.917908 
	C464.686157,288.712738 458.861572,305.453461 442.738037,319.398407 
	C453.680145,319.398407 463.089935,319.398407 473.499756,319.398407 
M413.132080,271.584442 
	C412.379822,270.599121 411.639191,268.765350 410.873566,268.754852 
	C397.965820,268.578125 385.054932,268.628448 372.043640,268.628448 
	C372.043640,285.994476 372.043640,302.800171 372.043640,319.773468 
	C375.158234,319.491669 377.806458,319.326691 380.434967,319.002106 
	C397.219696,316.929535 409.856995,305.398346 412.604309,288.981537 
	C413.499390,283.632935 412.994934,278.050110 413.132080,271.584442 
z"/>
<path fill="#1D5B9C" opacity="1.000000" stroke="none" 
	d="
M221.882599,288.739990 
	C220.550903,283.395233 218.239685,277.657471 218.131454,271.878448 
	C217.677734,247.650085 217.843307,223.409241 217.915588,199.173370 
	C217.922256,196.933990 218.873260,194.697418 219.698761,192.226059 
	C219.687134,216.898636 219.131104,241.805176 219.182831,266.710449 
	C219.197800,273.918152 220.956833,281.122284 221.882599,288.739990 
z"/>
<path fill="#CEEBFB" opacity="1.000000" stroke="none" 
	d="
M616.046936,410.942383 
	C621.448547,411.818146 624.009216,414.435516 623.683105,418.628906 
	C623.356506,422.828827 620.957153,425.340698 616.778564,425.812500 
	C613.091614,426.228790 609.536133,423.253723 608.988403,419.599365 
	C608.320007,415.139709 610.580933,412.199890 616.046936,410.942383 
M619.786133,422.053192 
	C620.426819,420.937561 621.866821,419.465851 621.558228,418.773132 
	C620.634094,416.698822 619.340942,414.482086 617.555420,413.224609 
	C616.629822,412.572784 613.000977,413.664520 612.929443,414.252655 
	C612.594543,417.006409 613.072083,419.858948 613.259399,422.676208 
	C615.231628,422.454987 617.203918,422.233765 619.140930,422.072449 
	C619.140930,422.072449 619.078247,422.102509 619.786133,422.053192 
z"/>
<path fill="#1D5B9C" opacity="1.000000" stroke="none" 
	d="
M221.327728,190.913177 
	C223.966751,190.038895 227.001068,188.431976 230.091461,188.315720 
	C239.402893,187.965439 248.736160,188.195236 258.520325,188.280060 
	C257.190094,188.893814 255.408707,189.851379 253.609406,189.886337 
	C245.121887,190.051178 236.628738,189.904907 228.139252,190.006470 
	C226.005951,190.031998 223.878708,190.563217 221.327728,190.913177 
z"/>
<path fill="#1D5B9C" opacity="1.000000" stroke="none" 
	d="
M220.208618,191.872223 
	C220.149353,191.691162 220.299423,191.367264 220.720428,190.972549 
	C220.800217,191.177597 220.609100,191.453491 220.208618,191.872223 
z"/>
<path fill="#035BBA" opacity="1.000000" stroke="none" 
	d="
M498.000000,344.988037 
	C504.827362,344.987793 511.155121,344.944824 517.482117,344.995911 
	C532.529297,345.117401 544.914673,357.554260 544.796631,372.375244 
	C544.677917,387.281799 532.457031,399.346954 517.144104,399.379120 
	C481.844025,399.453308 446.543610,399.398987 411.243347,399.397217 
	C398.292999,399.396576 385.342651,399.397125 371.985138,399.397125 
	C371.985138,381.484741 371.985138,363.594299 371.985138,344.988037 
	C413.722748,344.988037 455.611389,344.988037 498.000000,344.988037 
z"/>
<path fill="#035BB9" opacity="1.000000" stroke="none" 
	d="
M472.999725,319.398407 
	C463.089935,319.398407 453.680145,319.398407 442.738037,319.398407 
	C458.861572,305.453461 464.686157,288.712738 462.802338,268.917908 
	C464.816345,268.787506 466.252258,268.615265 467.688385,268.613617 
	C484.492584,268.594421 501.296814,268.571198 518.100952,268.609467 
	C533.193726,268.643829 544.530334,279.366150 544.791443,293.766937 
	C545.038025,307.363861 534.016418,318.834167 519.415039,319.256317 
	C504.121368,319.698486 488.805756,319.382843 472.999725,319.398407 
z"/>
<path fill="#045BB8" opacity="1.000000" stroke="none" 
	d="
M413.131348,272.079437 
	C412.994934,278.050110 413.499390,283.632935 412.604309,288.981537 
	C409.856995,305.398346 397.219696,316.929535 380.434967,319.002106 
	C377.806458,319.326691 375.158234,319.491669 372.043640,319.773468 
	C372.043640,302.800171 372.043640,285.994476 372.043640,268.628448 
	C385.054932,268.628448 397.965820,268.578125 410.873566,268.754852 
	C411.639191,268.765350 412.379822,270.599121 413.131348,272.079437 
z"/>
<path fill="#4574AA" opacity="1.000000" stroke="none" 
	d="
M619.176147,422.012543 
	C617.203918,422.233765 615.231628,422.454987 613.259399,422.676208 
	C613.072083,419.858948 612.594543,417.006409 612.929443,414.252655 
	C613.000977,413.664520 616.629822,412.572784 617.555420,413.224609 
	C619.340942,414.482086 620.634094,416.698822 621.558228,418.773132 
	C621.866821,419.465851 620.426819,420.937561 619.308228,421.724060 
	C618.347351,414.850494 618.347351,414.850494 614.170105,415.539093 
	C614.170105,417.417877 614.170105,419.301270 614.170105,421.132477 
	C616.034790,421.460297 617.605469,421.736420 619.176147,422.012543 
z"/>
<path fill="#DDF3FD" opacity="1.000000" stroke="none" 
	d="
M619.158569,422.042480 
	C617.605469,421.736420 616.034790,421.460297 614.170105,421.132477 
	C614.170105,419.301270 614.170105,417.417877 614.170105,415.539093 
	C618.347351,414.850494 618.347351,414.850494 618.954224,421.748718 
	C619.078247,422.102509 619.140930,422.072449 619.158569,422.042480 
z"/>
</svg>